<svg width="109" height="109" viewBox="0 0 109 109" fill="none" xmlns="http://www.w3.org/2000/svg">
<path d="M54.5 109C84.5995 109 109 84.5995 109 54.5C109 24.4005 84.5995 0 54.5 0C24.4005 0 0 24.4005 0 54.5C0 84.5995 24.4005 109 54.5 109Z" fill="#231F20"/>
<path d="M31.6001 64.1999H20.3001L17.8001 72.3999H9.1001L21.5001 36.3999H30.9001L43.3001 72.3999H33.9001L31.6001 64.1999ZM25.8001 45.9999L21.0001 61.5999H30.6001L25.8001 45.9999Z" fill="white"/>
<path d="M45.1001 72.4V70.3H50.1001V38.6H45.1001V36.5H64.0001V38.6H59.0001V70.3H64.0001V72.4H45.1001Z" fill="white"/>
<path d="M88.3003 64.1999H77.0003L74.5003 72.3999H65.8003L78.2003 36.3999H87.7003L100.1 72.3999H90.9003L88.3003 64.1999ZM82.6003 45.9999L77.8003 61.5999H87.4003L82.6003 45.9999Z" fill="white"/>
</svg>
