<svg width="185" height="51" viewBox="0 0 185 51" fill="none" xmlns="http://www.w3.org/2000/svg">
<path d="M0 50.0265V0.416504H73.6V50.0265H0ZM1.11 48.9265H72.5V1.5265H1.11V48.9265Z" fill="white"/>
<path d="M37.3898 7.9566L39.4498 7.9466L37.8298 9.2166L38.4598 11.1666L36.7698 10.0166L35.1098 11.2266L35.6698 9.2566L34.0098 8.0466L36.0598 7.9766L36.6998 6.0166L37.3898 7.9566Z" fill="white"/>
<path d="M29.39 10.1365H31.45L29.83 11.3965L30.46 13.3565L28.76 12.2065L27.1 13.4065L27.67 11.4365L26 10.2265L28.06 10.1565L28.69 8.20654L29.39 10.1365Z" fill="white"/>
<path d="M23.4798 15.9566L25.5398 15.9466L23.9198 17.2166L24.5498 19.1666L22.8498 18.0166L21.1898 19.2266L21.7598 17.2466L20.0898 16.0466L22.1598 15.9766L22.7798 14.0166L23.4798 15.9566Z" fill="white"/>
<path d="M21.4798 24.0567L23.5398 24.0467L21.9198 25.3067L22.5498 27.2667L20.8598 26.1167L19.1898 27.3267L19.7598 25.3467L18.0898 24.1467L20.1498 24.0767L20.7798 22.1167L21.4798 24.0567Z" fill="white"/>
<path d="M23.5799 32.4363H25.6299L24.0099 33.6963L24.6499 35.6463L22.9499 34.5063L21.2899 35.7163L21.8599 33.7363L20.1899 32.5363L22.2499 32.4563L22.8799 30.5063L23.5799 32.4363Z" fill="white"/>
<path d="M29.3002 38.3467H31.3502L29.7302 39.6067L30.3602 41.5567L28.6702 40.4067L27.0102 41.6167L27.5702 39.6467L25.9102 38.4367L27.9602 38.3667L28.6002 36.4067L29.3002 38.3467Z" fill="white"/>
<path d="M37.6798 40.3465H39.7398L38.1198 41.6065L38.7598 43.5565L37.0598 42.4165L35.3898 43.6165L35.9598 41.6465L34.2998 40.4465L36.3498 40.3665L36.9798 38.4165L37.6798 40.3465Z" fill="white"/>
<path d="M45.6898 38.3467H47.7398L46.1198 39.6067L46.7598 41.5567L45.0598 40.4067L43.3998 41.6167L43.9698 39.6467L42.2998 38.4367L44.3598 38.3667L44.9898 36.4067L45.6898 38.3467Z" fill="white"/>
<path d="M51.6 32.2466H53.65L52.03 33.5066L52.67 35.4566L50.97 34.3066L49.31 35.5166L49.87 33.5466L48.21 32.3366L50.26 32.2666L50.89 30.3066L51.6 32.2466Z" fill="white"/>
<path d="M53.7899 24.1463H55.8399L54.2199 25.4063L54.8599 27.3563L53.1499 26.2063L51.4999 27.4163L52.0599 25.4463L50.3999 24.2463L52.4499 24.1663L53.0899 22.2163L53.7899 24.1463Z" fill="white"/>
<path d="M51.6798 16.0467H53.7498L52.1198 17.3067L52.7598 19.2567L51.0598 18.1067L49.3998 19.3167L49.9698 17.3467L48.2998 16.1367L50.3598 16.0667L50.9898 14.1167L51.6798 16.0467Z" fill="white"/>
<path d="M45.4999 10.1365H47.5599L45.9299 11.3965L46.5699 13.3565L44.8599 12.1965L43.1999 13.4065L43.7699 11.4365L42.1099 10.2265L44.1599 10.1565L44.7999 8.20654L45.4999 10.1365Z" fill="white"/>
<path d="M80.6602 12.2465V1.87646H87.7701V3.62646H82.7602V6.07646H87.0901V7.82646H82.7602V12.2365H80.6702L80.6602 12.2465Z" fill="white"/>
<path d="M89.4702 3.71646V1.87646H91.4602V3.71646H89.4702ZM89.4702 12.2465V4.73647H91.4602V12.2465H89.4702Z" fill="white"/>
<path d="M100.33 12.2467H98.34V8.41666C98.34 7.60666 98.3 7.08666 98.21 6.84666C98.13 6.60666 97.99 6.42666 97.8 6.29666C97.61 6.16666 97.38 6.09666 97.11 6.09666C96.77 6.09666 96.46 6.18666 96.18 6.37666C95.91 6.56666 95.72 6.81666 95.62 7.12666C95.52 7.43666 95.47 8.01666 95.47 8.85666V12.2567H93.48V4.74666H95.33V5.84666C95.99 4.99666 96.81 4.57666 97.8 4.57666C98.24 4.57666 98.64 4.65666 99 4.81666C99.36 4.97666 99.64 5.17666 99.82 5.42666C100 5.67666 100.14 5.94666 100.21 6.25666C100.28 6.56666 100.32 7.01666 100.32 7.59666V12.2667L100.33 12.2467Z" fill="white"/>
<path d="M103.83 7.02641L102.03 6.69641C102.23 5.96641 102.58 5.43641 103.08 5.08641C103.58 4.73641 104.31 4.56641 105.29 4.56641C106.18 4.56641 106.84 4.66641 107.27 4.87641C107.7 5.08641 108.01 5.35641 108.19 5.67641C108.37 5.99641 108.46 6.59641 108.46 7.45641L108.44 9.77641C108.44 10.4364 108.47 10.9264 108.54 11.2364C108.6 11.5464 108.72 11.8864 108.9 12.2464H106.93C106.88 12.1164 106.81 11.9164 106.74 11.6564C106.71 11.5364 106.68 11.4564 106.67 11.4264C106.33 11.7564 105.97 12.0064 105.58 12.1664C105.19 12.3264 104.78 12.4164 104.34 12.4164C103.57 12.4164 102.96 12.2064 102.51 11.7864C102.06 11.3664 101.84 10.8364 101.84 10.1964C101.84 9.77641 101.94 9.39641 102.14 9.06641C102.34 8.73641 102.63 8.47641 102.99 8.30641C103.36 8.12641 103.88 7.97641 104.57 7.84641C105.5 7.67641 106.14 7.50641 106.5 7.35641V7.15641C106.5 6.77641 106.41 6.50641 106.22 6.33641C106.03 6.17641 105.68 6.09641 105.15 6.09641C104.8 6.09641 104.52 6.16641 104.32 6.30641C104.12 6.44641 103.96 6.68641 103.84 7.03641L103.83 7.02641ZM106.49 8.63641C106.24 8.71641 105.83 8.82641 105.28 8.93641C104.73 9.05641 104.37 9.16641 104.2 9.28641C103.94 9.46641 103.81 9.70641 103.81 9.98641C103.81 10.2664 103.91 10.5064 104.12 10.7064C104.33 10.9064 104.59 11.0064 104.91 11.0064C105.27 11.0064 105.61 10.8864 105.94 10.6564C106.18 10.4764 106.34 10.2564 106.41 9.99641C106.46 9.82641 106.49 9.50641 106.49 9.02641V8.62641V8.63641Z" fill="white"/>
<path d="M117.23 12.2467H115.24V8.41666C115.24 7.60666 115.2 7.08666 115.11 6.84666C115.03 6.60666 114.89 6.42666 114.7 6.29666C114.51 6.16666 114.28 6.09666 114.01 6.09666C113.67 6.09666 113.36 6.18666 113.08 6.37666C112.81 6.56666 112.62 6.81666 112.52 7.12666C112.42 7.43666 112.37 8.01666 112.37 8.85666V12.2567H110.38V4.74666H112.23V5.84666C112.89 4.99666 113.71 4.57666 114.7 4.57666C115.14 4.57666 115.54 4.65666 115.9 4.81666C116.26 4.97666 116.54 5.17666 116.72 5.42666C116.9 5.67666 117.04 5.94666 117.11 6.25666C117.18 6.56666 117.22 7.01666 117.22 7.59666V12.2667L117.23 12.2467Z" fill="white"/>
<path d="M125.79 6.95639L123.83 7.30639C123.76 6.91639 123.61 6.61639 123.38 6.42639C123.15 6.22639 122.84 6.12639 122.47 6.12639C121.97 6.12639 121.58 6.29639 121.29 6.63639C121 6.97639 120.85 7.54639 120.85 8.34639C120.85 9.23639 121 9.86639 121.3 10.2364C121.6 10.6064 122 10.7864 122.51 10.7864C122.89 10.7864 123.2 10.6764 123.44 10.4664C123.68 10.2564 123.85 9.88639 123.95 9.35639L125.9 9.68639C125.7 10.5864 125.31 11.2564 124.73 11.7164C124.15 12.1764 123.38 12.4064 122.42 12.4064C121.32 12.4064 120.45 12.0564 119.79 11.3664C119.14 10.6764 118.81 9.71639 118.81 8.48639C118.81 7.25639 119.14 6.27639 119.79 5.58639C120.44 4.89639 121.33 4.54639 122.45 4.54639C123.36 4.54639 124.09 4.74639 124.63 5.13639C125.17 5.52639 125.56 6.12639 125.79 6.93639V6.95639Z" fill="white"/>
<path d="M126.84 8.38641C126.84 7.72641 127 7.08641 127.33 6.46641C127.66 5.84641 128.12 5.37641 128.71 5.05641C129.31 4.72641 129.97 4.56641 130.71 4.56641C131.85 4.56641 132.78 4.93641 133.5 5.67641C134.23 6.41641 134.59 7.34641 134.59 8.47641C134.59 9.60641 134.22 10.5564 133.49 11.3064C132.76 12.0564 131.83 12.4264 130.72 12.4264C130.03 12.4264 129.38 12.2664 128.75 11.9564C128.13 11.6464 127.65 11.1864 127.32 10.5864C126.99 9.98641 126.83 9.25641 126.83 8.38641H126.84ZM128.88 8.49641C128.88 9.24641 129.06 9.81641 129.41 10.2064C129.76 10.6064 130.2 10.7964 130.72 10.7964C131.24 10.7964 131.67 10.5964 132.02 10.2064C132.37 9.80641 132.55 9.23641 132.55 8.47641C132.55 7.71641 132.37 7.17641 132.02 6.77641C131.67 6.37641 131.23 6.18641 130.72 6.18641C130.21 6.18641 129.76 6.38641 129.41 6.77641C129.06 7.17641 128.88 7.74641 128.88 8.48641V8.49641Z" fill="white"/>
<path d="M138.21 12.2463L135.18 4.73633H137.27L138.68 8.56633L139.09 9.84633C139.2 9.51633 139.27 9.30633 139.3 9.20633C139.37 8.99633 139.44 8.78633 139.51 8.56633L140.94 4.73633H142.98L140 12.2463H138.21Z" fill="white"/>
<path d="M145.69 7.02654L143.89 6.69654C144.09 5.96654 144.44 5.43654 144.94 5.08654C145.44 4.73654 146.17 4.56654 147.15 4.56654C148.04 4.56654 148.7 4.66654 149.13 4.87654C149.56 5.08654 149.87 5.35654 150.05 5.67654C150.23 5.99654 150.32 6.59654 150.32 7.45654L150.3 9.77654C150.3 10.4365 150.33 10.9265 150.4 11.2365C150.46 11.5465 150.58 11.8865 150.76 12.2465H148.79C148.74 12.1165 148.67 11.9165 148.6 11.6565C148.57 11.5365 148.54 11.4565 148.53 11.4265C148.19 11.7565 147.83 12.0065 147.44 12.1665C147.05 12.3265 146.64 12.4165 146.2 12.4165C145.43 12.4165 144.82 12.2065 144.37 11.7865C143.92 11.3665 143.7 10.8365 143.7 10.1965C143.7 9.77654 143.8 9.39654 144 9.06654C144.2 8.73654 144.49 8.47654 144.85 8.30654C145.22 8.12654 145.74 7.97654 146.43 7.84654C147.36 7.67654 148 7.50654 148.36 7.35654V7.15654C148.36 6.77654 148.27 6.50654 148.08 6.33654C147.89 6.17654 147.54 6.09654 147.01 6.09654C146.66 6.09654 146.38 6.16654 146.18 6.30654C145.98 6.44654 145.82 6.68654 145.7 7.03654L145.69 7.02654ZM148.35 8.63654C148.1 8.71654 147.69 8.82654 147.14 8.93654C146.59 9.05654 146.23 9.16654 146.06 9.28654C145.8 9.46654 145.67 9.70654 145.67 9.98654C145.67 10.2665 145.77 10.5065 145.98 10.7065C146.19 10.9065 146.45 11.0065 146.77 11.0065C147.13 11.0065 147.47 10.8865 147.8 10.6565C148.04 10.4765 148.2 10.2565 148.27 9.99654C148.32 9.82654 148.35 9.50654 148.35 9.02654V8.62654V8.63654ZM146.2 3.81654L147.18 1.70654H149.41L147.47 3.81654H146.21H146.2Z" fill="white"/>
<path d="M159.09 12.2467H157.1V8.41666C157.1 7.60666 157.06 7.08666 156.97 6.84666C156.89 6.60666 156.75 6.42666 156.56 6.29666C156.37 6.16666 156.14 6.09666 155.87 6.09666C155.53 6.09666 155.22 6.18666 154.94 6.37666C154.67 6.56666 154.48 6.81666 154.38 7.12666C154.28 7.43666 154.23 8.01666 154.23 8.85666V12.2567H152.24V4.74666H154.09V5.84666C154.75 4.99666 155.57 4.57666 156.56 4.57666C157 4.57666 157.4 4.65666 157.76 4.81666C158.12 4.97666 158.4 5.17666 158.58 5.42666C158.76 5.67666 158.9 5.94666 158.97 6.25666C159.04 6.56666 159.08 7.01666 159.08 7.59666V12.2667L159.09 12.2467Z" fill="white"/>
<path d="M160.64 8.38641C160.64 7.72641 160.8 7.08641 161.13 6.46641C161.46 5.84641 161.92 5.37641 162.51 5.05641C163.11 4.72641 163.77 4.56641 164.51 4.56641C165.65 4.56641 166.58 4.93641 167.3 5.67641C168.03 6.41641 168.39 7.34641 168.39 8.47641C168.39 9.60641 168.02 10.5564 167.29 11.3064C166.56 12.0564 165.63 12.4264 164.52 12.4264C163.83 12.4264 163.18 12.2664 162.55 11.9564C161.93 11.6464 161.45 11.1864 161.12 10.5864C160.79 9.98641 160.63 9.25641 160.63 8.38641H160.64ZM162.68 8.49641C162.68 9.24641 162.86 9.81641 163.21 10.2064C163.56 10.6064 164 10.7964 164.52 10.7964C165.04 10.7964 165.47 10.5964 165.82 10.2064C166.17 9.80641 166.35 9.23641 166.35 8.47641C166.35 7.71641 166.17 7.17641 165.82 6.77641C165.47 6.37641 165.03 6.18641 164.52 6.18641C164.01 6.18641 163.56 6.38641 163.21 6.77641C162.86 7.17641 162.68 7.74641 162.68 8.48641V8.49641Z" fill="white"/>
<path d="M80.6401 29.6263V19.2563H88.3301V21.0063H82.7401V23.3063H87.9501V25.0563H82.7401V27.8763H88.5301V29.6263H80.6501H80.6401Z" fill="white"/>
<path d="M92.3503 29.6267L89.3203 22.1167H91.4103L92.8203 25.9467L93.2303 27.2267C93.3403 26.8967 93.4103 26.6867 93.4403 26.5867C93.5103 26.3767 93.5803 26.1667 93.6503 25.9467L95.0803 22.1167H97.1203L94.1403 29.6267H92.3503Z" fill="white"/>
<path d="M100.24 29.6268H98.25V22.1168H100.1V23.1868C100.42 22.6868 100.7 22.3468 100.95 22.1868C101.2 22.0268 101.49 21.9468 101.81 21.9468C102.26 21.9468 102.7 22.0668 103.12 22.3268L102.5 24.0568C102.17 23.8368 101.85 23.7268 101.57 23.7268C101.29 23.7268 101.06 23.8068 100.86 23.9568C100.66 24.1068 100.51 24.3868 100.4 24.7868C100.29 25.1868 100.23 26.0268 100.23 27.3068V29.6268H100.24Z" fill="white"/>
<path d="M103.52 25.7668C103.52 25.1068 103.68 24.4668 104.01 23.8468C104.34 23.2268 104.8 22.7568 105.39 22.4368C105.99 22.1068 106.65 21.9468 107.39 21.9468C108.53 21.9468 109.46 22.3168 110.18 23.0568C110.91 23.7968 111.27 24.7268 111.27 25.8568C111.27 26.9868 110.9 27.9368 110.17 28.6868C109.44 29.4368 108.51 29.8068 107.4 29.8068C106.71 29.8068 106.06 29.6468 105.43 29.3368C104.81 29.0268 104.33 28.5668 104 27.9668C103.67 27.3668 103.51 26.6368 103.51 25.7668H103.52ZM105.56 25.8768C105.56 26.6268 105.74 27.1968 106.09 27.5868C106.44 27.9868 106.88 28.1768 107.4 28.1768C107.92 28.1768 108.35 27.9768 108.7 27.5868C109.05 27.1868 109.23 26.6168 109.23 25.8568C109.23 25.0968 109.05 24.5568 108.7 24.1568C108.35 23.7568 107.91 23.5668 107.4 23.5668C106.89 23.5668 106.44 23.7668 106.09 24.1568C105.74 24.5568 105.56 25.1268 105.56 25.8668V25.8768Z" fill="white"/>
<path d="M112.77 22.1168H114.62V23.2168C114.86 22.8368 115.19 22.5368 115.6 22.2968C116.01 22.0568 116.47 21.9468 116.97 21.9468C117.84 21.9468 118.58 22.2868 119.19 22.9768C119.8 23.6568 120.1 24.6168 120.1 25.8368C120.1 27.0568 119.79 28.0668 119.18 28.7568C118.57 29.4568 117.82 29.7968 116.95 29.7968C116.53 29.7968 116.16 29.7168 115.82 29.5468C115.48 29.3768 115.13 29.0968 114.76 28.6968V32.4768H112.77V22.1068V22.1168ZM114.74 25.7468C114.74 26.5868 114.91 27.2168 115.24 27.6168C115.57 28.0168 115.98 28.2168 116.46 28.2168C116.94 28.2168 117.31 28.0368 117.61 27.6668C117.91 27.2968 118.07 26.6868 118.07 25.8468C118.07 25.0568 117.91 24.4768 117.6 24.0968C117.28 23.7168 116.89 23.5268 116.43 23.5268C115.97 23.5268 115.54 23.7168 115.22 24.0868C114.9 24.4568 114.74 25.0168 114.74 25.7568V25.7468Z" fill="white"/>
<path d="M120.97 27.4765L122.96 27.1765C123.04 27.5665 123.22 27.8565 123.48 28.0565C123.74 28.2565 124.1 28.3565 124.57 28.3565C125.08 28.3565 125.47 28.2665 125.73 28.0765C125.9 27.9465 125.99 27.7665 125.99 27.5465C125.99 27.3965 125.94 27.2665 125.85 27.1665C125.75 27.0765 125.53 26.9865 125.18 26.9065C123.58 26.5565 122.56 26.2265 122.13 25.9365C121.54 25.5265 121.24 24.9665 121.24 24.2465C121.24 23.5965 121.5 23.0465 122.01 22.6065C122.52 22.1665 123.32 21.9365 124.4 21.9365C125.48 21.9365 126.19 22.1065 126.69 22.4365C127.19 22.7665 127.53 23.2665 127.72 23.9265L125.85 24.2765C125.77 23.9865 125.62 23.7565 125.39 23.6065C125.17 23.4465 124.85 23.3765 124.43 23.3765C123.91 23.3765 123.53 23.4465 123.31 23.5965C123.16 23.6965 123.08 23.8365 123.08 23.9965C123.08 24.1365 123.15 24.2565 123.28 24.3565C123.46 24.4865 124.08 24.6765 125.14 24.9165C126.2 25.1565 126.94 25.4565 127.36 25.7965C127.78 26.1465 127.98 26.6465 127.98 27.2765C127.98 27.9665 127.69 28.5565 127.12 29.0465C126.54 29.5465 125.69 29.7865 124.57 29.7865C123.55 29.7865 122.74 29.5765 122.14 29.1665C121.54 28.7465 121.15 28.1865 120.97 27.4765Z" fill="white"/>
<path d="M129.66 29.6263V19.2563H131.65V24.7563L133.98 22.1163H136.43L133.86 24.8563L136.61 29.6263H134.47L132.58 26.2563L131.65 27.2263V29.6263H129.66Z" fill="white"/>
<path d="M137.32 25.7668C137.32 25.1068 137.48 24.4668 137.81 23.8468C138.14 23.2268 138.6 22.7568 139.19 22.4368C139.79 22.1068 140.45 21.9468 141.19 21.9468C142.33 21.9468 143.26 22.3168 143.98 23.0568C144.71 23.7968 145.07 24.7268 145.07 25.8568C145.07 26.9868 144.7 27.9368 143.97 28.6868C143.24 29.4368 142.31 29.8068 141.2 29.8068C140.51 29.8068 139.86 29.6468 139.23 29.3368C138.61 29.0268 138.13 28.5668 137.8 27.9668C137.47 27.3668 137.31 26.6368 137.31 25.7668H137.32ZM139.36 25.8768C139.36 26.6268 139.54 27.1968 139.89 27.5868C140.24 27.9868 140.68 28.1768 141.2 28.1768C141.72 28.1768 142.15 27.9768 142.5 27.5868C142.85 27.1868 143.03 26.6168 143.03 25.8568C143.03 25.0968 142.85 24.5568 142.5 24.1568C142.15 23.7568 141.71 23.5668 141.2 23.5668C140.69 23.5668 140.24 23.7668 139.89 24.1568C139.54 24.5568 139.36 25.1268 139.36 25.8668V25.8768Z" fill="white"/>
<path d="M151.57 29.6267V28.5067C151.3 28.9067 150.94 29.2267 150.49 29.4567C150.04 29.6867 149.57 29.8067 149.08 29.8067C148.59 29.8067 148.12 29.6967 147.72 29.4767C147.32 29.2567 147.03 28.9467 146.85 28.5467C146.67 28.1467 146.58 27.5867 146.58 26.8867V22.1367H148.57V25.5867C148.57 26.6467 148.61 27.2867 148.68 27.5267C148.75 27.7667 148.89 27.9567 149.08 28.0967C149.27 28.2367 149.52 28.3067 149.82 28.3067C150.16 28.3067 150.46 28.2167 150.73 28.0267C151 27.8367 151.18 27.6067 151.28 27.3367C151.38 27.0567 151.43 26.3867 151.43 25.3067V22.1367H153.42V29.6467H151.57V29.6267Z" fill="white"/>
<path d="M164.44 29.6267V28.5067C164.17 28.9067 163.81 29.2267 163.36 29.4567C162.91 29.6867 162.44 29.8067 161.95 29.8067C161.46 29.8067 160.99 29.6967 160.59 29.4767C160.19 29.2567 159.9 28.9467 159.72 28.5467C159.54 28.1467 159.45 27.5867 159.45 26.8867V22.1367H161.44V25.5867C161.44 26.6467 161.48 27.2867 161.55 27.5267C161.62 27.7667 161.76 27.9567 161.95 28.0967C162.14 28.2367 162.39 28.3067 162.69 28.3067C163.03 28.3067 163.33 28.2167 163.6 28.0267C163.87 27.8367 164.05 27.6067 164.15 27.3367C164.25 27.0567 164.3 26.3867 164.3 25.3067V22.1367H166.29V29.6467H164.44V29.6267Z" fill="white"/>
<path d="M175.18 29.6265H173.19V25.7965C173.19 24.9865 173.15 24.4665 173.06 24.2265C172.98 23.9865 172.84 23.8065 172.65 23.6765C172.46 23.5465 172.23 23.4765 171.96 23.4765C171.62 23.4765 171.31 23.5665 171.03 23.7565C170.76 23.9465 170.57 24.1965 170.47 24.5065C170.37 24.8165 170.32 25.3965 170.32 26.2365V29.6365H168.33V22.1265H170.18V23.2265C170.84 22.3765 171.66 21.9565 172.65 21.9565C173.09 21.9565 173.49 22.0365 173.85 22.1965C174.21 22.3565 174.49 22.5565 174.67 22.8065C174.85 23.0565 174.99 23.3265 175.06 23.6365C175.13 23.9465 175.17 24.3965 175.17 24.9765V29.6465L175.18 29.6265Z" fill="white"/>
<path d="M177.19 21.0963V19.2563H179.18V21.0963H177.19ZM177.19 29.6263V22.1163H179.18V29.6263H177.19Z" fill="white"/>
<path d="M181.07 21.1964L182.05 19.0864H184.28L182.33 21.1964H181.07ZM181.22 29.6264V22.1164H183.21V29.6264H181.22Z" fill="white"/>
<path d="M80.5498 48.3064V39.2964H81.7698L86.4998 46.3664V39.2964H87.6398V48.3064H86.4198L81.6898 41.2264V48.3064H80.5498Z" fill="white"/>
<path d="M93.9699 46.2065L95.1099 46.3465C94.9299 47.0165 94.5999 47.5365 94.1099 47.8965C93.6199 48.2665 92.9999 48.4465 92.2399 48.4465C91.2899 48.4465 90.5299 48.1565 89.9699 47.5665C89.4099 46.9765 89.1299 46.1565 89.1299 45.0965C89.1299 44.0365 89.4099 43.1465 89.9799 42.5365C90.5499 41.9265 91.2799 41.6265 92.1799 41.6265C93.0799 41.6265 93.7599 41.9265 94.3199 42.5165C94.8799 43.1065 95.1499 43.9465 95.1499 45.0265C95.1499 45.0965 95.1499 45.1865 95.1499 45.3165H90.2799C90.3199 46.0365 90.5199 46.5865 90.8899 46.9665C91.2499 47.3465 91.7099 47.5365 92.2499 47.5365C92.6599 47.5365 92.9999 47.4265 93.2899 47.2165C93.5799 47.0065 93.7999 46.6665 93.9699 46.1965V46.2065ZM90.3399 44.4165H93.9799C93.9299 43.8665 93.7899 43.4565 93.5599 43.1765C93.2099 42.7465 92.7499 42.5365 92.1899 42.5365C91.6799 42.5365 91.2499 42.7065 90.9099 43.0465C90.5699 43.3865 90.3699 43.8365 90.3399 44.4065V44.4165Z" fill="white"/>
<path d="M95.76 48.3066L98.14 44.9166L95.93 41.7866H97.31L98.31 43.3166C98.5 43.6066 98.65 43.8466 98.76 44.0466C98.94 43.7766 99.11 43.5366 99.26 43.3266L100.36 41.7866H101.68L99.43 44.8566L101.86 48.3066H100.5L99.16 46.2766L98.8 45.7266L97.09 48.2966H95.75L95.76 48.3066Z" fill="white"/>
<path d="M105.21 47.3166L105.37 48.2966C105.06 48.3666 104.78 48.3966 104.54 48.3966C104.14 48.3966 103.83 48.3366 103.61 48.2066C103.39 48.0766 103.23 47.9166 103.14 47.7066C103.05 47.4966 103.01 47.0666 103.01 46.4066V42.6566H102.2V41.7966H103.01V40.1766L104.11 39.5166V41.7966H105.22V42.6566H104.11V46.4666C104.11 46.7866 104.13 46.9866 104.17 47.0766C104.21 47.1666 104.27 47.2366 104.36 47.2866C104.45 47.3366 104.57 47.3666 104.74 47.3666C104.86 47.3666 105.02 47.3566 105.23 47.3266L105.21 47.3166Z" fill="white"/>
<path d="M110.64 44.7665V43.7065H114.45V47.0465C113.86 47.5165 113.26 47.8665 112.64 48.0965C112.02 48.3365 111.38 48.4465 110.72 48.4465C109.84 48.4465 109.03 48.2565 108.31 47.8765C107.59 47.4965 107.04 46.9465 106.67 46.2365C106.3 45.5165 106.12 44.7165 106.12 43.8365C106.12 42.9565 106.3 42.1465 106.67 41.3865C107.04 40.6265 107.56 40.0665 108.25 39.6965C108.94 39.3265 109.73 39.1465 110.63 39.1465C111.28 39.1465 111.87 39.2565 112.4 39.4665C112.93 39.6765 113.34 39.9665 113.64 40.3465C113.94 40.7265 114.17 41.2165 114.32 41.8165L113.24 42.1065C113.1 41.6465 112.94 41.2865 112.74 41.0265C112.54 40.7665 112.25 40.5565 111.88 40.3965C111.51 40.2365 111.09 40.1565 110.64 40.1565C110.1 40.1565 109.62 40.2365 109.23 40.4065C108.83 40.5765 108.51 40.7865 108.27 41.0565C108.03 41.3265 107.84 41.6265 107.7 41.9465C107.47 42.5065 107.36 43.1065 107.36 43.7565C107.36 44.5565 107.5 45.2265 107.78 45.7765C108.06 46.3165 108.46 46.7165 108.99 46.9765C109.52 47.2365 110.08 47.3665 110.67 47.3665C111.19 47.3665 111.69 47.2665 112.18 47.0665C112.67 46.8665 113.04 46.6565 113.3 46.4265V44.7465H110.65L110.64 44.7665Z" fill="white"/>
<path d="M120.54 46.2065L121.68 46.3465C121.5 47.0165 121.17 47.5365 120.68 47.8965C120.19 48.2665 119.57 48.4465 118.81 48.4465C117.86 48.4465 117.1 48.1565 116.54 47.5665C115.98 46.9765 115.7 46.1565 115.7 45.0965C115.7 44.0365 115.98 43.1465 116.55 42.5365C117.12 41.9265 117.85 41.6265 118.75 41.6265C119.65 41.6265 120.33 41.9265 120.89 42.5165C121.45 43.1065 121.72 43.9465 121.72 45.0265C121.72 45.0965 121.72 45.1865 121.72 45.3165H116.85C116.89 46.0365 117.09 46.5865 117.46 46.9665C117.82 47.3465 118.28 47.5365 118.82 47.5365C119.23 47.5365 119.57 47.4265 119.86 47.2165C120.15 47.0065 120.37 46.6665 120.54 46.1965V46.2065ZM116.91 44.4165H120.55C120.5 43.8665 120.36 43.4565 120.13 43.1765C119.78 42.7465 119.32 42.5365 118.76 42.5365C118.25 42.5365 117.82 42.7065 117.48 43.0465C117.14 43.3865 116.94 43.8365 116.91 44.4065V44.4165Z" fill="white"/>
<path d="M123.07 48.3067V41.7867H124.07V42.7167C124.55 41.9967 125.24 41.6367 126.15 41.6367C126.54 41.6367 126.9 41.7067 127.23 41.8467C127.56 41.9867 127.81 42.1767 127.97 42.4067C128.13 42.6367 128.25 42.9067 128.31 43.2267C128.35 43.4367 128.37 43.7867 128.37 44.3067V48.3167H127.26V44.3467C127.26 43.8967 127.22 43.5567 127.13 43.3367C127.04 43.1167 126.89 42.9367 126.67 42.8067C126.45 42.6767 126.19 42.6067 125.9 42.6067C125.43 42.6067 125.02 42.7567 124.68 43.0567C124.34 43.3567 124.17 43.9267 124.17 44.7567V48.3167H123.06L123.07 48.3067Z" fill="white"/>
<path d="M134.54 46.2065L135.68 46.3465C135.5 47.0165 135.17 47.5365 134.68 47.8965C134.19 48.2665 133.57 48.4465 132.81 48.4465C131.86 48.4465 131.1 48.1565 130.54 47.5665C129.98 46.9765 129.7 46.1565 129.7 45.0965C129.7 44.0365 129.98 43.1465 130.55 42.5365C131.12 41.9265 131.85 41.6265 132.75 41.6265C133.65 41.6265 134.33 41.9265 134.89 42.5165C135.45 43.1065 135.72 43.9465 135.72 45.0265C135.72 45.0965 135.72 45.1865 135.72 45.3165H130.85C130.89 46.0365 131.09 46.5865 131.46 46.9665C131.82 47.3465 132.28 47.5365 132.82 47.5365C133.23 47.5365 133.57 47.4265 133.86 47.2165C134.15 47.0065 134.37 46.6665 134.54 46.1965V46.2065ZM130.91 44.4165H134.55C134.5 43.8665 134.36 43.4565 134.13 43.1765C133.78 42.7465 133.32 42.5365 132.76 42.5365C132.25 42.5365 131.82 42.7065 131.48 43.0465C131.14 43.3865 130.94 43.8365 130.91 44.4065V44.4165Z" fill="white"/>
<path d="M137.05 48.3067V41.7867H138.05V42.7767C138.3 42.3167 138.54 42.0067 138.75 41.8567C138.96 41.7067 139.2 41.6367 139.46 41.6367C139.83 41.6367 140.21 41.7567 140.6 41.9967L140.22 43.0267C139.95 42.8667 139.68 42.7867 139.41 42.7867C139.17 42.7867 138.95 42.8567 138.76 43.0067C138.57 43.1467 138.43 43.3567 138.35 43.6067C138.23 43.9967 138.17 44.4267 138.17 44.8967V48.3167H137.06L137.05 48.3067Z" fill="white"/>
<path d="M145.51 47.4964C145.1 47.8464 144.71 48.0864 144.33 48.2364C143.95 48.3864 143.54 48.4464 143.11 48.4464C142.39 48.4464 141.84 48.2764 141.46 47.9164C141.08 47.5664 140.88 47.1164 140.88 46.5764C140.88 46.2564 140.95 45.9664 141.1 45.6964C141.25 45.4364 141.44 45.2164 141.67 45.0564C141.9 44.8964 142.17 44.7764 142.47 44.6964C142.69 44.6364 143.01 44.5864 143.45 44.5264C144.34 44.4164 145 44.2964 145.42 44.1464C145.42 43.9964 145.42 43.8964 145.42 43.8564C145.42 43.4064 145.32 43.0864 145.11 42.9064C144.83 42.6564 144.41 42.5264 143.85 42.5264C143.33 42.5264 142.95 42.6164 142.7 42.7964C142.45 42.9764 142.27 43.2964 142.15 43.7664L141.07 43.6164C141.17 43.1564 141.33 42.7764 141.56 42.4964C141.78 42.2164 142.11 41.9964 142.54 41.8364C142.97 41.6764 143.46 41.6064 144.02 41.6064C144.58 41.6064 145.03 41.6764 145.38 41.8064C145.73 41.9364 145.98 42.1064 146.15 42.3064C146.31 42.5064 146.43 42.7564 146.49 43.0564C146.53 43.2464 146.54 43.5864 146.54 44.0764V45.5464C146.54 46.5764 146.56 47.2264 146.61 47.4964C146.66 47.7664 146.75 48.0264 146.89 48.2764H145.73C145.62 48.0464 145.54 47.7764 145.51 47.4764V47.4964ZM145.42 45.0264C145.02 45.1864 144.42 45.3264 143.61 45.4464C143.15 45.5164 142.83 45.5864 142.65 45.6664C142.47 45.7464 142.32 45.8664 142.21 46.0264C142.11 46.1864 142.06 46.3564 142.06 46.5564C142.06 46.8464 142.17 47.0964 142.39 47.2964C142.61 47.4964 142.94 47.5864 143.37 47.5864C143.8 47.5864 144.17 47.4964 144.51 47.3064C144.84 47.1164 145.09 46.8664 145.24 46.5464C145.36 46.2964 145.42 45.9264 145.42 45.4364V45.0264Z" fill="white"/>
<path d="M150.67 47.3166L150.83 48.2966C150.52 48.3666 150.24 48.3966 150 48.3966C149.6 48.3966 149.29 48.3366 149.07 48.2066C148.85 48.0766 148.69 47.9166 148.6 47.7066C148.51 47.4966 148.47 47.0666 148.47 46.4066V42.6566H147.66V41.7966H148.47V40.1766L149.57 39.5166V41.7966H150.68V42.6566H149.57V46.4666C149.57 46.7866 149.59 46.9866 149.63 47.0766C149.67 47.1666 149.73 47.2366 149.82 47.2866C149.91 47.3366 150.03 47.3666 150.2 47.3666C150.32 47.3666 150.48 47.3566 150.69 47.3266L150.67 47.3166Z" fill="white"/>
<path d="M151.75 40.5664V39.2964H152.86V40.5664H151.75ZM151.75 48.2964V41.7764H152.86V48.2964H151.75Z" fill="white"/>
<path d="M154.13 45.0365C154.13 43.8265 154.47 42.9365 155.14 42.3465C155.7 41.8665 156.39 41.6265 157.19 41.6265C158.09 41.6265 158.82 41.9165 159.39 42.5065C159.96 43.0965 160.24 43.9065 160.24 44.9465C160.24 45.7865 160.11 46.4465 159.86 46.9265C159.61 47.4065 159.24 47.7865 158.76 48.0465C158.28 48.3165 157.75 48.4465 157.18 48.4465C156.27 48.4465 155.53 48.1565 154.97 47.5665C154.41 46.9865 154.13 46.1365 154.13 45.0365ZM155.27 45.0365C155.27 45.8665 155.45 46.4965 155.82 46.9165C156.19 47.3365 156.64 47.5365 157.2 47.5365C157.76 47.5365 158.2 47.3265 158.57 46.9065C158.93 46.4865 159.12 45.8565 159.12 44.9965C159.12 44.1865 158.94 43.5765 158.57 43.1665C158.2 42.7465 157.75 42.5465 157.2 42.5465C156.65 42.5465 156.19 42.7565 155.82 43.1665C155.46 43.5765 155.27 44.2065 155.27 45.0365Z" fill="white"/>
<path d="M161.54 48.3067V41.7867H162.54V42.7167C163.02 41.9967 163.71 41.6367 164.62 41.6367C165.01 41.6367 165.37 41.7067 165.7 41.8467C166.03 41.9867 166.28 42.1767 166.44 42.4067C166.6 42.6367 166.72 42.9067 166.78 43.2267C166.82 43.4367 166.84 43.7867 166.84 44.3067V48.3167H165.73V44.3467C165.73 43.8967 165.69 43.5567 165.6 43.3367C165.51 43.1167 165.36 42.9367 165.14 42.8067C164.92 42.6767 164.66 42.6067 164.37 42.6067C163.9 42.6067 163.49 42.7567 163.15 43.0567C162.81 43.3567 162.64 43.9267 162.64 44.7567V48.3167H161.53L161.54 48.3067Z" fill="white"/>
<path d="M168.7 48.3064V39.2964H175.21V40.3564H169.89V43.1164H174.87V44.1764H169.89V47.2464H175.42V48.3064H168.7Z" fill="white"/>
<path d="M182.98 39.2964H184.17V44.4964C184.17 45.4064 184.07 46.1164 183.86 46.6564C183.65 47.1864 183.28 47.6264 182.75 47.9564C182.22 48.2864 181.51 48.4564 180.65 48.4564C179.79 48.4564 179.12 48.3064 178.58 48.0164C178.04 47.7264 177.66 47.3064 177.43 46.7564C177.2 46.2064 177.09 45.4564 177.09 44.4964V39.2964H178.28V44.4964C178.28 45.2764 178.35 45.8564 178.5 46.2264C178.64 46.5964 178.89 46.8864 179.25 47.0864C179.6 47.2864 180.04 47.3864 180.55 47.3864C181.43 47.3864 182.05 47.1864 182.42 46.7864C182.79 46.3864 182.98 45.6264 182.98 44.4964V39.2964Z" fill="white"/>
</svg>
