<?xml version="1.0" encoding="UTF-8"?>
<svg id="Layer_1" data-name="Layer 1" xmlns="http://www.w3.org/2000/svg" viewBox="0 0 560.79185 150.51591">
  <rect width="221.65484" height="150.51591" fill="#fff" stroke-width="0"/>
  <rect x="4.2625" y="4.12783" width="213.13042" height="142.08846" fill="#039" stroke-width="0"/>
  <polyline points="106.2864 35.0866 110.78344 31.80476 115.28124 35.0866 113.5693 29.77868 118.13774 26.49682 112.50666 26.49682 110.78344 21.12501 109.06023 26.50283 103.4329 26.49682 107.99759 29.77868 106.2864 35.0866" fill="#fc0" stroke-width="0"/>
  <polyline points="83.01281 41.33919 87.50986 38.05735 92.00466 41.33919 90.29572 36.03127 94.86116 32.74941 89.23007 32.74941 87.50761 27.37158 85.78439 32.75542 80.15631 32.74941 84.721 36.03127 83.01281 41.33919" fill="#fc0" stroke-width="0"/>
  <polyline points="70.4806 44.43918 68.75737 49.82302 63.13005 49.81701 67.69474 53.09887 65.98354 58.4068 70.4806 55.12494 74.97764 58.4068 73.26645 53.09887 77.83114 49.81701 72.20381 49.81701 70.4806 44.43918" fill="#fc0" stroke-width="0"/>
  <polyline points="64.23402 78.36922 68.72881 81.65108 67.01987 76.34389 71.58456 73.06129 65.95724 73.06129 64.23402 67.68347 62.5108 73.07331 56.88047 73.06129 61.44816 76.34389 59.73697 81.65108 64.23402 78.36922" fill="#fc0" stroke-width="0"/>
  <polyline points="72.20381 96.37545 70.48059 90.99763 68.75737 96.38147 63.13005 96.37545 67.69474 99.65731 65.98354 104.96524 70.48059 101.67737 74.97764 104.96524 73.26645 99.65731 77.83114 96.37545 72.20381 96.37545" fill="#fc0" stroke-width="0"/>
  <polyline points="89.2654 113.43704 87.54217 108.06523 85.82197 113.44305 80.19163 113.43704 84.75632 116.7189 83.04813 122.02683 87.54518 118.74498 92.03922 122.02683 90.33104 116.7189 94.89573 113.43704 89.2654 113.43704" fill="#fc0" stroke-width="0"/>
  <polyline points="112.50968 119.61973 110.78645 114.24191 109.06625 119.62575 103.43591 119.61973 108.0006 122.90159 106.29241 128.20952 110.78946 124.92767 115.2835 128.20952 113.5723 122.90159 118.14 119.61973 112.50968 119.61973" fill="#fc0" stroke-width="0"/>
  <polyline points="135.75396 113.43704 134.03375 108.06523 132.30751 113.44305 126.6832 113.43704 131.24489 116.7189 129.53669 122.02683 134.03375 118.74498 138.53079 122.02683 136.81659 116.7189 141.38428 113.43704 135.75396 113.43704" fill="#fc0" stroke-width="0"/>
  <polyline points="152.82156 96.37545 151.09533 90.99763 149.3691 96.38147 143.74479 96.37545 148.31248 99.65731 146.59828 104.96524 151.09533 101.67737 155.59238 104.96524 153.87818 99.65731 158.44587 96.37545 152.82156 96.37545" fill="#fc0" stroke-width="0"/>
  <polyline points="164.62857 72.99665 158.99824 72.99665 157.27201 67.61883 155.5518 73.00267 149.92147 72.99665 154.48916 76.27851 152.78022 81.58644 157.27201 78.29857 161.76906 81.58644 160.06087 76.27851 164.62857 72.99665" fill="#fc0" stroke-width="0"/>
  <polyline points="146.59753 58.33615 151.09458 55.05429 155.59238 58.33615 153.87818 53.02822 158.44587 49.75238 152.8208 49.75238 151.09458 44.37455 149.3691 49.75839 143.74403 49.75238 148.31173 53.02822 146.59753 58.33615" fill="#fc0" stroke-width="0"/>
  <polyline points="134.09838 27.37759 132.37816 32.76143 126.74783 32.74941 131.3095 36.03728 129.60132 41.34521 134.10439 38.05735 138.59542 41.34521 136.88724 36.03728 141.45492 32.74941 135.81858 32.74941 134.09838 27.37759" fill="#fc0" stroke-width="0"/>
  <g>
    <path d="m243.74381,146.16699v-27.43555h3.72412l14.41016,21.54004v-21.54004h3.48096v27.43555h-3.72412l-14.41016-21.55859v21.55859h-3.48096Z" fill="#58595b" stroke-width="0"/>
    <path d="m284.63493,139.7666l3.48096.43066c-.54932,2.0332-1.56592,3.61133-3.05029,4.73438-1.48535,1.12305-3.38135,1.68457-5.68945,1.68457-2.90723,0-5.21191-.89551-6.91504-2.68555s-2.5542-4.30078-2.5542-7.53223c0-3.34375.86084-5.93945,2.58252-7.78516,1.72168-1.84668,3.95459-2.77051,6.69971-2.77051,2.65723,0,4.82812.90527,6.5127,2.71387,1.68408,1.80957,2.52637,4.35449,2.52637,7.63574,0,.19922-.00635.49902-.01904.89844h-14.82178c.12451,2.18359.74219,3.85449,1.85303,5.01562,1.11035,1.16016,2.49512,1.74023,4.1543,1.74023,1.23535,0,2.28955-.32422,3.16309-.97363.87305-.64844,1.56543-1.68457,2.07715-3.10645Zm-11.06006-5.44629h11.09766c-.1499-1.6709-.57422-2.9248-1.27295-3.76074-1.07275-1.29785-2.46387-1.94629-4.17334-1.94629-1.54688,0-2.84766.51758-3.90186,1.55273-1.0542,1.03613-1.63721,2.4209-1.74951,4.1543Z" fill="#58595b" stroke-width="0"/>
    <path d="m290.09928,146.16699l7.26123-10.33008-6.71875-9.54492h4.21094l3.05029,4.66016c.57373.88574,1.03564,1.62793,1.38525,2.22656.54883-.82324,1.05371-1.55273,1.51562-2.18945l3.3501-4.69727h4.02344l-6.86816,9.35742,7.39209,10.51758h-4.13574l-4.08008-6.17578-1.08545-1.66602-5.22119,7.8418h-4.07959Z" fill="#58595b" stroke-width="0"/>
    <path d="m318.86344,143.15429l.48633,2.97559c-.94824.19922-1.79639.29883-2.54492.29883-1.22314,0-2.1709-.19336-2.84473-.58008s-1.14795-.89453-1.42236-1.52539c-.27441-.62988-.41162-1.95508-.41162-3.97656v-11.43457h-2.47021v-2.62012h2.47021v-4.92188l3.3501-2.02051v6.94238h3.38721v2.62012h-3.38721v11.62207c0,.96094.05859,1.57812.17773,1.85254.11816.27441.31152.49316.58008.65527.26807.16211.65186.24316,1.15088.24316.37402,0,.86719-.04395,1.47852-.13086Z" fill="#58595b" stroke-width="0"/>
    <path d="m335.42594,135.40624v-3.21875l11.62158-.01855v10.18066c-1.78418,1.42188-3.62451,2.49219-5.52051,3.20898-1.89648.71777-3.84277,1.07617-5.83887,1.07617-2.69482,0-5.14355-.57715-7.3457-1.73145-2.20215-1.15332-3.86426-2.82227-4.9873-5.00586-1.12305-2.18262-1.68408-4.62207-1.68408-7.31738,0-2.66992.55811-5.16211,1.6748-7.47656,1.11621-2.31348,2.72314-4.03223,4.81885-5.15527,2.09619-1.12305,4.51025-1.68457,7.24268-1.68457,1.9834,0,3.77686.32129,5.38037.96387,1.60303.64258,2.85986,1.53809,3.771,2.68555.91064,1.14844,1.60303,2.64551,2.07715,4.49121l-3.2749.89844c-.41162-1.39746-.92334-2.49512-1.53467-3.29395-.61133-.79785-1.48486-1.4375-2.62012-1.91797s-2.39551-.7207-3.78027-.7207c-1.65918,0-3.09424.25293-4.3042.75781-1.21045.50586-2.18652,1.16992-2.92871,1.99316-.74268.82422-1.31934,1.72852-1.73145,2.71387-.69873,1.69727-1.04785,3.53711-1.04785,5.52051,0,2.44531.4209,4.49219,1.26318,6.13867s2.06787,2.87012,3.67725,3.66797c1.60986.79883,3.31885,1.19727,5.12793,1.19727,1.57227,0,3.10645-.30176,4.604-.90723,1.49707-.60449,2.63232-1.25098,3.40576-1.93652v-5.10938h-8.06592Z" fill="#58595b" stroke-width="0"/>
    <path d="m365.57487,139.7666l3.48096.43066c-.54932,2.0332-1.56592,3.61133-3.05029,4.73438-1.48535,1.12305-3.38135,1.68457-5.68945,1.68457-2.90723,0-5.21191-.89551-6.91504-2.68555s-2.5542-4.30078-2.5542-7.53223c0-3.34375.86084-5.93945,2.58252-7.78516,1.72168-1.84668,3.95459-2.77051,6.69971-2.77051,2.65723,0,4.82812.90527,6.5127,2.71387,1.68408,1.80957,2.52637,4.35449,2.52637,7.63574,0,.19922-.00635.49902-.01904.89844h-14.82178c.12451,2.18359.74219,3.85449,1.85303,5.01562,1.11035,1.16016,2.49512,1.74023,4.1543,1.74023,1.23535,0,2.28955-.32422,3.16309-.97363.87305-.64844,1.56543-1.68457,2.07715-3.10645Zm-11.06006-5.44629h11.09766c-.1499-1.6709-.57422-2.9248-1.27295-3.76074-1.07275-1.29785-2.46387-1.94629-4.17334-1.94629-1.54688,0-2.84766.51758-3.90186,1.55273-1.0542,1.03613-1.63721,2.4209-1.74951,4.1543Z" fill="#58595b" stroke-width="0"/>
    <path d="m373.28483,146.16699v-19.875h3.03174v2.82617c1.45996-2.18359,3.56787-3.27539,6.32568-3.27539,1.19775,0,2.29834.21582,3.30273.64648,1.00439.42969,1.75635.99414,2.25537,1.69336.49902.69824.84814,1.52832,1.04785,2.48926.12451.62402.18701,1.71484.18701,3.27441v12.2207h-3.36816v-12.08984c0-1.37207-.13135-2.39844-.39307-3.07812-.26221-.67969-.72705-1.22266-1.39453-1.62793s-1.4502-.6084-2.34863-.6084c-1.43457,0-2.67285.45508-3.71484,1.36621-1.0415.91113-1.5625,2.63867-1.5625,5.18359v10.85449h-3.36865Z" fill="#58595b" stroke-width="0"/>
    <path d="m408.20622,139.7666l3.48096.43066c-.54932,2.0332-1.56592,3.61133-3.05029,4.73438-1.48535,1.12305-3.38135,1.68457-5.68945,1.68457-2.90723,0-5.21191-.89551-6.91504-2.68555s-2.5542-4.30078-2.5542-7.53223c0-3.34375.86084-5.93945,2.58252-7.78516,1.72168-1.84668,3.95459-2.77051,6.69971-2.77051,2.65723,0,4.82812.90527,6.5127,2.71387,1.68408,1.80957,2.52637,4.35449,2.52637,7.63574,0,.19922-.00635.49902-.01904.89844h-14.82178c.12451,2.18359.74219,3.85449,1.85303,5.01562,1.11035,1.16016,2.49512,1.74023,4.1543,1.74023,1.23535,0,2.28955-.32422,3.16309-.97363.87305-.64844,1.56543-1.68457,2.07715-3.10645Zm-11.06006-5.44629h11.09766c-.1499-1.6709-.57422-2.9248-1.27295-3.76074-1.07275-1.29785-2.46387-1.94629-4.17334-1.94629-1.54688,0-2.84766.51758-3.90186,1.55273-1.0542,1.03613-1.63721,2.4209-1.74951,4.1543Z" fill="#58595b" stroke-width="0"/>
    <path d="m415.87956,146.16699v-19.875h3.03174v3.01367c.77295-1.41016,1.48779-2.33984,2.14258-2.78906s1.37549-.67383,2.16162-.67383c1.13525,0,2.28906.3623,3.46191,1.08594l-1.16016,3.125c-.82324-.48633-1.64697-.72949-2.47021-.72949-.73633,0-1.39746.22168-1.98389.66406-.58643.44336-1.00439,1.05762-1.25391,1.84375-.37402,1.19727-.56152,2.50781-.56152,3.92969v10.40527h-3.36816Z" fill="#58595b" stroke-width="0"/>
    <path d="m441.64909,143.71582c-1.24756,1.06055-2.44873,1.80859-3.60254,2.24512-1.1543.43652-2.39258.65527-3.71484.65527-2.18359,0-3.86182-.5332-5.03418-1.60059-1.17285-1.06641-1.75928-2.42969-1.75928-4.08887,0-.97266.22168-1.8623.66455-2.66699.44238-.80469,1.02295-1.4502,1.74023-1.93652s1.52539-.85449,2.42383-1.10449c.66113-.17383,1.65918-.34277,2.99414-.50488,2.71973-.32422,4.72217-.71094,6.00732-1.16016.01221-.46191.01855-.75488.01855-.87988,0-1.37207-.31787-2.33887-.9541-2.90039-.86084-.76074-2.14014-1.1416-3.83643-1.1416-1.58496,0-2.75439.27734-3.50928.83301-.75488.55469-1.31299,1.53711-1.6748,2.94727l-3.29395-.44922c.2998-1.41016.79248-2.54785,1.47852-3.41602.68604-.86621,1.67773-1.53418,2.97559-2.00195,1.29736-.46777,2.80078-.70215,4.51025-.70215,1.69678,0,3.0752.2002,4.13574.59961s1.84033.90137,2.33936,1.50586c.49902.60547.84863,1.36914,1.04834,2.29297.1123.57422.16846,1.60938.16846,3.10645v4.49121c0,3.13184.07129,5.1123.21484,5.94238.14355.8291.42725,1.625.85156,2.38574h-3.51807c-.34961-.69824-.57422-1.51562-.67383-2.45117Zm-.28076-7.52344c-1.22266.49902-3.05713.92285-5.50195,1.27246-1.38477.19922-2.36475.42383-2.93848.67383s-1.0166.61426-1.32861,1.09473-.46777,1.01367-.46777,1.59961c0,.89844.33984,1.64746,1.02002,2.24609.67969.59863,1.6748.89844,2.98486.89844,1.29736,0,2.45166-.28418,3.4624-.85156,1.01025-.56738,1.75244-1.34473,2.22656-2.33008.36182-.76074.54297-1.88379.54297-3.36816v-1.23535Z" fill="#58595b" stroke-width="0"/>
    <path d="m457.35026,143.15429l.48633,2.97559c-.94824.19922-1.79639.29883-2.54492.29883-1.22314,0-2.1709-.19336-2.84473-.58008s-1.14795-.89453-1.42236-1.52539c-.27441-.62988-.41162-1.95508-.41162-3.97656v-11.43457h-2.47021v-2.62012h2.47021v-4.92188l3.3501-2.02051v6.94238h3.38721v2.62012h-3.38721v11.62207c0,.96094.05859,1.57812.17773,1.85254.11816.27441.31152.49316.58008.65527.26807.16211.65186.24316,1.15088.24316.37402,0,.86719-.04395,1.47852-.13086Z" fill="#58595b" stroke-width="0"/>
    <path d="m460.66227,122.60546v-3.87402h3.36865v3.87402h-3.36865Zm0,23.56152v-19.875h3.36865v19.875h-3.36865Z" fill="#58595b" stroke-width="0"/>
    <path d="m467.90495,136.22949c0-3.67969,1.02295-6.40625,3.06934-8.17773,1.70898-1.47266,3.79248-2.20898,6.25049-2.20898,2.73242,0,4.96533.89551,6.69971,2.68555,1.73438,1.79102,2.60156,4.26465,2.60156,7.4209,0,2.55762-.38379,4.56934-1.15088,6.03516-.76758,1.46582-1.88428,2.60449-3.3501,3.41504-1.46631.81152-3.06641,1.2168-4.80029,1.2168-2.78223,0-5.03125-.8916-6.74658-2.67578s-2.57324-4.35449-2.57324-7.71094Zm3.4624,0c0,2.54492.55469,4.45117,1.66553,5.71777,1.11035,1.26562,2.50781,1.89941,4.19189,1.89941,1.67188,0,3.06299-.63672,4.17334-1.90918s1.66553-3.21289,1.66553-5.82031c0-2.45801-.55859-4.31934-1.6748-5.58594-1.1167-1.2666-2.50488-1.89941-4.16406-1.89941-1.68408,0-3.08154.62988-4.19189,1.88965-1.11084,1.26074-1.66553,3.16309-1.66553,5.70801Z" fill="#58595b" stroke-width="0"/>
    <path d="m490.47477,146.16699v-19.875h3.03174v2.82617c1.45996-2.18359,3.56787-3.27539,6.32568-3.27539,1.19775,0,2.29834.21582,3.30273.64648,1.00439.42969,1.75635.99414,2.25537,1.69336.49902.69824.84814,1.52832,1.04785,2.48926.12451.62402.18701,1.71484.18701,3.27441v12.2207h-3.36816v-12.08984c0-1.37207-.13135-2.39844-.39307-3.07812-.26221-.67969-.72705-1.22266-1.39453-1.62793s-1.4502-.6084-2.34863-.6084c-1.43457,0-2.67285.45508-3.71484,1.36621-1.0415.91113-1.5625,2.63867-1.5625,5.18359v10.85449h-3.36865Z" fill="#58595b" stroke-width="0"/>
    <path d="m512.29557,146.16699v-27.43555h19.8374v3.23828h-16.20703v8.40234h15.17773v3.21875h-15.17773v9.33887h16.84326v3.2373h-20.47363Z" fill="#58595b" stroke-width="0"/>
    <path d="m555.78776,118.73144h3.63086v15.85156c0,2.75684-.31201,4.94727-.93555,6.56836-.62402,1.62207-1.75,2.94141-3.37842,3.95801-1.62793,1.01758-3.76465,1.52539-6.40967,1.52539-2.57031,0-4.67236-.44336-6.30664-1.3291s-2.80078-2.16699-3.49951-3.8457c-.69873-1.67773-1.04785-3.96973-1.04785-6.87695v-15.85156h3.63037v15.83301c0,2.38281.22119,4.13867.66455,5.26758.44238,1.12988,1.20361,2,2.2832,2.61035,1.07861.6123,2.39844.91699,3.95801.91699,2.66943,0,4.57227-.60449,5.70801-1.81445,1.13477-1.20996,1.70264-3.53711,1.70264-6.98047v-15.83301Z" fill="#58595b" stroke-width="0"/>
  </g>
  <g>
    <path d="m243.57581,35.74436V4.00544h21.75863v5.3692h-15.35023v7.51256h13.24981v5.3692h-13.24981v13.48796h-6.4084Z" fill="#039" stroke-width="0"/>
    <path d="m270.57302,9.63444v-5.629h6.08402v5.629h-6.08402Zm0,26.10992V12.75204h6.08402v22.99232h-6.08402Z" fill="#039" stroke-width="0"/>
    <path d="m303.80689,35.74436h-6.08402v-11.73431c0-2.48241-.1299-4.08818-.3897-4.81731-.2598-.72839-.68179-1.29496-1.26671-1.69934-.58418-.40401-1.28799-.6062-2.11069-.6062-1.05388,0-1.99914.28879-2.83652.866-.83664.57758-1.41055,1.3423-1.72099,2.2949s-.46529,2.71359-.46529,5.2826v10.41366h-6.08329V12.75204h5.65029v3.3774c2.00575-2.598,4.53183-3.897,7.57751-3.897,1.3423,0,2.56865.24182,3.6805.72509,1.11112.48401,1.95217,1.10085,2.52241,1.85126.56951.75078.96654,1.6021,1.19038,2.5547s.33613,2.31655.33613,4.09185v14.28901Z" fill="#039" stroke-width="0"/>
    <path d="m314.52328,19.76665l-5.52112-.9959c.62014-2.22261,1.6887-3.86801,3.2042-4.9362,1.5155-1.06782,3.7671-1.6021,6.75481-1.6021,2.71322,0,4.73365.32145,6.062.96361,1.32762.64216,2.26261,1.45789,2.80349,2.44608.54162.98893.81243,2.80386.81243,5.44516l-.06532,7.10121c0,2.02079.09761,3.51097.29209,4.47054.19522.96031.55923,1.9885,1.09351,3.08531h-6.0187c-.15926-.40401-.35374-1.00287-.58418-1.79695-.10128-.36071-.1732-.59886-.21723-.71445-1.0392,1.01058-2.15032,1.76833-3.33337,2.27325-1.18378.50492-2.44682.75775-3.78912.75775-2.36756,0-4.23239-.64216-5.59671-1.92685-1.36358-1.28432-2.04538-2.90807-2.04538-4.87125,0-1.299.30971-2.45709.93058-3.47501.62014-1.01718,1.48981-1.79658,2.60901-2.3382,1.11846-.54088,2.73084-1.01351,4.8386-1.41789,2.84312-.53391,4.81364-1.03186,5.91082-1.49385v-.6062c0-1.1691-.28916-2.00244-.866-2.50076-.57758-.49758-1.66742-.74674-3.26952-.74674-1.0825,0-1.92648.2132-2.53268.63886s-1.09718,1.17277-1.4722,2.24059Zm8.14041,4.9362c-.7794.2598-2.01382.57024-3.70252.93095-1.6887.36108-2.79249.71445-3.31209,1.06085-.79408.5629-1.19112,1.27735-1.19112,2.14335,0,.85169.31704,1.58779.9526,2.2083.63482.62088,1.44285.93095,2.4248.93095,1.09644,0,2.14372-.36071,3.13889-1.0825.73683-.54822,1.21974-1.21937,1.45092-2.01345.15852-.5196.23852-1.50816.23852-2.96605v-1.2124Z" fill="#039" stroke-width="0"/>
    <path d="m355.55043,35.74436h-6.08402v-11.73431c0-2.48241-.1299-4.08818-.3897-4.81731-.2598-.72839-.68179-1.29496-1.26671-1.69934-.58418-.40401-1.28799-.6062-2.11069-.6062-1.05388,0-1.99914.28879-2.83652.866-.83664.57758-1.41055,1.3423-1.72099,2.2949s-.46529,2.71359-.46529,5.2826v10.41366h-6.08329V12.75204h5.65029v3.3774c2.00575-2.598,4.53183-3.897,7.57751-3.897,1.3423,0,2.56865.24182,3.6805.72509,1.11112.48401,1.95217,1.10085,2.52241,1.85126.56951.75078.96654,1.6021,1.19038,2.5547s.33613,2.31655.33613,4.09185v14.28901Z" fill="#039" stroke-width="0"/>
    <path d="m381.76897,19.55015l-5.99742,1.0825c-.20256-1.19772-.66051-2.10005-1.37459-2.70625-.71482-.6062-1.64247-.9093-2.78221-.9093-1.5155,0-2.72423.52327-3.62619,1.56944-.9027,1.04691-1.35331,2.79689-1.35331,5.25031,0,2.7279.45795,4.65475,1.37459,5.78055s2.14665,1.6887,3.69151,1.6887c1.15442,0,2.10042-.32805,2.83579-.98526.73683-.65647,1.25643-1.78594,1.5588-3.38804l5.9754,1.01755c-.62014,2.74258-1.81126,4.81364-3.57189,6.21355-1.76136,1.40028-4.12084,2.10005-7.07992,2.10005-3.36272,0-6.04366-1.06085-8.0428-3.18255s-2.99798-5.05876-2.99798-8.81156c0-3.79572,1.00251-6.75114,3.00899-8.8655,2.00575-2.11436,4.7197-3.17191,8.14041-3.17191,2.79982,0,5.02647.6029,6.67921,1.80759,1.65201,1.20543,2.83945,3.04201,3.56161,5.51011Z" fill="#039" stroke-width="0"/>
    <path d="m384.97244,23.92345c0-2.02042.49832-3.97626,1.49348-5.86715.99663-1.89052,2.40719-3.3341,4.23313-4.33,1.82521-.9959,3.86471-1.49385,6.11631-1.49385,3.47795,0,6.32841,1.12947,8.55139,3.38841,2.22225,2.25894,3.3341,5.11307,3.3341,8.5624,0,3.47868-1.12213,6.3618-3.36639,8.649-2.245,2.28793-5.06977,3.43171-8.47653,3.43171-2.10702,0-4.11717-.4763-6.02898-1.4289-1.91254-.9526-3.36639-2.34921-4.36303-4.18909-.99517-1.84062-1.49348-4.08121-1.49348-6.72251Zm6.2352.32475c0,2.28059.54088,4.0269,1.62412,5.2393,1.08177,1.2124,2.41673,1.8186,4.00489,1.8186,1.58742,0,2.91872-.6062,3.99461-1.8186,1.07516-1.2124,1.61311-2.97302,1.61311-5.2826,0-2.2516-.53795-3.9836-1.61311-5.196-1.0759-1.2124-2.40719-1.8186-3.99461-1.8186-1.58816,0-2.92312.6062-4.00489,1.8186-1.08323,1.2124-1.62412,2.95908-1.62412,5.2393Z" fill="#039" stroke-width="0"/>
    <path d="m419.78493,35.74436l-9.26621-22.99232h6.38712l4.33,11.73431,1.2557,3.91865c.33172-.9959.54162-1.65237.62822-1.97015.20182-.6495.41832-1.299.64877-1.9485l4.37404-11.73431h6.25649l-9.13631,22.99232h-5.47782Z" fill="#039" stroke-width="0"/>
    <path d="m442.6701,19.76665l-5.52112-.9959c.62014-2.22261,1.6887-3.86801,3.2042-4.9362,1.5155-1.06782,3.7671-1.6021,6.75481-1.6021,2.71322,0,4.73365.32145,6.062.96361,1.32762.64216,2.26261,1.45789,2.80349,2.44608.54162.98893.81243,2.80386.81243,5.44516l-.06532,7.10121c0,2.02079.09761,3.51097.29209,4.47054.19522.96031.55923,1.9885,1.09351,3.08531h-6.0187c-.15926-.40401-.35374-1.00287-.58418-1.79695-.10128-.36071-.1732-.59886-.21723-.71445-1.0392,1.01058-2.15032,1.76833-3.33337,2.27325-1.18378.50492-2.44682.75775-3.78912.75775-2.36756,0-4.23239-.64216-5.59671-1.92685-1.36358-1.28432-2.04538-2.90807-2.04538-4.87125,0-1.299.30971-2.45709.93058-3.47501.62014-1.01718,1.48981-1.79658,2.60901-2.3382,1.11846-.54088,2.73084-1.01351,4.8386-1.41789,2.84312-.53391,4.81364-1.03186,5.91082-1.49385v-.6062c0-1.1691-.28916-2.00244-.866-2.50076-.57758-.49758-1.66742-.74674-3.26952-.74674-1.0825,0-1.92648.2132-2.53268.63886s-1.09718,1.17277-1.4722,2.24059Zm8.14041,4.9362c-.7794.2598-2.01382.57024-3.70252.93095-1.6887.36108-2.79249.71445-3.31209,1.06085-.79408.5629-1.19112,1.27735-1.19112,2.14335,0,.85169.31704,1.58779.9526,2.2083.63482.62088,1.44285.93095,2.4248.93095,1.09644,0,2.14372-.36071,3.13889-1.0825.73683-.54822,1.21974-1.21937,1.45092-2.01345.15852-.5196.23852-1.50816.23852-2.96605v-1.2124Zm-6.5816-14.76531l2.98697-6.47335h6.82012l-5.95412,6.47335h-3.85297Z" fill="#039" stroke-width="0"/>
    <path d="m483.69725,35.74436h-6.08402v-11.73431c0-2.48241-.1299-4.08818-.3897-4.81731-.2598-.72839-.68179-1.29496-1.26671-1.69934-.58418-.40401-1.28799-.6062-2.11069-.6062-1.05388,0-1.99914.28879-2.83652.866-.83664.57758-1.41055,1.3423-1.72099,2.2949s-.46529,2.71359-.46529,5.2826v10.41366h-6.08329V12.75204h5.65029v3.3774c2.00575-2.598,4.53183-3.897,7.57751-3.897,1.3423,0,2.56865.24182,3.6805.72509,1.11112.48401,1.95217,1.10085,2.52241,1.85126.56951.75078.96654,1.6021,1.19038,2.5547s.33613,2.31655.33613,4.09185v14.28901Z" fill="#039" stroke-width="0"/>
    <path d="m488.45952,23.92345c0-2.02042.49832-3.97626,1.49348-5.86715.99663-1.89052,2.40719-3.3341,4.23313-4.33,1.82521-.9959,3.86471-1.49385,6.11631-1.49385,3.47795,0,6.32841,1.12947,8.55139,3.38841,2.22225,2.25894,3.3341,5.11307,3.3341,8.5624,0,3.47868-1.12213,6.3618-3.36639,8.649-2.245,2.28793-5.06977,3.43171-8.47653,3.43171-2.10702,0-4.11717-.4763-6.02898-1.4289-1.91254-.9526-3.36639-2.34921-4.36303-4.18909-.99517-1.84062-1.49348-4.08121-1.49348-6.72251Zm6.2352.32475c0,2.28059.54088,4.0269,1.62412,5.2393,1.08177,1.2124,2.41673,1.8186,4.00489,1.8186,1.58742,0,2.91872-.6062,3.99461-1.8186,1.07516-1.2124,1.61311-2.97302,1.61311-5.2826,0-2.2516-.53795-3.9836-1.61311-5.196-1.0759-1.2124-2.40719-1.8186-3.99461-1.8186-1.58816,0-2.92312.6062-4.00489,1.8186-1.08323,1.2124-1.62412,2.95908-1.62412,5.2393Z" fill="#039" stroke-width="0"/>
    <path d="m243.53325,88.95129v-31.73892h23.5332v5.3692h-17.1248v7.03626h15.93441v5.34755h-15.93441v8.63799h17.731v5.34792h-24.1394Z" fill="#039" stroke-width="0"/>
    <path d="m279.38494,88.95129l-9.26621-22.99232h6.38712l4.33,11.73431,1.2557,3.91829c.33172-.9959.54162-1.65201.62822-1.96978.20182-.6495.41832-1.299.64877-1.9485l4.37404-11.73431h6.25649l-9.13631,22.99232h-5.47782Z" fill="#039" stroke-width="0"/>
    <path d="m303.54709,88.95129h-6.08402v-22.99232h5.65102v3.26915c.96654-1.54412,1.83621-2.56167,2.60901-3.05265.77206-.49061,1.64834-.7361,2.63029-.7361,1.3856,0,2.72056.38273,4.00489,1.14745l-1.88318,5.30425c-1.02526-.66381-1.97786-.9959-2.8578-.9959-.85206,0-1.57348.23485-2.165.70381-.59226.46896-1.05755,1.31698-1.39661,2.54369-.33906,1.22708-.50859,3.79609-.50859,7.70741v7.10121Z" fill="#039" stroke-width="0"/>
    <path d="m313.57068,77.13038c0-2.02042.49832-3.97626,1.49348-5.86715.99663-1.89052,2.40719-3.3341,4.23313-4.33,1.82521-.9959,3.86471-1.49385,6.11631-1.49385,3.47795,0,6.32841,1.12947,8.55139,3.38841,2.22225,2.25894,3.3341,5.11307,3.3341,8.5624,0,3.47868-1.12213,6.36144-3.36639,8.649-2.245,2.28756-5.06977,3.43171-8.47653,3.43171-2.10702,0-4.11717-.4763-6.02898-1.4289-1.91254-.9526-3.36639-2.34921-4.36303-4.18909-.99517-1.84062-1.49348-4.08121-1.49348-6.72251Zm6.2352.32475c0,2.28059.54088,4.02654,1.62412,5.23894,1.08177,1.2124,2.41673,1.8186,4.00489,1.8186,1.58742,0,2.91872-.6062,3.99461-1.8186,1.07516-1.2124,1.61311-2.97266,1.61311-5.28224,0-2.2516-.53795-3.9836-1.61311-5.196-1.0759-1.2124-2.40719-1.8186-3.99461-1.8186-1.58816,0-2.92312.6062-4.00489,1.8186-1.08323,1.2124-1.62412,2.95908-1.62412,5.2393Z" fill="#039" stroke-width="0"/>
    <path d="m341.88891,65.95898h5.67304v3.3774c.73537-1.15442,1.732-2.09271,2.98697-2.8145,1.25643-.72142,2.64864-1.0825,4.17882-1.0825,2.66992,0,4.9362,1.04654,6.79811,3.13925,1.8619,2.09308,2.79249,5.00849,2.79249,8.74661,0,3.83939-.93792,6.82342-2.81377,8.95247-1.87658,2.12904-4.1502,3.19319-6.82012,3.19319-1.27038,0-2.42113-.2532-3.45299-.75812-1.0326-.50492-2.11877-1.37092-3.25851-2.598v11.58313h-6.08402v-31.73892Zm6.01944,11.10646c0,2.58369.51153,4.49256,1.53678,5.72625,1.02452,1.23442,2.27362,1.85089,3.74582,1.85089,1.41422,0,2.58993-.56584,3.52859-1.69898.93792-1.13314,1.40762-2.99137,1.40762-5.57506,0-2.41012-.48437-4.2001-1.45092-5.3692-.96728-1.1691-2.165-1.75365-3.5939-1.75365-1.48688,0-2.72056.57391-3.70179,1.72099-.98196,1.14782-1.4722,2.84716-1.4722,5.09876Z" fill="#039" stroke-width="0"/>
    <path d="m367.00292,82.39097l6.1053-.93058c.2598,1.18378.78674,2.08207,1.58008,2.69561.79408.61354,1.9052.91958,3.33484.91958,1.57275,0,2.75652-.28842,3.5506-.866.53354-.40364.80068-.94526.80068-1.62338,0-.46162-.14458-.84472-.433-1.14782-.3031-.28842-.98196-.55556-2.0351-.80068-4.90758-1.0825-8.01784-2.07106-9.33079-2.96605-1.8186-1.24102-2.72864-2.96605-2.72864-5.17435,0-1.9918.78674-3.66582,2.36022-5.0228,1.57275-1.35661,4.01223-2.0351,7.31771-2.0351,3.14622,0,5.48443.51263,7.01461,1.53715,1.52945,1.02489,2.58332,2.54039,3.1609,4.5465l-5.73762,1.06085c-.24512-.89462-.71041-1.58045-1.39588-2.05675-.6862-.4763-1.66375-.71445-2.93413-.71445-1.60137,0-2.74919.22384-3.44199.67115-.46236.31778-.6928.72913-.6928,1.23405,0,.433.20182.80105.6062,1.10415.54822.40438,2.44242.97425,5.68331,1.71035,3.24016.7361,5.50204,1.63843,6.7871,2.70625,1.26965,1.0825,1.9052,2.59103,1.9052,4.52485,0,2.10702-.88068,3.91829-2.6413,5.43379-1.76136,1.5155-4.36596,2.27362-7.81529,2.27362-3.13228,0-5.61139-.63482-7.43733-1.9052s-3.01999-2.99504-3.58289-5.17472Z" fill="#039" stroke-width="0"/>
    <path d="m393.58914,88.95129v-31.73892h6.08329v16.84371l7.12249-8.09711h7.49164l-7.85932,8.40021,8.42149,14.59211h-6.55959l-5.78019-10.32706-2.83652,2.96605v7.36101h-6.08329Z" fill="#039" stroke-width="0"/>
    <path d="m417.05776,77.13038c0-2.02042.49832-3.97626,1.49348-5.86715.99663-1.89052,2.40719-3.3341,4.23313-4.33,1.82521-.9959,3.86471-1.49385,6.11631-1.49385,3.47795,0,6.32841,1.12947,8.55139,3.38841,2.22225,2.25894,3.3341,5.11307,3.3341,8.5624,0,3.47868-1.12213,6.36144-3.36639,8.649-2.245,2.28756-5.06977,3.43171-8.47653,3.43171-2.10702,0-4.11717-.4763-6.02898-1.4289-1.91254-.9526-3.36639-2.34921-4.36303-4.18909-.99517-1.84062-1.49348-4.08121-1.49348-6.72251Zm6.2352.32475c0,2.28059.54088,4.02654,1.62412,5.23894,1.08177,1.2124,2.41673,1.8186,4.00489,1.8186,1.58742,0,2.91872-.6062,3.99461-1.8186,1.07516-1.2124,1.61311-2.97266,1.61311-5.28224,0-2.2516-.53795-3.9836-1.61311-5.196-1.0759-1.2124-2.40719-1.8186-3.99461-1.8186-1.58816,0-2.92312.6062-4.00489,1.8186-1.08323,1.2124-1.62412,2.95908-1.62412,5.2393Z" fill="#039" stroke-width="0"/>
    <path d="m460.68291,88.95129v-3.44272c-.83738,1.22708-1.93749,2.19436-3.30181,2.9011-1.36358.70748-2.80349,1.06122-4.31899,1.06122-1.54486,0-2.93046-.3398-4.1568-1.01792-1.22708-.67812-2.11436-1.63072-2.66332-2.8578-.54822-1.22634-.82197-2.92239-.82197-5.08739v-14.54881h6.08329v10.56521c0,3.23319.11155,5.21435.33539,5.94311s.63115,1.30634,1.22341,1.732c.59152.42566,1.3423.63849,2.2516.63849,1.0392,0,1.97052-.28475,2.79249-.85499.82343-.57024,1.3856-1.27772,1.68944-2.1217.30237-.84472.45428-2.91211.45428-6.20291v-9.69921h6.08329v22.99232h-5.65029Z" fill="#039" stroke-width="0"/>
    <path d="m500.08594,88.95129v-3.44272c-.83738,1.22708-1.93749,2.19436-3.30181,2.9011-1.36358.70748-2.80349,1.06122-4.31899,1.06122-1.54486,0-2.93046-.3398-4.1568-1.01792-1.22708-.67812-2.11436-1.63072-2.66332-2.8578-.54822-1.22634-.82197-2.92239-.82197-5.08739v-14.54881h6.08329v10.56521c0,3.23319.11155,5.21435.33539,5.94311s.63115,1.30634,1.22341,1.732c.59152.42566,1.3423.63849,2.2516.63849,1.0392,0,1.97052-.28475,2.79249-.85499.82343-.57024,1.3856-1.27772,1.68944-2.1217.30237-.84472.45428-2.91211.45428-6.20291v-9.69921h6.08329v22.99232h-5.65029Z" fill="#039" stroke-width="0"/>
    <path d="m532.95067,88.95129h-6.08402v-11.73431c0-2.48241-.1299-4.08818-.3897-4.81731-.2598-.72839-.68179-1.29496-1.26671-1.69934-.58418-.40401-1.28799-.6062-2.11069-.6062-1.05388,0-1.99914.28879-2.83652.866-.83664.57758-1.41055,1.3423-1.72099,2.2949s-.46529,2.71359-.46529,5.2826v10.41366h-6.08329v-22.99232h5.65029v3.3774c2.00575-2.598,4.53183-3.897,7.57751-3.897,1.3423,0,2.56865.24182,3.6805.72509,1.11112.48401,1.95217,1.10085,2.52241,1.85126.56951.75078.96654,1.6021,1.19038,2.5547s.33613,2.31655.33613,4.09185v14.28901Z" fill="#039" stroke-width="0"/>
    <path d="m539.11982,62.84137v-5.629h6.08402v5.629h-6.08402Zm0,26.10992v-22.99232h6.08402v22.99232h-6.08402Z" fill="#039" stroke-width="0"/>
    <path d="m550.98476,63.14447l2.9877-6.47335h6.81939l-5.95339,6.47335h-3.8537Zm.45428,25.80682v-22.99232h6.08402v22.99232h-6.08402Z" fill="#039" stroke-width="0"/>
  </g>
</svg>