<svg width="188" height="75" viewBox="0 0 188 75" fill="none" xmlns="http://www.w3.org/2000/svg">
<g clip-path="url(#clip0_320_617)">
<path d="M31.185 28.8891C22.6011 28.8891 16.1627 26.3901 15.4121 17.7528H23.996C24.3533 20.787 26.2852 21.9289 30.4344 21.9289C34.9769 21.9289 36.6575 19.9658 36.6575 17.2886V0.620117H46.3511V17.3244C46.3511 23.8205 41.5577 28.8891 31.185 28.8891Z" fill="#231F20"/>
<path d="M68.3721 28.8891C56.4968 28.8891 50.2021 24.7127 50.2021 15.7184V0.620117H60.252V16.2181C60.252 19.2878 62.8637 21.6433 68.9085 21.6433C73.9514 21.6433 77.5998 20.1796 77.5998 16.2181V0.620117H87.114V16.1818C87.114 25.0696 79.7463 28.8891 68.3721 28.8891Z" fill="#231F20"/>
<path d="M118.556 28.4967L101.101 11.3999V28.4967H91.5508V0.620117H101.137L118.198 17.0744V0.620117H127.748V28.4967H118.556Z" fill="#231F20"/>
<path d="M165.639 28.4965L164.745 24.9626C162.456 27.5326 156.948 28.9249 151.189 28.9249C139.421 28.9249 131.017 24.4987 130.766 15.0043V14.0766C131.052 5.40305 138.813 0.155762 151.833 0.155762C162.778 0.155762 169.573 3.7611 171.148 10.9355C171.219 11.2211 171.291 11.6494 171.291 11.8991H161.633C161.597 11.5777 161.49 11.1497 161.383 10.8996C160.345 8.43691 157.591 6.86634 151.618 6.86634C144.894 6.86634 141.568 9.25769 141.066 13.4697C141.031 13.8262 140.995 14.2194 140.995 14.576C140.995 14.9685 141.031 15.3258 141.066 15.7186C141.568 19.466 144.751 22.1788 151.833 22.1788C157.627 22.1788 161.311 20.323 162.062 17.6461C162.098 17.5033 162.134 17.2174 162.134 17.2174H151.117V13.898H171.72C171.72 14.1839 171.648 17.4674 171.684 19.5374C171.755 23.2141 171.862 28.3537 171.862 28.4965H165.639Z" fill="#231F20"/>
<path d="M8.14161 51.4689C1.20614 51.4689 0.170898 48.8552 0.170898 47.297V46.9531C0.170898 46.1581 0.463045 45.4651 1.03797 44.894C3.02606 42.922 8.08131 42.5206 15.0801 42.5501C14.7134 41.0839 12.4642 40.8559 11.1043 40.8559C8.90981 40.8559 7.54758 41.4625 7.16405 42.6092L7.10637 42.7819H1.14921L1.18292 42.4997C1.62938 38.7247 5.29019 36.7295 11.7706 36.7295C16.9326 36.7295 19.9181 38.059 20.8983 40.7938C21.1563 41.5197 21.2822 42.567 21.2346 43.5952C21.235 43.7623 21.2279 44.1375 21.2193 44.6062C21.1998 45.6008 21.1732 46.9632 21.1885 47.7967C21.2095 48.9909 21.2687 50.3125 21.7095 50.878L22.0275 51.2858H15.6786L15.6198 51.1153C15.6112 51.0903 15.4483 50.6111 15.3816 50.0415C13.8497 50.9647 11.3073 51.4689 8.14161 51.4689ZM14.3872 43.0536C8.6686 43.0536 3.28899 43.3724 1.39491 45.2521C0.911376 45.732 0.67691 46.2882 0.67691 46.9531V47.297C0.67691 49.6618 3.32757 50.9636 8.14161 50.9636C11.426 50.9636 14.0924 50.3887 15.4561 49.3856L15.8595 49.0892V49.5889C15.8595 50.0509 15.9764 50.5326 16.0464 50.7808H21.0739C20.7515 50.0363 20.7016 48.912 20.6825 47.8057C20.6672 46.9632 20.6934 45.5952 20.7129 44.5961C20.7219 44.1323 20.7286 43.76 20.7286 43.5836C20.7736 42.6055 20.6589 41.6303 20.4219 40.9631C19.5226 38.4548 16.6929 37.2348 11.7706 37.2348C7.55058 37.2348 2.43353 38.1184 1.72639 42.2765H6.74905C7.13371 41.3604 8.21315 40.3509 11.1043 40.3509C14.8677 40.3509 15.5543 41.8755 15.6292 42.7837L15.652 43.0588L15.3752 43.057C15.0452 43.0551 14.7156 43.0536 14.3872 43.0536ZM10.0477 48.0766C7.98543 48.0766 6.83482 47.8655 6.31645 47.3911C6.05352 47.1557 5.91344 46.829 5.91344 46.4489C5.91344 45.9529 6.21158 45.5631 6.7101 45.4057L6.71309 45.405C8.04423 45.0017 12.0852 44.6604 15.5378 44.6604H15.7906V44.9131C15.7906 45.103 15.7719 45.4382 15.7183 45.757C15.6018 46.5008 14.9647 47.0899 13.7692 47.5549C13.2519 47.7518 11.259 48.0766 10.0477 48.0766ZM6.86104 45.8879C6.49623 46.0034 6.41945 46.2564 6.41945 46.4489C6.41945 46.6111 6.46102 46.8417 6.65654 47.0174C7.26293 47.5717 9.35926 47.5717 10.0477 47.5717C11.2597 47.5717 13.1646 47.2446 13.5875 47.0839C14.5838 46.6956 15.1333 46.222 15.219 45.6763C15.2468 45.5074 15.2655 45.3246 15.2752 45.1665C11.9264 45.1826 8.12251 45.5062 6.86104 45.8879Z" fill="#231F20"/>
<path d="M30.532 51.2857H24.4434V37.1193H30.4398V38.7567C31.8665 37.4747 33.983 36.7754 36.4801 36.7754C41.105 36.7754 43.8763 39.0012 44.0834 42.8827C44.1067 43.502 44.1299 44.8098 44.1299 45.0046V45.2572H37.812V45.0046C37.812 44.4204 37.8042 44.0044 37.7896 43.8339C37.5382 42.4133 36.4625 41.6814 34.5973 41.6814C32.2036 41.6814 30.532 43.0576 30.532 45.0278V51.2857ZM24.9497 50.7804H30.0256V45.0278C30.0256 42.796 31.9481 41.1765 34.5973 41.1765C37.2719 41.1765 38.0825 42.5863 38.2911 43.7689C38.3094 43.9786 38.3162 44.3815 38.318 44.7523H43.6212C43.6138 44.2955 43.5961 43.3873 43.5774 42.9055C43.3842 39.2796 40.8635 37.2803 36.4801 37.2803C33.8561 37.2803 31.6882 38.081 30.3747 39.5353L29.9338 40.0234V37.6246H24.9497V50.7804Z" fill="#231F20"/>
<path d="M56.256 51.5608C49.4752 51.5608 45.3646 49.1463 44.9788 44.9362C44.9541 44.6966 44.9541 44.4787 44.9541 44.2485C44.9541 43.9872 44.9781 43.7506 45.0009 43.5222C45.3867 39.4205 49.7685 36.7754 56.1635 36.7754C62.2825 36.7754 66.1392 38.9619 67.0231 42.9328C67.0362 42.9851 67.0433 43.0431 67.0512 43.1047C67.0553 43.1451 67.0606 43.1881 67.0703 43.2352L67.1325 43.5387H60.9247L60.854 43.4004C60.8285 43.3492 60.7963 43.2729 60.7648 43.1971C60.7386 43.1354 60.7135 43.0737 60.6925 43.0326C60.0625 41.8373 58.4452 41.1776 56.141 41.1776C53.7353 41.1776 51.7424 42.1479 51.4023 43.4856C51.3495 43.6968 51.3176 43.9483 51.3176 44.1569C51.3176 44.3879 51.3416 44.6394 51.3806 44.8121C51.6986 46.2713 53.6114 47.2505 56.141 47.2505C58.9318 47.2505 60.1168 46.3871 60.6191 45.6635L60.648 45.6284C60.6528 45.6198 60.6704 45.5705 60.6817 45.5376C60.6996 45.4871 60.7176 45.4378 60.7393 45.3955L60.8094 45.2565H67.0767L66.9737 45.6661C66.9602 45.7162 66.9463 45.7671 66.9321 45.8347C66.4579 48.4735 63.3758 51.5608 56.256 51.5608ZM56.1635 37.2803C50.0483 37.2803 45.8642 39.7461 45.5054 43.5615C45.4815 43.7992 45.4601 44.0126 45.4601 44.2485C45.4601 44.4753 45.4601 44.6708 45.4826 44.8876C45.8421 48.8088 49.7689 51.0555 56.256 51.0555C62.6095 51.0555 65.9407 48.4006 66.4313 45.7615H61.1394C61.1139 45.8291 61.0806 45.9027 61.0251 45.9655C60.4479 46.7859 59.1329 47.7555 56.141 47.7555C53.3675 47.7555 51.2558 46.6166 50.8865 44.9209C50.8401 44.7123 50.8116 44.4264 50.8116 44.1569C50.8116 43.8007 50.8813 43.4826 50.9109 43.3626C51.3139 41.7782 53.4642 40.6723 56.141 40.6723C58.6423 40.6723 60.4187 41.4284 61.1427 42.8012C61.1701 42.8547 61.2008 42.9287 61.2319 43.0031C61.236 43.0128 61.2405 43.0233 61.2446 43.0333H66.5265C65.6916 39.3211 62.0128 37.2803 56.1635 37.2803Z" fill="#231F20"/>
<path d="M90.3494 51.2856H83.9881L83.9139 51.1668C83.6588 50.7594 83.5764 50.1524 83.5764 44.5003C83.5764 42.636 82.1446 41.567 79.6493 41.567C76.9395 41.567 75.2619 43.2441 75.2619 44.7982V51.2856H69.083V32.5806H75.1713V38.7656C77.308 36.9787 80.5115 36.7753 81.8543 36.7753C86.8309 36.7753 89.8025 39.3031 89.8025 43.5379C89.8025 50.3154 89.9651 50.6039 90.1374 50.9096L90.3494 51.2856ZM84.2885 50.7803H89.5377C89.3879 50.2122 89.2961 48.7885 89.2961 43.5379C89.2961 39.6197 86.5144 37.2803 81.8543 37.2803C80.4816 37.2803 77.0754 37.4986 75.0993 39.5195L74.6652 39.9636V33.0855H69.589V50.7803H74.7559V44.7982C74.7559 43.0011 76.6267 41.0617 79.6493 41.0617C82.4247 41.0617 84.0825 42.3471 84.0825 44.5003C84.0825 49.0636 84.1375 50.3449 84.2885 50.7803Z" fill="#231F20"/>
<path d="M99.9867 51.2857L93.7415 51.2726C93.186 51.0891 93.0171 50.3098 93.0171 47.9387V37.1193H99.1735V47.8927C99.1735 50.1809 99.2997 50.5539 99.5874 50.8608L99.9867 51.2857ZM93.8737 50.7804H98.9323C98.7357 50.3319 98.6675 49.5914 98.6675 47.8927V37.6246H93.5235V47.9387C93.5235 48.6668 93.5235 50.5696 93.8737 50.7804ZM99.3338 36.4783H92.8789V32.6494H99.3338V36.4783ZM93.3853 35.9733H98.8278V33.1547H93.3853V35.9733Z" fill="#231F20"/>
<path d="M110.85 51.561C106.567 51.561 104.303 49.7617 104.303 46.3574V41.0858H100.674V37.1194H104.336C104.479 35.948 104.441 33.8692 104.441 33.8467L104.436 33.5967L110.46 33.4214V37.1194H116.454V41.0858H110.483V45.5093C110.483 46.7136 111.191 47.2507 112.779 47.2507C113.562 47.2507 115.028 47.1565 115.627 46.9857L115.95 46.8938V50.9177L115.777 50.9753C114.9 51.2668 113.037 51.561 110.85 51.561ZM101.18 40.5809H104.809V46.3574C104.809 49.475 106.841 51.0556 110.85 51.0556C112.829 51.0556 114.563 50.8026 115.444 50.5496V47.5452C114.656 47.6932 113.381 47.7557 112.779 47.7557C110.92 47.7557 109.977 46.9999 109.977 45.5093V40.5809H115.948V37.6244H109.953V33.9413L104.951 34.0874C104.957 34.7344 104.958 36.465 104.806 37.4121L104.772 37.6244H101.18V40.5809Z" fill="#231F20"/>
<path d="M128.054 51.5609C121.589 51.5609 117.554 49.0055 117.259 44.7244C117.235 44.5644 117.235 44.3723 117.235 44.2026C117.235 44.0146 117.235 43.8203 117.26 43.6214C117.638 39.5436 122.171 36.7983 128.537 36.7983C135.012 36.7983 138.927 39.3426 139.561 43.9619C139.586 44.2434 139.609 44.4983 139.609 44.7756V45.0283H123.496C123.55 45.2088 123.634 45.4099 123.724 45.5654C124.433 46.7416 125.994 47.3654 128.238 47.3654C131.715 47.3654 132.834 46.314 133.095 45.9922C133.142 45.9294 133.193 45.8222 133.206 45.7695L133.254 45.5773H139.41L139.378 45.8588C139.355 46.0591 139.284 46.218 139.232 46.3335L139.199 46.406C137.854 49.7302 133.896 51.5609 128.054 51.5609ZM128.537 37.3037C122.446 37.3037 118.117 39.8643 117.763 43.6756C117.741 43.8513 117.741 44.0221 117.741 44.2026C117.741 44.3559 117.741 44.5289 117.762 44.6717C118.042 48.7353 121.794 51.0556 128.054 51.0556C133.676 51.0556 137.466 49.3374 138.73 46.2169L138.77 46.1268C138.776 46.1122 138.783 46.0976 138.789 46.0827H133.626C133.588 46.1615 133.541 46.24 133.493 46.3032C133.109 46.779 131.839 47.8704 128.238 47.8704C125.166 47.8704 123.851 46.7566 123.289 45.8222C123.104 45.5063 122.959 45.087 122.933 44.7988L122.908 44.5229H139.096C139.089 44.3619 139.074 44.2052 139.059 44.0427C138.464 39.6924 134.727 37.3037 128.537 37.3037ZM133.791 43.2174H122.959L123.142 42.8515C123.238 42.6601 123.454 42.2882 123.818 41.9541C124.906 40.9957 126.462 40.5121 128.445 40.5121C130.978 40.5121 132.64 41.0574 133.385 42.1338L133.387 42.1372C133.602 42.4568 133.675 42.6971 133.722 42.9098L133.791 43.2174ZM123.818 42.7121H133.131C133.092 42.6224 133.039 42.5274 132.967 42.4194C132.331 41.5018 130.767 41.017 128.445 41.017C126.562 41.017 125.16 41.4461 124.157 42.3289C124.02 42.4553 123.907 42.5898 123.818 42.7121Z" fill="#231F20"/>
<path d="M163.184 51.2856H155.085L148.981 45.9632L147.762 46.7679V51.2856H141.674V32.5806H147.716V42.0981L155.057 37.1192H162.751L154.004 43.3061L163.184 51.2856ZM155.275 50.7803H161.832L153.186 43.2654L161.162 37.6245H155.213L147.209 43.052V33.0855H142.18V50.7803H147.256V46.4962L149.023 45.3301L155.275 50.7803Z" fill="#231F20"/>
<path d="M172.508 51.561C168.225 51.561 165.961 49.7617 165.961 46.3574V41.0858H162.332V37.1194H165.994C166.138 35.948 166.1 33.8692 166.1 33.8467L166.095 33.5967L172.118 33.4214V37.1194H178.113V41.0858H172.141V45.5093C172.141 46.7136 172.849 47.2507 174.438 47.2507C175.221 47.2507 176.687 47.1565 177.286 46.9857L177.608 46.8938V50.9177L177.435 50.9753C176.558 51.2668 174.695 51.561 172.508 51.561ZM162.838 40.5809H166.467V46.3574C166.467 49.475 168.5 51.0556 172.508 51.0556C174.488 51.0556 176.222 50.8026 177.102 50.5496V47.5452C176.314 47.6932 175.039 47.7557 174.438 47.7557C172.578 47.7557 171.635 46.9999 171.635 45.5093V40.5809H177.607V37.6244H171.612V33.9413L166.609 34.0874C166.616 34.7344 166.616 36.465 166.464 37.4121L166.43 37.6244H162.838V40.5809Z" fill="#231F20"/>
<path d="M187.39 51.2857L181.145 51.2726C180.589 51.0888 180.42 50.3095 180.42 47.9387V37.1193H186.577V47.8927C186.577 50.1809 186.703 50.5539 186.991 50.8608L187.39 51.2857ZM181.277 50.7804H186.336C186.139 50.3319 186.071 49.5914 186.071 47.8927V37.6246H180.927V47.9387C180.927 48.6668 180.927 50.5692 181.277 50.7804ZM186.737 36.4783H180.282V32.6494H186.737V36.4783ZM180.789 35.9733H186.232V33.1547H180.789V35.9733Z" fill="#231F20"/>
<path d="M171.667 73.8145H15.3936V74.3202H171.667V73.8145Z" fill="#231F20"/>
</g>
<defs>
<clipPath id="clip0_320_617">
<rect width="188" height="75" fill="white"/>
</clipPath>
</defs>
</svg>
