<?xml version="1.0" encoding="UTF-8"?>
<svg id="Layer_1" data-name="Layer 1" xmlns="http://www.w3.org/2000/svg" viewBox="0 0 554.67632 170.71302">
  <path d="m204.75393,39.78867h11.12591l8.2453,26.28024h.10392l8.2453-26.28024h11.12591v34.67527h-6.65609v-28.61411h-.10628l-9.32697,28.61411h-6.65609l-9.34091-28.61411-.10155.10392v28.51019h-6.65845v-34.67527Z" fill="#a9a9a9" stroke-width="0"/>
  <path d="m254.20517,39.78867h6.95603v34.67527h-6.95603v-34.67527Z" fill="#a9a9a9" stroke-width="0"/>
  <path d="m271.78902,39.78867h8.54737l13.21559,25.92952h.0876v-25.92952h6.66081v34.67527h-8.4921l-13.26635-25.92952h-.08526v25.92952h-6.66766v-34.67527Z" fill="#a9a9a9" stroke-width="0"/>
  <path d="m311.4126,39.78867h6.95154v34.67527h-6.95154v-34.67527Z" fill="#a9a9a9" stroke-width="0"/>
  <path d="m347.11547,46.14741c-2.19096-.93882-4.62192-1.49002-7.05286-1.49002-2.38937,0-5.46624,1.04035-5.46624,4.82031,0,6.0139,15.1992,3.47364,15.1992,15.10119,0,7.59724-6.0059,10.47549-13.01719,10.47549-3.76884,0-5.45231-.48416-8.87964-1.33296l.64119-6.25955c2.38465,1.29163,5.1108,2.13572,7.85089,2.13572,2.62011,0,6.16272-1.34241,6.16272-4.46982,0-6.61003-15.20841-3.87467-15.20841-15.35484,0-7.74697,6.01511-10.58153,12.11784-10.58153,2.98902,0,5.76122.40126,8.30293,1.24534l-.65042,5.71068Z" fill="#a9a9a9" stroke-width="0"/>
  <path d="m359.68983,45.25255h-9.59905v-5.46388h26.14963v5.46388h-9.59905v29.21139h-6.95154v-29.21139Z" fill="#a9a9a9" stroke-width="0"/>
  <path d="m380.65498,39.78867h20.48075v5.46388h-13.52024v8.55209h12.3807v5.45561h-12.3807v9.74217h13.63077v5.46152h-20.59128v-34.67527Z" fill="#a9a9a9" stroke-width="0"/>
  <path d="m409.32789,39.78867h7.4912c7.45412,0,16.34771-.2468,16.34771,9.38696,0,4.07778-2.73086,7.45553-7.14992,8.04597v.10604c1.87735.14289,2.9798,2.03416,3.67628,3.57496l5.55386,13.56133h-7.74012l-4.17933-10.82597c-.99169-2.58776-1.88183-3.57969-4.82031-3.57969h-2.23255v14.40566h-6.94682v-34.67527Zm6.94682,14.8081h2.28805c3.42712,0,7.3481-.49809,7.3481-4.82385,0-4.17227-3.87469-4.52037-7.3481-4.52037h-2.28805v9.34422Z" fill="#a9a9a9" stroke-width="0"/>
  <path d="m459.57008,46.14741c-2.18626-.93882-4.62639-1.49002-7.05734-1.49002-2.39407,0-5.46624,1.04035-5.46624,4.82031,0,6.0139,15.20841,3.47364,15.20841,15.10119,0,7.59724-6.01511,10.47549-13.02189,10.47549-3.77337,0-5.46626-.48416-8.8889-1.33296l.64121-6.25955c2.38488,1.29163,5.12025,2.13572,7.8464,2.13572,2.63381,0,6.16721-1.34241,6.16721-4.46982,0-6.61003-15.20369-3.87467-15.20369-15.35484,0-7.74697,6.0059-10.58153,12.12233-10.58153,2.9798,0,5.75674.40126,8.29371,1.24534l-.64121,5.71068Z" fill="#a9a9a9" stroke-width="0"/>
  <path d="m472.1584,45.25255h-9.613v-5.46388h26.16357v5.46388h-9.59905v29.21139h-6.95152v-29.21139Z" fill="#a9a9a9" stroke-width="0"/>
  <path d="m485.41552,39.78867h7.44042l8.89808,27.22113h.10604l8.78732-27.22113h6.90076l-11.67501,34.67527h-8.53815l-11.91945-34.67527Z" fill="#a9a9a9" stroke-width="0"/>
  <path d="m537.68291,39.19139c10.88596,0,16.99341,7.36201,16.99341,17.83632,0,10.4757-6.01511,18.02667-16.99341,18.02667-11.11694,0-16.98892-7.39413-16.98892-18.02667,0-10.62664,5.95961-17.83632,16.98892-17.83632Zm0,30.40619c7.10812,0,9.74217-6.31033,9.74217-12.56988,0-6.10606-2.83243-12.37031-9.74217-12.37031-6.89627,0-9.72845,6.26425-9.72845,12.37031,0,6.25955,2.62457,12.56988,9.72845,12.56988Z" fill="#a9a9a9" stroke-width="0"/>
  <g>
    <path d="m204.76999,85.44248h6.95603v14.90257l12.5191-14.90257h8.54973l-14.25569,16.34181,14.84848,18.3311h-9.09647l-12.45675-16.09383h-.1084v16.09383h-6.95603v-34.67291Z" fill="#a9a9a9" stroke-width="0"/>
    <path d="m237.66382,85.44248h6.95129v20.01809c0,5.90907,1.89128,9.78846,7.21206,9.78846,5.30704,0,7.18913-3.87939,7.18913-9.78846v-20.01809h6.95601v22.15379c0,9.29015-5.26313,13.10956-14.14514,13.10956-8.90259,0-14.16334-3.8194-14.16334-13.10956v-22.15379Z" fill="#a9a9a9" stroke-width="0"/>
    <path d="m275.86656,85.44248h6.95604v29.21139h13.05874v5.46152h-20.01478v-34.67291Z" fill="#a9a9a9" stroke-width="0"/>
    <path d="m301.71651,90.90281h-9.59907v-5.46034h26.15908v5.46034h-9.60377v29.21257h-6.95624v-29.21257Z" fill="#a9a9a9" stroke-width="0"/>
    <path d="m322.45089,85.44248h6.95626v20.01809c0,5.90907,1.87735,9.78846,7.19126,9.78846,5.3184,0,7.20968-3.87939,7.20968-9.78846v-20.01809h6.95154v22.15379c0,9.29015-5.26786,13.10956-14.16122,13.10956-8.88887,0-14.14752-3.8194-14.14752-13.10956v-22.15379Z" fill="#a9a9a9" stroke-width="0"/>
    <path d="m360.33104,85.44248h7.50489c7.44963,0,16.3385-.24916,16.3385,9.38578,0,4.07778-2.73983,7.45409-7.15441,8.04453v.10628c1.89577.14291,2.9798,2.03419,3.67652,3.57475l5.56756,13.56157h-7.75406l-4.16538-10.82621c-.99644-2.58776-1.8913-3.57945-4.82503-3.57945h-2.23257v14.40566h-6.95603v-34.67291Zm6.95603,14.80573h2.27884c3.43184,0,7.35729-.49809,7.35729-4.82503,0-4.16988-3.87467-4.52037-7.35729-4.52037h-2.27884v9.3454Z" fill="#a9a9a9" stroke-width="0"/>
    <path d="m398.63559,106.40621l-12.66671-20.96373h8.15061l8.21552,14.55208,8.33977-14.55208h7.35731l-12.43126,20.96373v13.70918h-6.96524v-13.70918Z" fill="#a9a9a9" stroke-width="0"/>
  </g>
  <g>
    <path d="m85.35934,5.74989c-6.54201,0-13.0427.79803-19.32516,2.36289C33.2868,16.27403,9.20369,44.33454,6.08762,77.92811l-3.75823-.35518,3.75823.35518c-.21892,2.44938-.33655,4.94952-.33655,7.43123,0,26.81281,13.37358,51.65735,35.77064,66.46426,13.01034,8.59366,28.16916,13.14189,43.83763,13.14189,31.68862,0,60.34193-18.77416,73.00273-47.82991,4.37866-10.03739,6.59988-20.72968,6.59988-31.77624,0-13.25242-3.32131-26.37116-9.60967-37.94108C141.39299,21.71594,114.57428,5.74989,85.35934,5.74989Z" fill="none" stroke-width="0"/>
    <path d="m5.75107,85.35934c0-2.48171.11763-4.98185.33655-7.43123l-3.75823-.35518-1.96142-.17524c-.2468,2.62011-.36796,5.29785-.36796,7.96165,0,28.74566,14.33646,55.3844,38.35179,71.25243l3.16992-4.78817C19.12464,137.01669,5.75107,112.17215,5.75107,85.35934Z" fill="#a9a9a9" stroke-width="0"/>
    <path d="m85.35934,164.96549c-15.66848,0-30.82729-4.54823-43.83763-13.14189l-3.16992,4.78817c13.95812,9.22544,30.20663,14.10125,47.00756,14.10125,33.9696,0,64.69981-20.13027,78.2798-51.28018l-5.27707-2.29726c-12.6608,29.05575-41.31412,47.82991-73.00273,47.82991Z" fill="#006eb7" stroke-width="0"/>
    <path d="m160.40901,44.66566l-5.05673,2.75261c6.28836,11.56992,9.60967,24.68866,9.60967,37.94108,0,11.04656-2.22121,21.73885-6.59988,31.77624l5.27707,2.29726c4.69466-10.77094,7.07482-22.22891,7.07482-34.0735,0-14.21199-3.56788-28.28087-10.30496-40.69369Z" fill="#ffd300" stroke-width="0"/>
    <path d="m85.35934,5.74989c29.21493,0,56.03365,15.96606,69.99293,41.66838l5.05673-2.75261C145.43936,17.11457,116.67764,0,85.35934,0c-7.00917,0-13.97913.85235-20.72071,2.53603l1.39555,5.57675c6.28246-1.56486,12.78314-2.36289,19.32516-2.36289Z" fill="#5bc4f1" stroke-width="0"/>
    <path d="m6.08762,77.92811c3.11608-33.59357,27.19919-61.65409,59.94657-69.81533l-1.39555-5.57675C29.53095,11.28745,3.70179,41.37198.36442,77.39769h.00354l1.96142.17524,3.75823.35518Z" fill="#db0814" stroke-width="0"/>
    <path d="m78.84024,115.90393l-1.02523,15.10686c2.49566.41519,5.03381.64121,7.61566.64121,7.63314,0,15.02963-1.89128,21.59598-5.3555l-9.01689-17.23783c-3.91033,2.0481-8.14729,3.08585-12.602,3.08585-15.00884,0-27.21879-12.21446-27.21879-27.2233l.17524-3.07212-4.8666-.54674c-.15326,1.25713-.2409,2.53934-.2409,3.8357,0,15.10567,10.76055,28.04446,25.58352,30.76589Z" fill="#a9a9a9" stroke-width="0"/>
    <path d="m46.73312,85.60376c0,5.03619.99169,10.11015,2.86455,14.73679l-7.11285,2.26018c1.4598,3.45499,3.31753,6.77155,5.48915,9.90371,7.08049,9.67297,17.79144,16.46297,29.84103,18.50634l1.02523-15.10686c-14.82297-2.72143-25.58352-15.66021-25.58352-30.76589,0-1.29636.08763-2.57857.2409-3.8357,1.89364-15.45025,15.08159-27.45402,31.03725-27.45402v-6.97091c-20.93161.50161-37.80174,17.67832-37.80174,38.72634Z" fill="#ffd300" stroke-width="0"/>
    <path d="m34.09287,96.68267c-.64806-3.39049-.9754-6.91467-.9754-10.59568,0-21.74098,13.62487-41.6209,33.90487-49.46613l1.84168,4.77071c5.17315-1.95009,10.77071-3.02258,16.61978-3.02258,15.16212,0,29.61855,7.51885,38.47861,19.83957l14.3341-10.11816c-12.11194-17.16062-31.87756-27.41009-52.86585-27.41009-35.65775,0-64.67312,29.01537-64.67312,64.67902,0,4.69018.50731,9.37657,1.50136,13.92032l8.97767-1.96969,2.85629-.6273Z" fill="#006eb7" stroke-width="0"/>
    <path d="m41.52644,102.90068c-2.28687-5.6323-3.28304-11.16299-3.28304-17.29692,0-20.20393,12.74841-37.46942,30.62063-44.21218l-1.84168-4.77071c-20.28001,7.84522-33.90487,27.72515-33.90487,49.46613,0,3.681.32734,7.20519.9754,10.59568,1.32517,6.84977,4.01543,13.16482,8.32608,19.20284l6.01746-2.72143c-.15682-.22153-.30561-.44285-.46243-.65963-2.17162-3.13216-4.02935-6.44873-5.48915-9.90371l-.95839.29994Z" fill="#fff" stroke-width="0"/>
    <path d="m85.48381,38.369c-5.84908,0-11.44663,1.07249-16.61978,3.02258-17.87221,6.74276-30.62063,24.00825-30.62063,44.21218,0,6.13393.99617,11.66462,3.28304,17.29692l.95839-.29994,7.11285-2.26018c-1.87286-4.62664-2.86455-9.7006-2.86455-14.73679,0-21.04802,16.87013-38.22473,37.80174-38.72634.31813-.01275.62728-.02433.94895-.02433,12.44307,0,24.2182,6.04747,31.48551,16.16657l7.01507-4.79267c-.0059-.00449-.01157-.00921-.02196-.01842-8.86006-12.32071-23.31649-19.83957-38.47861-19.83957Z" fill="#5bc4f1" stroke-width="0"/>
    <path d="m48.45932,113.15487c7.07955,9.32697,17.57818,15.8586,29.35569,17.85592,2.49566.41519,5.03381.64121,7.61566.64121,7.63314,0,15.02963-1.89128,21.59598-5.3555,6.45792-3.40867,12.12231-8.34447,16.42493-14.5164l15.08371,10.50784c-12.10036,17.37176-31.9562,27.74121-53.10462,27.74121-30.149,0-56.71265-21.33854-63.17176-50.74949l8.97767-1.96969,2.85629-.6273c1.32517,6.84977,4.01543,13.16482,8.32608,19.20284l6.01746-2.72143.02291-.00921Z" fill="#db0814" stroke-width="0"/>
  </g>
</svg>