<svg width="183" height="57" viewBox="0 0 183 57" fill="none" xmlns="http://www.w3.org/2000/svg">
<path d="M77.9273 24.6447V15.2388H77.8885L74.8205 24.6447H72.638L69.5622 15.2388L69.5311 15.2699V24.6447H67.3408V13.2427H70.9991L73.7098 21.8797H73.7487L76.4593 13.2427H80.1177V24.6447H77.9273Z" fill="white"/>
<path d="M85.888 13.2427H83.6045V24.6447H85.888V13.2427Z" fill="white"/>
<path d="M95.9702 24.6447L91.6052 16.1165H91.5818V24.6447H89.3838V13.2427H92.1955L96.545 21.7631H96.5683V13.2427H98.7586V24.6447H95.9702Z" fill="white"/>
<path d="M104.701 13.2427H102.417V24.6447H104.701V13.2427Z" fill="white"/>
<path d="M114.16 15.3323C113.438 15.0216 112.638 14.843 111.838 14.843C111.038 14.843 110.044 15.1847 110.044 16.4275C110.044 18.4003 115.046 17.5692 115.046 21.3906C115.046 23.8838 113.073 24.8314 110.766 24.8314C109.523 24.8314 108.972 24.6761 107.846 24.3965L108.055 22.3382C108.84 22.7654 109.733 23.0372 110.634 23.0372C111.535 23.0372 112.661 22.5945 112.661 21.5693C112.661 19.3945 107.659 20.2955 107.659 16.5207C107.659 13.9731 109.64 13.041 111.644 13.041C112.622 13.041 113.539 13.1731 114.37 13.4527L114.16 15.3323Z" fill="white"/>
<path d="M118.293 15.0369H115.14V13.2427H123.738V15.0369H120.577V24.6447H118.293V15.0369Z" fill="white"/>
<path d="M125.189 13.2427H131.923V15.0369H127.473V17.8485H131.551V19.6427H127.473V22.8428H131.962V24.6447H125.189V13.2427Z" fill="white"/>
<path d="M134.619 13.2428H137.081C139.536 13.2428 142.456 13.1652 142.456 16.3264C142.456 17.6701 141.555 18.7808 140.103 18.9749V19.006C140.716 19.0526 141.081 19.674 141.314 20.1788L143.14 24.6371H140.592L139.217 21.0798C138.891 20.2254 138.596 19.907 137.633 19.907H136.903V24.6449H134.619V13.2428ZM136.903 18.1128H137.656C138.782 18.1128 140.072 17.9497 140.072 16.5283C140.072 15.1069 138.798 15.0448 137.656 15.0448H136.903V18.1206V18.1128Z" fill="white"/>
<path d="M151.139 15.3323C150.416 15.0216 149.616 14.843 148.816 14.843C148.016 14.843 147.022 15.1847 147.022 16.4275C147.022 18.4003 152.024 17.5692 152.024 21.3906C152.024 23.8838 150.044 24.8314 147.745 24.8314C146.502 24.8314 145.95 24.6761 144.824 24.3965L145.034 22.3382C145.818 22.7654 146.719 23.0372 147.612 23.0372C148.506 23.0372 149.64 22.5945 149.64 21.5693C149.64 19.3945 144.638 20.2955 144.638 16.5207C144.638 13.9731 146.61 13.041 148.622 13.041C149.601 13.041 150.517 13.1731 151.348 13.4527L151.139 15.3323Z" fill="white"/>
<path d="M155.279 15.0369H152.118V13.2427H160.724V15.0369H157.563V24.6447H155.279V15.0369Z" fill="white"/>
<path d="M159.637 13.2427H162.083L165.012 22.1903H165.05L167.94 13.2427H170.208L166.363 24.6447H163.559L159.637 13.2427Z" fill="white"/>
<path d="M176.825 13.0483C180.405 13.0483 182.409 15.4717 182.409 18.9125C182.409 22.3533 180.429 24.8387 176.825 24.8387C173.221 24.8387 171.24 22.4077 171.24 18.9125C171.24 15.4173 173.197 13.0483 176.825 13.0483ZM176.825 23.0446C179.163 23.0446 180.025 20.9707 180.025 18.9125C180.025 16.8542 179.093 14.8425 176.825 14.8425C174.557 14.8425 173.625 16.9008 173.625 18.9125C173.625 20.9241 174.487 23.0446 176.825 23.0446Z" fill="white"/>
<path d="M67.3486 28.249H69.6322V33.15L73.7487 28.249H76.5604L71.8768 33.6238L76.7545 39.6511H73.7642L69.671 34.3617H69.6322V39.6511H67.3486V28.249Z" fill="white"/>
<path d="M78.1601 28.249H80.4436V34.8277C80.4436 36.7695 81.065 38.0433 82.8125 38.0433C84.5601 38.0433 85.1737 36.7695 85.1737 34.8277V28.249H87.4572V35.5345C87.4572 38.587 85.7252 39.8453 82.8048 39.8453C79.8844 39.8453 78.1445 38.587 78.1445 35.5345V28.249H78.1601Z" fill="white"/>
<path d="M90.7266 28.249H93.0101V37.8569H97.3053V39.6511H90.7266V28.249Z" fill="white"/>
<path d="M99.2247 30.0432H96.0713V28.249H104.677V30.0432H101.516V39.6511H99.2247V30.0432Z" fill="white"/>
<path d="M106.044 28.249H108.327V34.8277C108.327 36.7695 108.941 38.0433 110.689 38.0433C112.436 38.0433 113.058 36.7695 113.058 34.8277V28.249H115.341V35.5345C115.341 38.587 113.609 39.8453 110.681 39.8453C107.753 39.8453 106.028 38.587 106.028 35.5345V28.249H106.044Z" fill="white"/>
<path d="M118.502 28.2487H120.972C123.419 28.2487 126.347 28.171 126.347 31.3322C126.347 32.6759 125.446 33.7866 123.993 33.9808V34.0119C124.615 34.0585 124.972 34.6798 125.205 35.1847L127.038 39.643H124.49L123.123 36.0857C122.797 35.2313 122.502 34.9129 121.539 34.9129H120.809V39.6508H118.525V28.2487H118.502ZM120.785 33.1187H121.531C122.657 33.1187 123.947 32.9555 123.947 31.5342C123.947 30.1128 122.673 30.0507 121.531 30.0507H120.785V33.1264V33.1187Z" fill="white"/>
<path d="M131.1 35.1384L126.937 28.249H129.616L132.319 33.0335L135.061 28.249H137.476L133.391 35.1384V39.6511H131.1V35.1384Z" fill="white"/>
<path d="M52.7539 14.8428C47.8296 5.78644 38.3693 0.163086 28.0702 0.163086C25.7634 0.163086 23.4721 0.4427 21.2585 0.994162C9.7166 3.86798 1.21943 13.7632 0.124276 25.6002C0.0466052 26.4624 0 27.3401 0 28.2177C0 37.6703 4.7146 46.4237 12.6137 51.6432C17.204 54.6724 22.5478 56.2801 28.0702 56.2801C39.2392 56.2801 49.3442 49.6626 53.8103 39.4256C55.3559 35.8838 56.1404 32.1168 56.1404 28.2255C56.1404 23.5575 54.9675 18.9283 52.7539 14.8506M52.0782 38.6722C47.915 48.2257 38.4936 54.3927 28.0702 54.3927C22.9206 54.3927 17.9342 52.8937 13.6545 50.0743C6.29134 45.2043 1.88739 37.0411 1.88739 28.2255C1.88739 27.41 1.92624 26.5866 1.99614 25.7866C3.02139 14.7419 10.9438 5.52236 21.709 2.83496C23.775 2.32233 25.9109 2.05825 28.0624 2.05825C37.6703 2.05825 46.4937 7.30879 51.084 15.7516C53.1501 19.5575 54.2452 23.8682 54.2452 28.2255C54.2452 31.8605 53.5151 35.3712 52.0782 38.6722Z" fill="white"/>
<path d="M40.6064 36.9089C39.1927 38.9361 37.3286 40.5594 35.2082 41.6779L32.2412 36.0079C30.9519 36.6836 29.5615 37.0254 28.0936 37.0254C23.1615 37.0254 19.1459 33.0098 19.1459 28.0777L19.2003 27.068L17.6003 26.8894C17.5537 27.301 17.5226 27.7204 17.5226 28.1476C17.5226 33.1108 21.0644 37.3671 25.9344 38.2604L25.6004 43.2235C25.111 43.1381 24.6295 43.0293 24.1557 42.9051C23.977 42.8585 23.7984 42.7886 23.6197 42.7342C23.3324 42.641 23.045 42.5555 22.7576 42.4546C22.5557 42.3769 22.3692 42.2837 22.1673 42.1983C21.911 42.0895 21.6625 41.9885 21.4139 41.872C21.212 41.7711 21.0256 41.6623 20.8314 41.5536C20.5984 41.4293 20.3653 41.305 20.1401 41.1652C19.9459 41.0487 19.7673 40.9167 19.5887 40.7924C19.3712 40.6448 19.1537 40.505 18.944 40.3497C18.7653 40.2177 18.5945 40.0623 18.4236 39.9225C18.2217 39.7594 18.0197 39.5963 17.8255 39.4254C17.6547 39.2701 17.4993 39.107 17.344 38.9439C17.1653 38.7652 16.9789 38.5866 16.8003 38.3924C16.6449 38.2215 16.5051 38.0429 16.3575 37.8642C16.2255 37.7011 16.0779 37.5458 15.9536 37.3749L13.973 38.2759C12.5594 36.2953 11.674 34.2137 11.2391 31.9613C11.0294 30.8506 10.9206 29.6933 10.9206 28.4816C10.9206 21.3359 15.4022 14.796 22.0741 12.2174L22.6799 13.7863C16.8003 15.9999 12.606 21.6777 12.606 28.3185C12.606 30.3379 12.9323 32.1554 13.6857 34.004L13.9964 33.903L16.3343 33.1574C15.7207 31.635 15.3944 29.9651 15.3944 28.3107C15.3944 21.3903 20.9401 15.7436 27.8295 15.5805C27.9383 15.5805 28.0392 15.5728 28.1402 15.5728C32.2334 15.5728 36.1014 17.5611 38.4937 20.8854L40.8005 19.3087L45.5151 15.9844C41.5306 10.3455 35.0296 6.97461 28.1324 6.97461C16.4042 6.97461 6.86621 16.5126 6.86621 28.2331C6.86621 29.7787 7.02932 31.3166 7.35554 32.8079C9.47595 42.4779 18.2139 49.4915 28.1324 49.4915C35.084 49.4915 41.6161 46.0818 45.6006 40.373L40.6374 36.9167L40.6064 36.9089Z" fill="white"/>
</svg>
