<?xml version="1.0" encoding="UTF-8"?>
<svg id="Layer_1" data-name="Layer 1" xmlns="http://www.w3.org/2000/svg" viewBox="0 0 450.18737 188.85612">
  <path d="m72.48591,153.75868c-.17068-1.23078.6917-2.36248,1.92203-2.52301,1.22997-.17194,2.35287.69036,2.52435,1.92122.17059,1.22288-.6926,2.36239-1.92212,2.52562-.09908.01661-.19871.02542-.30659.02542-1.10403,0-2.06505-.82636-2.21767-1.94925m10.83368.63771c-1.19476-.34909-1.87865-1.59837-1.52732-2.78352.35052-1.19485,1.59882-1.8773,2.78487-1.52822,1.19485.35008,1.87649,1.60017,1.52687,2.78442-.28818.98078-1.18649,1.61858-2.15667,1.61858-.20571,0-.42113-.02722-.62774-.09127m7.15059-3.70987c-1.08696-.61848-1.45536-1.98528-.84478-3.06343.61014-1.07726,1.98564-1.45536,3.06334-.84307,1.07816.61849,1.45536,1.98528.83561,3.06343-.41322.72718-1.16808,1.13951-1.94925,1.13951-.37765,0-.75494-.09908-1.10493-.29644m-25.54844-.47637c-.96982-.77111-1.1317-2.19054-.36013-3.15291.77372-.97818,2.1927-1.1308,3.16297-.35789.97027.77111,1.12289,2.18264.34953,3.15282-.43946.55713-1.09523.84307-1.751.84307-.49479,0-.98779-.15262-1.40137-.48509m104.7888-2.54142c-1.24003-.11759-2.13835-1.21327-2.0125-2.45195.11669-1.23169,1.21192-2.1379,2.4515-2.0133h-.00791c1.23869.11669,2.137,1.21407,2.02121,2.45366-.10879,1.15892-1.08687,2.02121-2.22773,2.02121-.07196,0-.15271,0-.22458-.00961m-30.00408-4.16001c-.14346-1.23958.73689-2.35278,1.97647-2.48698,1.23078-.14481,2.34442.73689,2.48743,1.96587.14472,1.23087-.74569,2.34496-1.97557,2.48968-.08947.00791-.17068.01671-.26015.01671-1.12289,0-2.09307-.84307-2.22818-1.98528m19.89804,1.41943c-1.15892-.43955-1.73483-1.74138-1.28567-2.90021.4408-1.15892,1.74354-1.73528,2.90246-1.28612,1.15883.44044,1.73384,1.74398,1.28468,2.9029-.34163.88951-1.19476,1.43605-2.09307,1.43605-.26976,0-.53908-.04474-.80839-.15262m-62.83731-1.38341c-.76456-.97907-.59307-2.3888.38637-3.15291.97818-.7623,2.38925-.59306,3.15201.38601.76456.98078.59397,2.38961-.38556,3.15461-.41314.31315-.89787.47458-1.38296.47458-.66583,0-1.32951-.29653-1.76986-.86229m52.58736-2.10987c-.47638-1.14221.07196-2.46246,1.22072-2.92824,1.14176-.47638,2.46246.07187,2.92958,1.22027.47503,1.14212-.07196,2.46156-1.22198,2.93003-.27812.11669-.56585.16933-.85313.16933-.88035,0-1.72476-.52111-2.0752-1.39139m26.30248-.63771c-.94395-.80974-1.05184-2.22917-.24255-3.17222.80884-.94215,2.21812-1.05094,3.16207-.2412.9435.80705,1.05139,2.22647.2518,3.16072v.0088c-.44916.5123-1.07906.78162-1.70671.78162-.52111,0-1.04223-.17894-1.46461-.53773m7.82468-4.78811c-.01006-1.23958.98779-2.25459,2.22737-2.2642,1.24003-.0097,2.25414.98869,2.2642,2.22817.01761,1.23878-.98033,2.24579-2.21992,2.2634h-.01707c-1.23958,0-2.23698-.99659-2.25459-2.22737m9.90734-.2527c-.45742-1.14921.09962-2.45105,1.24974-2.91952,1.14877-.45707,2.46022.10007,2.91952,1.2501.46712,1.14841-.08992,2.45986-1.24003,2.91952-.27857.10708-.5566.16143-.83516.16143-.89831,0-1.73393-.52983-2.09406-1.41152m-141.38498.29653h0c-1.07771-.60969-1.46416-1.97647-.84522-3.06334.60178-1.07735,1.97728-1.45545,3.05499-.84307,1.07816.60968,1.45545,1.98519.85358,3.06334-.42239.72637-1.17769,1.1396-1.95931,1.1396-.3772,0-.75449-.09917-1.10403-.29653m72.4942-.08857c-1.08696-.60178-1.47422-1.96857-.87244-3.05553.60268-1.07816,1.96812-1.47207,3.05508-.8702,1.08687.60178,1.47243,1.97647.87065,3.05373-.41322.74479-1.17598,1.15793-1.96641,1.15793-.3684,0-.73689-.08948-1.08687-.28593m-27.25479-2.84757h0c-.09908-1.23958.82645-2.31774,2.06594-2.41773,1.23087-.09827,2.31774.82637,2.41557,2.05714.09953,1.23959-.82546,2.31855-2.06505,2.41773-.06405.0088-.11714.0088-.18074.0088-1.15883,0-2.137-.89042-2.23573-2.06594m18.4054,1.24739c-1.22072-.22458-2.02956-1.3913-1.80498-2.61418.22458-1.22027,1.39176-2.02911,2.61428-1.80454,1.22198.22458,2.03037,1.39131,1.80579,2.61419-.19781,1.07816-1.14086,1.84136-2.20976,1.84136-.13511,0-.26976-.00871-.40532-.03683m85.74524-4.12218c-1.01546-.71847-1.24884-2.12128-.53037-3.12748.71892-1.01501,2.12038-1.2562,3.13539-.53773,1.0062.72638,1.2483,2.1291.52111,3.1353-.43119.61849-1.12289.94305-1.82385.94305-.45796,0-.90712-.13592-1.30229-.41314m-157.67224-.48518c-.89831-.86229-.93434-2.28172-.08121-3.18003.85268-.89831,2.27301-.93434,3.17132-.08076.89831.85358.93425,2.27211.07986,3.18012-.4391.45786-1.03216.69036-1.62514.69036-.55705,0-1.11373-.19646-1.54483-.60969m164.31043-6.397c-.65577-1.05884-.33202-2.44224.71892-3.09936,1.05974-.65442,2.44315-.33247,3.09892.71847.65577,1.05184.33166,2.44494-.72764,3.09937-.36804.22458-.77336.34127-1.17643.34127-.75575,0-1.49138-.3772-1.91377-1.05975m2.08436-9.62876h0c-.14472-1.23078.74524-2.34578,1.97602-2.48968,1.23087-.13331,2.34496.74569,2.48752,1.97647v.00881c.13556,1.23078-.74479,2.33697-1.98528,2.48088-.07977.00871-.16969.01661-.25045.01661-1.13295,0-2.10233-.85357-2.22782-1.99308m-179.24977.45786h0c-.70967-1.01491-.46712-2.41772.55705-3.13619,1.01501-.70967,2.40632-.45707,3.11607.55713h.01006c.70967,1.01492.45796,2.41773-.55705,3.1274-.39526.27721-.84442.40262-1.28567.40262-.70967,0-1.40928-.33067-1.84047-.95096m-8.13002-3.32475h0c-1.08696-.59307-1.49093-1.95716-.89831-3.04412.60223-1.09567,1.96767-1.49139,3.05463-.89831,1.08696.60178,1.48213,1.96596.88825,3.05283-.41322.74569-1.17598,1.16943-1.97521,1.16943-.35969,0-.72764-.09127-1.06935-.27983m192.75171-2.79232c-.33247-1.19485.3772-2.42563,1.57205-2.7581v.0079c1.19485-.33255,2.43443.37721,2.75684,1.57205.33336,1.19476-.37729,2.42645-1.57205,2.75891-.197.05264-.40316.08076-.59217.08076-.98779,0-1.89535-.65712-2.16467-1.66152m-200.62077-4.69954v.00881c-.66493-1.05094-.35133-2.43443.69179-3.09802,1.05004-.66502,2.43345-.35924,3.09892.6917h.00826c.65667,1.04214.35142,2.43434-.69961,3.09892-.3684.23373-.79168.34962-1.19476.34962-.74569,0-1.47431-.36848-1.90461-1.05103m207.76211-1.25754c-1.07771-.60178-1.46497-1.97557-.86319-3.05328.61184-1.07906,1.97737-1.46461,3.06334-.86238,1.07861.60977,1.46461,1.97602.86194,3.06298h-.00791c-.40523.73563-1.16763,1.14921-1.95806,1.14921-.3684,0-.7456-.09828-1.09612-.29653m8.08528-3.47658c-1.07816-.60177-1.46496-1.97557-.86319-3.05328.61139-1.07906,1.97647-1.46416,3.06254-.86238,1.07897.60969,1.46497,1.97602.8623,3.06298h-.00791c-.40523.73599-1.16763,1.14921-1.95806,1.14921-.3684,0-.7456-.09783-1.09567-.29654m2.69494-8.08483c-1.07816-.60177-1.46496-1.97557-.86319-3.05328.61139-1.07906,1.97647-1.46416,3.06254-.86238,1.07897.60969,1.46497,1.97602.8623,3.06298h-.00791c-.40523.73599-1.16763,1.14921-1.95806,1.14921-.3684,0-.7456-.09783-1.09567-.29654m-223.48307,4.18633h0c-.61975-1.0681-.26051-2.4436.80759-3.0726,1.07897-.61894,2.45321-.26015,3.07215.80965.6299,1.06899.26051,2.4515-.8075,3.07214-.35924.20661-.74569.30445-1.1317.30445-.77291,0-1.51851-.39436-1.94054-1.11364m2.12919-8.07522c-1.10493-.54789-1.57205-1.89536-1.02516-3.01034.54878-1.11274,1.89625-1.57205,3.01034-1.02282,1.11283.54779,1.57205,1.8852,1.02381,3.0081-.38601.79088-1.18649,1.24965-2.01294,1.24965-.34037,0-.67374-.07196-.99605-.22458m214.40074-1.31154c-.98957-.7456-1.19485-2.15587-.44916-3.1441.74569-.99695,2.15453-1.19476,3.15282-.44916h-.00871c.9966.74568,1.19485,2.15506.44916,3.1441-.44044.59217-1.11418.89831-1.79663.89831-.46757,0-.94305-.14382-1.34747-.44916m-216.48519-7.48296c-.8711-.88125-.8711-2.30859.00925-3.18012.8711-.87199,2.29978-.87199,3.17087.00925.87945.8702.87155,2.29888,0,3.17087-.43999.43946-1.01501.65487-1.59092.65487-.57375,0-1.14877-.21542-1.58921-.65487m210.73607-1.41943c-.51321-1.1317-.01797-2.46121,1.11364-2.98313,1.12289-.51185,2.4515-.01715,2.97261,1.10574.51276,1.13215.01886,2.46075-1.10403,2.98142-.30525.136-.61975.20787-.93425.20787-.85358,0-1.67078-.49434-2.04798-1.3119m-7.27644.37765c-1.23078-.18075-2.08436-1.32071-1.90452-2.54232.16969-1.23169,1.31145-2.08526,2.54223-1.90542,1.22072.1715,2.0752,1.31154,1.90461,2.53397-.16277,1.12289-1.12289,1.93048-2.22782,1.93048-.09917,0-.20661-.00881-.3145-.01671m-9.19901-2.65901h0c-1.23949-.03593-2.21857-1.07025-2.18255-2.30058.03593-1.24795,1.05965-2.21903,2.30759-2.19099h-.00835c1.24003.03557,2.22827,1.0681,2.19234,2.30858-.03602,1.21282-1.03342,2.183-2.24579,2.183h-.06324Zm-10.3573-1.62685c-.84442-.90749-.79043-2.32691.12585-3.17042.90712-.84523,2.32646-.79044,3.16997.12585.84522.90623.78252,2.32566-.12505,3.17088-.432.39436-.97898.59306-1.52687.59306-.60223,0-1.20401-.24344-1.64392-.71936m-191.02659-1.59837c-.86238-.89831-.84442-2.31774.04474-3.18003.88951-.86238,2.31765-.84523,3.18003.04519.86238.88906.84352,2.30848-.04474,3.17078-.44035.43037-1.0062.6378-1.56325.6378-.59307,0-1.17778-.22458-1.61679-.67374m148.47242-1.92338c-.7536-.98689-.56495-2.39841.42329-3.1441.97898-.75441,2.38916-.56585,3.1441.42328.7544.97899.56576,2.38881-.42329,3.1441-.40316.31451-.88825.45833-1.35538.45833-.68299,0-1.34747-.29644-1.78872-.88161m8.93006-3.07215c-.96102-.78162-1.10583-2.2006-.3242-3.16126h.0097c.78073-.96192,2.20015-1.09657,3.15327-.31531.96021.79079,1.10403,2.20104.3145,3.16333-.44125.53782-1.08687.82645-1.73384.82645-.50404,0-1.00629-.17194-1.41943-.51321m27.17403-1.35538h0c-.6926-1.02426-.43209-2.41728.60178-3.11733,1.02336-.70051,2.41683-.43209,3.11643.59297.7014,1.03216.43209,2.42438-.60088,3.12524-.38646.26141-.81845.38646-1.25755.38646-.71982,0-1.42949-.34963-1.85978-.98734M.7374,61.94191c-.91637-.82637-.98824-2.24579-.16188-3.17087.83561-.91538,2.25495-.98824,3.17132-.15262.92419.82636.99605,2.24579.16134,3.17086-.4399.48509-1.05094.73734-1.66152.73734-.53908,0-1.07816-.18865-1.50926-.58471m7.79746.10788c-1.02417-.70086-1.28468-2.10097-.57501-3.12524h-.00925c.70976-1.01581,2.11032-1.27641,3.12614-.5759,1.02426.70975,1.27597,2.10197.5751,3.12703-.43209.629-1.14176.97018-1.85152.97018-.43901,0-.87945-.12675-1.26546-.39608m157.71707-2.05714h0c-.13466-1.23868.75351-2.3445,1.99399-2.47037,1.22988-.13375,2.33571.76456,2.47037,1.99445.12585,1.23033-.76321,2.33616-1.99399,2.47037-.08121.00961-.16188.00961-.24263.00961-1.13206,0-2.11194-.85313-2.22773-2.00406m-19.49451.30526c-.73563-.99614-.52992-2.40632.46802-3.1441.9974-.73555,2.40766-.52983,3.1441.46802.73689.99659.52983,2.40676-.46802,3.1441-.40307.29653-.87029.44044-1.33741.44044-.6838,0-1.36544-.31541-1.80669-.90847m36.31986-2.2537c-.18856-1.23159.65487-2.37163,1.87739-2.56028,1.23078-.18856,2.37074.65495,2.55939,1.87739.18865,1.22117-.65487,2.37082-1.87649,2.55939-.11705.01886-.23374.02812-.34163.02812-1.09576,0-2.04888-.79969-2.21866-1.90462m-7.99491-1.10483v-.01015c-.86229-.88816-.84433-2.3076.04393-3.16998.89831-.86228,2.31765-.84432,3.18003.054.86238.88035.84522,2.30849-.04384,3.17087-.44125.42239-1.0062.63771-1.56415.629-.59217,0-1.17598-.22458-1.61598-.67374m-159.90006-2.1388c-.34163-1.19485.35007-2.43479,1.54402-2.77606,1.18694-.34918,2.43524.34127,2.77696,1.53603.34127,1.19485-.35043,2.43443-1.53612,2.77615-.20697.06269-.42329.09073-.6202.09073-.97898,0-1.8773-.64697-2.16467-1.62685m125.34171-1.79663h0c-.86229-.89831-.83516-2.31774.06315-3.18003.88825-.85277,2.31729-.82681,3.16997.07151.86238.8895.83651,2.31765-.0618,3.17122-.44035.42204-.99749.62991-1.55453.62991-.59253,0-1.17634-.23383-1.61679-.6926m25.60198-2.13835c-.13556-1.23033.76276-2.33436,1.99444-2.46022,1.23869-.13466,2.34451.76366,2.47037,2.00314.12549,1.23088-.77282,2.33491-2.00315,2.46121-.08121.00915-.15271.00915-.23473.00915-1.1308,0-2.11023-.85438-2.22692-2.0133m-132.29574-.82636c-.74479-.98734-.54698-2.39842.44125-3.1441.98824-.74569,2.3985-.55705,3.1441.43209.74569.99614.54788,2.40757-.44125,3.15327-.40307.30443-.87945.44916-1.34747.44916-.68164,0-1.35538-.3057-1.79663-.89041m107.66404-4.41963c-.88125-.87945-.87155-2.29887.0088-3.17086.88071-.87945,2.29969-.87155,3.17123.00961.87945.87953.87119,2.29887-.00916,3.18012-.43999.43029-1.00575.64697-1.58175.64697-.57411,0-1.14877-.21668-1.58912-.66584m-99.61513-1.32861c-.65487-1.05093-.33121-2.43443.71982-3.0902,1.05965-.65567,2.44315-.33327,3.09802.72684.64786,1.05183.32456,2.43533-.72683,3.091-.36804.22458-.78117.33256-1.18649.33256-.74569,0-1.48123-.37729-1.90452-1.0602m85.77192-2.49713c-.97898-.76456-1.14957-2.17428-.38592-3.15336.76321-.97988,2.17383-1.14957,3.15282-.38726.97027.76456,1.15011,2.17428.38646,3.15416-.44125.56586-1.10493.86238-1.76986.86238-.48518,0-.97027-.15262-1.38349-.47592m-67.67887-5.54296c-.85358-.89831-.81765-2.32655.08067-3.17968.89831-.85359,2.31774-.81756,3.17132.08076.85313.89831.8172,2.31774-.08112,3.18003-.43119.41322-.98779.60969-1.54483.60969-.59397,0-1.18569-.23249-1.62604-.6908m60.10643.07196c-1.12289-.52992-1.59927-1.86858-1.06944-2.99148.53037-1.12289,1.86858-1.59973,2.99148-1.0698,1.12289.53028,1.59927,1.86858,1.06935,2.99147-.38637.80921-1.18605,1.28469-2.03127,1.28469-.32241,0-.64607-.07107-.96012-.21488m-53.14449-5.94658c-.20751-1.22288.61894-2.3817,1.84137-2.58742,1.22207-.20751,2.38089.61885,2.58751,1.84971.20661,1.22244-.61984,2.38126-1.84182,2.57906-.12549.02678-.25135.03603-.3772.03603-1.07816,0-2.03001-.78253-2.20985-1.87739m22.38592-.39652c-.53908-1.12289-.0627-2.46022,1.05094-3.0002,1.12289-.52901,2.46165-.05308,3.00073,1.0602.52893,1.12289.0627,2.46111-1.06019,2.99103-.3154.15307-.6378.22458-.97027.22458-.83516,0-1.63475-.46587-2.02121-1.27561m-6.66541-3.40461c-.78162-.96021-.6378-2.37955.33247-3.16081.96021-.78162,2.37128-.62901,3.15291.33211.78162.97018.63771,2.37955-.3242,3.16117-.42149.33246-.92419.50395-1.41934.50395-.65487,0-1.30148-.28728-1.74183-.83642m-9.32442-1.53612c-.3057-1.20357.42194-2.42518,1.62604-2.73088,1.20266-.30526,2.42518.42328,2.73088,1.62685.30534,1.2041-.43119,2.42562-1.62595,2.73097-.18865.04519-.36849.07187-.55713.07187-1.0062,0-1.91323-.68335-2.17383-1.6988m32.01568.36058h0c-.69134-1.03432-.42203-2.42654.61014-3.11734,1.02507-.6926,2.42644-.42328,3.11823.61104.6917,1.02282.42194,2.41548-.61193,3.11599-.3763.2527-.81675.3772-1.24794.3772-.72764,0-1.42814-.34119-1.8685-.98689m-7.38397-.16189c-1.10484-.56665-1.53603-1.92337-.97018-3.0274.56576-1.10574,1.92248-1.53612,3.01816-.97027,1.10493.5663,1.54528,1.92167.96937,3.02741h.01015c-.40442.77156-1.18614,1.22072-2.00324,1.22072-.34172,0-.70185-.08068-1.02426-.25046" fill="#e52532" stroke-width="0"/>
  <path d="m34.41451,157.23265c-3.59586,0-7.1514-1.66422-9.4253-4.79781-3.77436-5.20385-2.62209-12.47724,2.57394-16.26085l57.45964-41.74272L27.56315,52.67939c-5.19603-3.77445-6.3483-11.0561-2.57394-16.26004,3.7749-5.19514,11.05655-6.34875,16.26049-2.57385l70.41639,51.16882c3.01205,2.19181,4.79772,5.69083,4.79772,9.41695,0,3.72657-1.78567,7.22515-4.79772,9.4174l-70.41639,51.16012c-2.06944,1.50099-4.46435,2.22387-6.83519,2.22387" fill="#213973" stroke-width="0"/>
  <path d="m131.72331,188.85612c-4.903,0-9.46563-3.12569-11.06437-8.0454l-16.17982-49.78893c-1.98869-6.11276,1.36373-12.6799,7.47694-14.66078,6.11276-1.98877,12.68034,1.35628,14.66122,7.46905l16.17973,49.78803c1.98043,6.11276-1.36373,12.6799-7.47775,14.66077-1.19305.39041-2.402.57726-3.59595.57726" fill="#e52532" stroke-width="0"/>
  <path d="m191.87277,106.06642h-52.34571c-6.42906,0-11.64037-5.21229-11.64037-11.64171,0-6.42116,5.2113-11.63336,11.64037-11.63336h52.34571c6.42942,0,11.64117,5.2122,11.64117,11.63336,0,6.42942-5.21175,11.64171-11.64117,11.64171" fill="#e52532" stroke-width="0"/>
  <path d="m115.55238,73.06826c-1.19394,0-2.40281-.18694-3.59586-.56765-6.12112-1.99004-9.46653-8.55636-7.47784-14.66957l16.17982-49.78803c1.9887-6.11321,8.55636-9.45773,14.66123-7.46895,6.11312,1.98078,9.45772,8.54846,7.47685,14.66158l-16.17972,49.78722c-1.59883,4.92016-6.16146,8.0454-11.06446,8.0454" fill="#e52532" stroke-width="0"/>
  <polygon points="266.79431 38.45547 266.79431 58.8588 257.32517 58.8588 257.32517 22.44588 266.35566 22.44588 281.34018 42.94614 281.34018 22.44588 290.81022 22.44588 290.81022 58.8588 281.77964 58.8588 266.79431 38.45547" fill="#213973" stroke-width="0"/>
  <path d="m310.38711,56.46695c-1.46407,1.7571-3.80723,3.22127-7.22416,3.22127-5.17322,0-8.2972-3.26951-8.2972-7.66326,0-4.19774,3.12398-7.61421,8.68841-7.61421,2.68443,0,4.73457.6829,6.14959,1.70842v-.97638c0-3.46561-1.90362-4.44109-5.27149-4.44109-1.41503,0-3.12389.24344-6.00398.82897l-.09738-6.93032c3.0266-.58687,5.02761-.78162,8.10244-.78162,7.76108,0,11.90968,3.61212,11.90968,9.27438v15.76615h-7.95593v-2.3923Zm0-25.47963h-6.97946l3.66081-7.17511h10.0552l-6.73655,7.17511Zm-.63421,20.89112c0-1.56109-1.12289-2.87919-2.97746-2.87919-1.90362,0-3.12389,1.3181-3.12389,2.87919,0,1.70842,1.22027,3.12434,3.12389,3.12434,1.80633,0,2.97746-1.31765,2.97746-3.12434" fill="#213973" stroke-width="0"/>
  <path d="m331.61772,58.8588h-8.68833v-24.40542h8.24977v5.46625c.73159-1.80544,3.36778-5.71059,7.07773-5.71059h.8781v9.51747c-.39041-.14607-1.02462-.19475-1.56154-.19475-3.66081,0-5.95573,2.05102-5.95573,3.56344v11.76361Z" fill="#213973" stroke-width="0"/>
  <path d="m370.38565,46.65609c0,7.56552-6.24787,13.3256-14.59411,13.3256-8.298,0-14.59501-5.76009-14.59501-13.3256s6.29701-13.3256,14.59501-13.3256c8.34624,0,14.59411,5.76009,14.59411,13.3256m-20.20769,0c0,3.36778,2.44055,5.85791,5.61357,5.85791,3.17213,0,5.66181-2.49013,5.66181-5.85791,0-3.27085-2.48968-5.85791-5.66181-5.85791-3.17302,0-5.61357,2.58706-5.61357,5.85791" fill="#213973" stroke-width="0"/>
  <path d="m393.33563,55.19754c-1.95186,2.73357-5.07584,4.44244-9.02959,4.44244-6.44352,0-11.42198-5.36923-11.42198-12.78958,0-7.46769,4.97846-13.17819,11.42198-13.17819,3.46516,0,6.44263,1.51285,8.44452,3.90515v-16.79121h8.68832v38.0731h-8.10325v-3.66171Zm-6.00398-14.05764c-3.07475,0-5.46616,2.34272-5.46616,5.51664,0,3.07394,2.3914,5.51485,5.46616,5.51485,3.12398,0,5.61366-2.4409,5.61366-5.51485,0-3.12434-2.48968-5.51664-5.61366-5.51664" fill="#213973" stroke-width="0"/>
  <path d="m414.77679,58.8588h-8.68841v-24.40542h8.20063v3.17177c1.36679-1.70761,4.10036-3.7573,8.05411-3.7573,4.7829,0,8.63927,3.41603,8.63927,9.0296v15.96135h-8.63927v-13.3256c0-2.88009-1.56235-4.00208-3.70986-4.00208-1.95285,0-3.85647,1.46416-3.85647,3.56298v13.76471Z" fill="#213973" stroke-width="0"/>
  <path d="m444.13516,58.85835h-8.59014v-24.40542h8.59014v24.40542Zm-.68335-27.87103h-6.98125l3.66171-7.17466h10.05511l-6.73557,7.17466Z" fill="#213973" stroke-width="0"/>
  <path d="m265.42752,105.1426v13.52036h-8.68841v-34.8027h8.10326v3.61212c2.00108-2.73348,5.07583-4.39375,9.02967-4.39375,6.3944,0,11.4219,5.37013,11.4219,12.78958,0,7.46769-5.0275,13.17819-11.4219,13.17819-3.46516,0-6.44263-1.5124-8.44452-3.90381m5.36978-3.56388c3.12478,0,5.51528-2.34272,5.51528-5.51574,0-3.07475-2.39051-5.51574-5.51528-5.51574-3.12399,0-5.61367,2.44099-5.61367,5.51574,0,3.12434,2.48968,5.51574,5.61367,5.51574" fill="#213973" stroke-width="0"/>
  <rect x="289.03641" y="70.19302" width="8.59095" height="38.07356" fill="#213973" stroke-width="0"/>
  <path d="m316.44112,105.87427c-1.46416,1.7571-3.80733,3.22127-7.22425,3.22127-5.17322,0-8.29711-3.26951-8.29711-7.66326,0-4.19774,3.12389-7.61421,8.68841-7.61421,2.68434,0,4.73457.6829,6.14959,1.70842v-.97638c0-3.46561-1.90371-4.44109-5.27149-4.44109-1.41503,0-3.12389.24344-6.00397.82897l-.09739-6.93032c3.02651-.58687,5.0276-.78162,8.10235-.78162,7.76117,0,11.90968,3.61212,11.90968,9.27438v15.76615h-7.95584v-2.3923Zm0-25.47963h-6.97945l3.6608-7.17511h10.05511l-6.73646,7.17511Zm-.6343,20.89112c0-1.56109-1.12289-2.87919-2.97736-2.87919-1.90363,0-3.1239,1.3181-3.1239,2.87919,0,1.70842,1.22027,3.12434,3.1239,3.12434,1.80623,0,2.97736-1.31765,2.97736-3.12434" fill="#213973" stroke-width="0"/>
  <path d="m337.67172,108.26568h-8.68841v-24.40497h8.20063v3.17177c1.36679-1.70761,4.09946-3.7573,8.05411-3.7573,4.78371,0,8.63927,3.41603,8.63927,9.0296v15.9609h-8.63927v-13.32516c0-2.88009-1.56235-4.00208-3.70986-4.00208-1.95285,0-3.85647,1.46416-3.85647,3.56298v13.76426Z" fill="#213973" stroke-width="0"/>
  <path d="m285.001,145.47029c0,7.56642-6.24787,13.3265-14.59411,13.3265-8.298,0-14.59501-5.76009-14.59501-13.3265,0-7.56552,6.29701-13.3256,14.59501-13.3256,8.34624,0,14.59411,5.76009,14.59411,13.3256m-20.20769,0c0,3.36778,2.44054,5.85836,5.61357,5.85836,3.17213,0,5.66181-2.49058,5.66181-5.85836,0-3.27041-2.48968-5.85746-5.66181-5.85746-3.17303,0-5.61357,2.58706-5.61357,5.85746" fill="#213973" stroke-width="0"/>
  <path d="m305.60259,158.45373c-3.95474,0-7.0286-1.65883-9.02968-4.3915v3.61078h-8.10325v-38.07221h8.68751v16.79157c2.00279-2.39221,4.97936-3.90641,8.44542-3.90641,6.3943,0,11.4219,5.71185,11.4219,13.17909,0,7.4208-5.0276,12.78868-11.4219,12.78868m-3.07484-7.46806c3.12398,0,5.51538-2.44054,5.51538-5.51538,0-3.17303-2.3914-5.51529-5.51538-5.51529-3.12479,0-5.61357,2.39221-5.61357,5.51529,0,3.07484,2.48878,5.51538,5.61357,5.51538" fill="#213973" stroke-width="0"/>
  <path d="m329.3535,157.6739h-8.68841v-24.40632h8.20072v3.17222c1.36671-1.70716,4.09938-3.7573,8.05411-3.7573,4.78371,0,8.63927,3.41603,8.63927,9.0296v15.9618h-8.63927v-13.3265c0-2.87919-1.56244-4.00118-3.70995-4.00118-1.95276,0-3.85647,1.46416-3.85647,3.56253v13.76516Z" fill="#213973" stroke-width="0"/>
  <path d="m378.05026,145.47029c0,7.56642-6.24787,13.3265-14.59411,13.3265-8.298,0-14.59501-5.76009-14.59501-13.3265,0-7.56552,6.29701-13.3256,14.59501-13.3256,8.34624,0,14.59411,5.76009,14.59411,13.3256m-20.20769,0c0,3.36778,2.44054,5.85836,5.61357,5.85836,3.17222,0,5.66181-2.49058,5.66181-5.85836,0-3.27041-2.48959-5.85746-5.66181-5.85746-3.17303,0-5.61357,2.58706-5.61357,5.85746" fill="#213973" stroke-width="0"/>
  <polygon points="398.04657 157.6739 387.55272 157.6739 378.08269 133.26758 387.74748 133.26758 392.87335 148.78894 398.38865 133.26758 407.41833 133.26758 398.04657 157.6739" fill="#213973" stroke-width="0"/>
  <polygon points="425.48641 168.06938 416.50496 168.06938 419.92189 158.552 408.84216 133.26848 418.65257 133.26848 424.26614 148.64251 429.39111 133.26848 438.4216 133.26848 425.48641 168.06938" fill="#213973" stroke-width="0"/>
</svg>