<svg width="152" height="52" viewBox="0 0 152 52" fill="none" xmlns="http://www.w3.org/2000/svg">
<g clip-path="url(#clip0_320_652)">
<mask id="mask0_320_652" style="mask-type:luminance" maskUnits="userSpaceOnUse" x="0" y="0" width="152" height="52">
<path d="M151.994 0H0V52H151.994V0Z" fill="white"/>
</mask>
<g mask="url(#mask0_320_652)">
<path d="M145.729 31.4687H147.163C147.641 31.4687 147.675 31.17 147.675 31.0781C147.675 30.9057 147.589 30.7047 147.163 30.7047H145.729V31.4687ZM147.692 33.1289L147.675 32.9795V32.6636C147.675 32.2672 147.497 32.0948 147.099 32.0948H145.729V33.1346H144.52V30.1359H147.526C148.407 30.1359 148.856 30.3657 148.856 30.831C148.856 31.2963 148.453 31.4342 148.234 31.4629V31.6697C148.648 31.7444 148.902 31.9742 148.902 32.2902V32.8761L148.942 33.1346H147.692V33.1289ZM146.633 29.2743C143.426 29.2743 142.994 30.4691 142.994 31.6353C142.994 32.744 143.408 34.0135 146.633 34.0135C149.858 34.0135 150.243 32.6233 150.243 31.5721C150.243 30.5208 149.84 29.2685 146.668 29.2685H146.633V29.2743ZM146.391 34.6684C142.648 34.6684 142.084 32.8474 142.084 31.7617V31.5376C142.084 30.4519 142.643 28.6309 146.391 28.6309H146.904C150.6 28.6309 151.147 30.4634 151.147 31.5549V31.7674C151.147 33.1748 150.025 34.6742 146.875 34.6742H146.391V34.6684Z" fill="#262424"/>
<path d="M11.6604 22.0189C3.9847 22.0189 0.0575823 19.9337 0 15.8263H7.37629C7.62965 17.498 9.32833 18.3424 12.4205 18.3424C16.7219 18.3424 17.6029 17.5209 17.6029 16.2801C17.6029 15.0393 16.9062 14.3557 13.2267 14.2867L9.90991 14.2178C3.44918 14.0569 0.172747 12.2072 0.172747 8.72597V8.51917C0.172747 5.96283 1.47411 3.02734 11.6259 3.02734H13.0078C20.4993 3.02734 24.317 4.86561 24.3573 8.49045H17.0674C16.768 7.19791 15.2248 6.59473 12.2074 6.59473C8.6431 6.59473 7.43963 7.01983 7.43963 8.2779C7.43963 9.53596 8.57976 10.0702 11.6489 10.1334L14.9714 10.2023C23.4418 10.3747 25.0483 12.2761 25.0483 15.7286V15.9354C25.0483 18.7675 23.6894 22.0132 13.0712 22.0132H11.6489L11.6604 22.0189Z" fill="#262424"/>
<path d="M56.0043 6.7326C52.2672 6.7326 50.2057 7.8011 49.5205 10.0932L49.3996 10.4838H62.6493L62.5571 10.1104C62.0043 7.87578 59.8104 6.73835 56.033 6.73835H55.9985L56.0043 6.7326ZM55.2096 22.0189C44.0674 22.0189 42.4033 16.2629 42.4033 12.8334V12.0751C42.4033 7.95046 44.5857 3.02734 55.0023 3.02734H57.1098C65.4881 3.02734 69.7376 6.29027 69.7376 12.73V13.7065H49.2959L49.3708 14.0684C49.9005 16.6305 52.2096 17.9345 56.2403 17.9345C61.0427 17.9345 62.2462 16.3203 62.5514 15.5563H69.6225C69.3403 21.3928 60.8354 22.0247 57.1732 22.0247H55.2039L55.2096 22.0189Z" fill="#262424"/>
<path d="M85.7923 6.7326C82.0553 6.7326 79.9938 7.8011 79.3086 10.0932L79.1934 10.4838H92.4431L92.351 10.1104C91.7982 7.87578 89.6043 6.73835 85.8269 6.73835H85.7923V6.7326ZM84.9977 22.0189C73.8555 22.0189 72.1914 16.2629 72.1914 12.8334V12.0751C72.1914 7.95046 74.3795 3.02734 84.7904 3.02734H86.8979C95.2819 3.02734 99.5315 6.29027 99.5315 12.73V13.7065H79.0898L79.1646 14.0684C79.6944 16.6305 82.0034 17.9345 86.0342 17.9345C90.8366 17.9345 92.04 16.3203 92.3452 15.5563H99.4163C99.1342 21.3928 90.6293 22.0247 86.967 22.0247H84.9977V22.0189Z" fill="#262424"/>
</g>
<path d="M101.322 21.502V17.4751L114.589 7.93904H101.322V3.54443H124.027V7.39331L110.144 16.9638H124.096V21.502H101.322Z" fill="#262424"/>
<mask id="mask1_320_652" style="mask-type:luminance" maskUnits="userSpaceOnUse" x="0" y="0" width="152" height="52">
<path d="M151.994 0H0V52H151.994V0Z" fill="white"/>
</mask>
<g mask="url(#mask1_320_652)">
<path d="M129.445 27.9875V23.0702H133.499C134.299 23.0702 134.702 22.7715 134.702 22.1798C134.702 21.7891 134.472 21.3525 134.063 20.5655L125.149 3.53857H132.756L138.935 16.5099L144.935 3.53857H152L142.464 22.9093C140.645 26.6088 138.866 27.9875 135.889 27.9875H129.451H129.445Z" fill="#262424"/>
<path d="M11.6604 51.9999C3.97894 51.9999 0.0575823 49.9146 0 45.8072H7.37629C7.62965 47.4789 9.32833 48.3234 12.4205 48.3234C16.7219 48.3234 17.6029 47.5019 17.6029 46.2611C17.6029 45.0202 16.9062 44.3366 13.2267 44.2677L9.90991 44.1988C3.44918 44.0322 0.172747 42.1824 0.172747 38.7069V38.5001C0.172747 35.9438 1.47411 33.0083 11.6316 33.0083H13.0136C20.5051 33.0083 24.3228 34.8466 24.3631 38.4772H17.0732C16.7737 37.1846 15.2305 36.5757 12.2132 36.5757C8.64886 36.5757 7.44539 37.0008 7.44539 38.2589C7.44539 39.5169 8.58552 40.0512 11.6547 40.1144L14.9772 40.1833C23.4475 40.3556 25.0541 42.2571 25.0541 45.7096V45.9164C25.0541 48.7485 23.6951 51.9999 13.0769 51.9999H11.6547H11.6604Z" fill="#262424"/>
<path d="M34.267 51.4831C31.3763 51.4831 29.9713 49.8573 29.9713 46.5082V38.0292H26.3379V33.5312H29.9713V29.9868H36.9733V33.5312H40.6413V38.0292H36.9733V45.0606C36.9733 46.0085 37.1922 46.9851 38.8333 46.9851H40.6413V51.4831H34.267Z" fill="#262424"/>
<path d="M52.4631 51.8907C46.1521 51.8907 43.9121 48.0591 43.9121 44.7789V33.5195H51.0869V42.3949C51.0869 45.5257 52.9353 47.3238 56.1656 47.3238C59.6551 47.3238 62.0045 45.1753 62.0045 41.9813V33.5195H69.1101V51.4771H62.0736V47.8753L61.4286 48.4784C60.4325 49.4091 57.7779 51.8907 52.7452 51.8907H52.4688H52.4631Z" fill="#262424"/>
</g>
<path d="M111.877 33.5601H104.771V51.5176H111.877V33.5601Z" fill="#262424"/>
<mask id="mask2_320_652" style="mask-type:luminance" maskUnits="userSpaceOnUse" x="0" y="0" width="152" height="52">
<path d="M151.994 0H0V52H151.994V0Z" fill="white"/>
</mask>
<g mask="url(#mask2_320_652)">
<path d="M86.1829 37.3343C80.3556 37.3343 79.4803 40.5053 79.4803 42.3953V42.5331C79.4803 45.0723 81.5763 47.6343 86.252 47.6343H86.4305C91.302 47.6343 93.8989 45.1067 93.945 42.6021V42.3263C93.8989 39.8389 91.2789 37.3285 86.3556 37.3285H86.1771L86.1829 37.3343ZM83.7587 51.9313C76.3766 51.9313 71.9658 48.473 71.9658 42.6768V42.0219C71.9658 36.3405 76.1463 33.0776 83.4362 33.0776H84.0063C86.776 33.0776 90.6628 33.5716 93.4383 35.9384L93.945 36.3692V28.1372H101.091V51.4832H93.945V48.1513L93.4671 48.7718C92.6148 49.8632 89.5918 51.9313 84.2193 51.9313H83.7587Z" fill="#262424"/>
<path d="M34.267 21.502C31.3763 21.502 29.9713 19.8763 29.9713 16.5272V8.04817H26.3379V3.54441H29.9713V0H36.9733V3.54441H40.6413V8.04817H36.9733V15.0795C36.9733 16.0274 37.1922 17.004 38.8333 17.004H40.6413V21.502H34.267Z" fill="#262424"/>
</g>
<path d="M111.877 28.1714H104.771V31.5435H111.877V28.1714Z" fill="#262424"/>
<mask id="mask3_320_652" style="mask-type:luminance" maskUnits="userSpaceOnUse" x="0" y="0" width="152" height="52">
<path d="M151.994 0H0V52H151.994V0Z" fill="white"/>
</mask>
<g mask="url(#mask3_320_652)">
<path d="M129.071 37.334C122.996 37.334 122.092 40.4648 122.092 42.3318V42.5041C122.092 43.699 122.599 47.6053 129.106 47.6053H130.482C136.989 47.6053 137.495 43.699 137.495 42.5041V42.3318C137.495 40.4648 136.591 37.334 130.516 37.334H129.071ZM127.896 51.9999C119.138 51.9999 114.883 48.961 114.883 42.7109V42.0905C114.883 36.0644 119.259 33.0083 127.896 33.0083H131.697C140.334 33.0083 144.705 36.0644 144.705 42.0905V42.7109C144.705 48.961 140.449 51.9999 131.697 51.9999H127.896Z" fill="#262424"/>
</g>
</g>
<defs>
<clipPath id="clip0_320_652">
<rect width="152" height="52" fill="white"/>
</clipPath>
</defs>
</svg>
