<svg width="102" height="77" viewBox="0 0 102 77" fill="none" xmlns="http://www.w3.org/2000/svg">
<path d="M95.6182 77V64.174H89.2364V77H82.8545V0H101.978V77H95.5963H95.6182ZM89.2364 57.75H95.6182V6.424H89.2364V57.75ZM70.1127 77V64.174H63.7309V77H57.349V0H76.4727V77H70.0909H70.1127ZM63.7309 57.75H70.1127V6.424H63.7309V57.75ZM6.38183 77H0V32.076H6.38183V70.576H44.6291V64.152H12.7418V57.728H50.9891V76.978H6.38183V77ZM44.6291 51.326V19.25H6.38183V25.674H0V0H6.38183V12.826H19.1236V0H50.9891V6.424H25.5055V12.848H50.9891V51.348H44.6072L44.6291 51.326ZM31.8873 51.326H12.7418V25.652H38.2473V51.326H31.8654H31.8873ZM19.1455 44.902H31.8873V32.076H19.1455V44.902Z" fill="black"/>
</svg>
