<svg width="134" height="57" viewBox="0 0 134 57" fill="none" xmlns="http://www.w3.org/2000/svg">
<path d="M21.4114 45.7669C21.36 45.407 21.6171 45.0642 21.977 45.0213C22.3369 44.9699 22.6711 45.227 22.7225 45.5869C22.7739 45.9468 22.5169 46.2896 22.1569 46.3325C22.1569 46.3325 22.0969 46.3325 22.0627 46.3325C21.737 46.3325 21.4543 46.0839 21.4028 45.7583L21.4114 45.7669ZM24.6163 45.9554C24.265 45.8526 24.0593 45.4841 24.1622 45.1327C24.265 44.7814 24.6335 44.5757 24.9848 44.6786C25.3362 44.7814 25.5418 45.1499 25.439 45.5012C25.3533 45.7926 25.0877 45.9811 24.8049 45.9811C24.7449 45.9811 24.6763 45.9811 24.6163 45.9554ZM26.733 44.8585C26.4073 44.6786 26.3045 44.2758 26.4845 43.9502C26.6644 43.6331 27.0672 43.5217 27.3928 43.7017C27.7099 43.8816 27.8213 44.2844 27.6413 44.61C27.5214 44.8243 27.2985 44.9442 27.0672 44.9442C26.9558 44.9442 26.8444 44.9185 26.7415 44.8585H26.733ZM19.1834 44.7214C18.9006 44.49 18.8491 44.0701 19.0805 43.7874C19.3119 43.496 19.7318 43.4532 20.0146 43.6845C20.2974 43.9159 20.3488 44.3272 20.1174 44.6186C19.9889 44.7814 19.7918 44.8671 19.6033 44.8671C19.4576 44.8671 19.3119 44.8243 19.1919 44.7214H19.1834ZM50.1616 43.9673C49.7931 43.933 49.5275 43.6074 49.5703 43.2389C49.6046 42.879 49.9302 42.6048 50.2987 42.6476C50.6672 42.6819 50.9328 43.0075 50.8986 43.376C50.8643 43.7188 50.5729 43.9759 50.2387 43.9759C50.2387 43.9759 50.1959 43.9759 50.1702 43.9759L50.1616 43.9673ZM41.2923 42.7333C41.2495 42.3648 41.5065 42.0392 41.875 41.9964C42.2349 41.9535 42.5692 42.2106 42.612 42.5791C42.6549 42.939 42.3892 43.2732 42.0293 43.316C42.0293 43.316 41.9779 43.316 41.9521 43.316C41.6179 43.316 41.3352 43.0675 41.2923 42.7333ZM47.1795 43.1532C46.8367 43.0247 46.6653 42.6391 46.8024 42.2963C46.931 41.9535 47.3166 41.7821 47.6593 41.9192C48.0021 42.0478 48.1735 42.4334 48.0364 42.7762C47.9336 43.0418 47.6851 43.2046 47.4194 43.2046C47.3423 43.2046 47.2566 43.1875 47.1795 43.1618V43.1532ZM28.6011 42.7419C28.3783 42.4505 28.4297 42.0392 28.7125 41.8078C29.0039 41.585 29.4152 41.6365 29.6466 41.9192C29.8694 42.2106 29.8179 42.6219 29.5352 42.8533C29.4152 42.9476 29.2695 42.9904 29.1238 42.9904C28.9267 42.9904 28.7296 42.9047 28.6011 42.7333V42.7419ZM44.1459 42.1163C44.0088 41.7821 44.1631 41.3879 44.5058 41.2508C44.84 41.1137 45.2342 41.268 45.3713 41.6107C45.5085 41.9449 45.3542 42.3391 45.0114 42.4762C44.9257 42.5105 44.84 42.5277 44.7629 42.5277C44.5058 42.5277 44.2487 42.3734 44.1459 42.1163ZM51.9183 41.9278C51.6355 41.6879 51.6098 41.268 51.8498 40.9937C52.0897 40.711 52.5096 40.6853 52.7838 40.9252C53.0666 41.1651 53.0923 41.585 52.861 41.8593C52.7324 42.0135 52.5439 42.0906 52.3554 42.0906C52.2011 42.0906 52.0469 42.0392 51.9183 41.9278ZM54.2321 40.5139C54.2321 40.1454 54.5234 39.8455 54.8919 39.8455C55.2604 39.8455 55.5603 40.1368 55.5603 40.5053C55.5603 40.8738 55.2689 41.1651 54.9005 41.1737C54.532 41.1737 54.2406 40.8823 54.2321 40.5139ZM57.1628 40.4367C57.0257 40.094 57.1885 39.7083 57.5313 39.5712C57.874 39.4341 58.2596 39.5969 58.3968 39.9397C58.5339 40.2825 58.371 40.6681 58.0283 40.8052C57.9426 40.8395 57.8654 40.8566 57.7798 40.8566C57.5141 40.8566 57.2656 40.7024 57.1628 40.4367ZM15.3614 40.5224C15.0444 40.3425 14.9244 39.9397 15.1129 39.6141C15.2929 39.297 15.6956 39.1856 16.0127 39.3656C16.3298 39.5455 16.4412 39.9483 16.2612 40.2739C16.1327 40.4882 15.9099 40.6081 15.6785 40.6081C15.5671 40.6081 15.4557 40.5824 15.3529 40.5224H15.3614ZM36.7934 40.4967C36.4678 40.3168 36.3564 39.914 36.5363 39.5969C36.7163 39.2799 37.119 39.1599 37.4361 39.3399C37.7617 39.5198 37.8731 39.9226 37.6932 40.2396C37.5732 40.4624 37.3418 40.5824 37.1105 40.5824C36.9991 40.5824 36.8962 40.5567 36.7848 40.4967H36.7934ZM28.7382 39.6569C28.7125 39.2884 28.9867 38.9714 29.3466 38.9457C29.7065 38.92 30.0322 39.1942 30.0579 39.5541C30.0836 39.9226 29.8094 40.2396 29.4495 40.2654C29.4495 40.2654 29.4152 40.2654 29.398 40.2654C29.0553 40.2654 28.7639 39.9997 28.7382 39.6569ZM34.1798 40.0254C33.8198 39.9569 33.5799 39.6141 33.6484 39.2542C33.717 38.8943 34.0598 38.6543 34.4197 38.7229C34.7796 38.7914 35.0195 39.1342 34.951 39.4941C34.891 39.8112 34.6168 40.0425 34.2997 40.0425C34.2997 40.0425 34.2226 40.0425 34.1798 40.034V40.0254ZM59.5279 38.8086C59.228 38.5943 59.1594 38.183 59.3737 37.8831C59.5879 37.5831 59.9992 37.5146 60.2992 37.7203C60.5991 37.9345 60.6676 38.3458 60.4534 38.6457C60.3249 38.8257 60.1192 38.9285 59.9135 38.9285C59.7764 38.9285 59.6479 38.8857 59.5279 38.8086ZM12.9106 38.6629C12.6449 38.4058 12.6364 37.9859 12.8849 37.7203C13.1334 37.4546 13.5533 37.446 13.8189 37.6945C14.0846 37.9431 14.0932 38.363 13.8447 38.6372C13.7161 38.7743 13.5362 38.8428 13.3648 38.8428C13.202 38.8428 13.0391 38.7829 12.9106 38.6629ZM61.4903 36.7691C61.2932 36.452 61.396 36.0492 61.7045 35.8521C62.0216 35.655 62.4243 35.7579 62.6214 36.0664C62.8185 36.3749 62.7157 36.7862 62.4072 36.9833C62.2958 37.0518 62.1759 37.0861 62.0559 37.0861C61.8331 37.0861 61.6188 36.9747 61.4903 36.7691ZM62.1073 33.924C62.0645 33.5641 62.3301 33.2299 62.69 33.1871C63.0499 33.1442 63.3841 33.4099 63.427 33.7698C63.4698 34.1383 63.2042 34.4639 62.8443 34.5067C62.8443 34.5067 62.7928 34.5067 62.7671 34.5067C62.4329 34.5067 62.1416 34.2582 62.1073 33.9155V33.924ZM9.11438 34.0611C8.90871 33.7612 8.97724 33.3499 9.27717 33.1356C9.5771 32.93 9.98844 32.9985 10.2027 33.2985C10.4083 33.5984 10.3398 34.0097 10.0399 34.224C9.91988 34.3096 9.79134 34.3439 9.6628 34.3439C9.45714 34.3439 9.24292 34.2497 9.11438 34.0611ZM6.71494 33.0757C6.3893 32.9043 6.2779 32.4929 6.44929 32.1759C6.62925 31.8502 7.032 31.7388 7.34906 31.9102C7.6747 32.0902 7.78612 32.4929 7.61474 32.81C7.49477 33.0328 7.26337 33.1528 7.032 33.1528C6.92917 33.1528 6.81777 33.1271 6.71494 33.0671V33.0757ZM63.7012 32.253C63.6069 31.9017 63.8126 31.5332 64.1639 31.4389C64.5153 31.3446 64.8838 31.5503 64.978 31.9102C65.0723 32.2616 64.8666 32.6301 64.5153 32.7243C64.4553 32.7415 64.3953 32.75 64.3439 32.75C64.0525 32.75 63.7869 32.5529 63.7012 32.2616V32.253ZM4.38407 30.8648C4.18698 30.5563 4.28126 30.1449 4.58975 29.9478C4.89825 29.7507 5.30956 29.845 5.50666 30.1535C5.70375 30.462 5.6095 30.8733 5.301 31.0704C5.1896 31.139 5.06962 31.1733 4.94965 31.1733C4.72685 31.1733 4.51261 31.0619 4.38407 30.8648ZM65.8092 30.4963C65.4922 30.3163 65.3722 29.9136 65.5522 29.5965C65.7321 29.2794 66.1349 29.1595 66.4605 29.3394C66.7776 29.5194 66.8976 29.9221 66.7176 30.2478C66.5976 30.462 66.3748 30.5905 66.1349 30.5905C66.0235 30.5905 65.9121 30.5648 65.8092 30.5049V30.4963ZM68.2001 29.468C67.883 29.288 67.7631 28.8852 67.943 28.5682C68.123 28.2511 68.5257 28.1311 68.8514 28.3111C69.1684 28.4911 69.2884 28.8938 69.1085 29.2194C68.9885 29.4337 68.7657 29.5622 68.5257 29.5622C68.4143 29.5622 68.3029 29.5365 68.2001 29.4765V29.468ZM68.997 27.0771C68.68 26.8972 68.56 26.4944 68.74 26.1773C68.9199 25.8603 69.3227 25.7403 69.6483 25.9202C69.9654 26.1002 70.0854 26.503 69.9054 26.8286C69.7854 27.0428 69.5626 27.1714 69.3227 27.1714C69.2113 27.1714 69.0999 27.1457 68.997 27.0857V27.0771ZM2.9273 28.3111C2.74734 27.994 2.85017 27.5913 3.16724 27.4027C3.4843 27.2228 3.89563 27.3256 4.07559 27.6427C4.26411 27.9598 4.15271 28.3711 3.83565 28.551C3.73281 28.611 3.61283 28.6453 3.50143 28.6453C3.27006 28.6453 3.05584 28.5253 2.9273 28.3197V28.3111ZM3.55284 25.9202C3.22721 25.7574 3.09009 25.3632 3.25291 25.029C3.41573 24.7034 3.80993 24.5663 4.14413 24.7291C4.46977 24.8919 4.60688 25.2861 4.44406 25.6203C4.33266 25.8517 4.09272 25.9888 3.85278 25.9888C3.74994 25.9888 3.65568 25.9717 3.56142 25.9202H3.55284ZM66.9404 25.5346C66.649 25.3118 66.5891 24.9005 66.8119 24.6091C67.0347 24.3178 67.446 24.2578 67.7459 24.4806C68.0373 24.7034 68.0973 25.1147 67.8745 25.4061C67.7459 25.5775 67.5488 25.6717 67.3432 25.6717C67.2061 25.6717 67.0604 25.6289 66.949 25.5432L66.9404 25.5346ZM2.93585 23.3237C2.67877 23.0666 2.67877 22.6382 2.93585 22.3811C3.19293 22.124 3.61282 22.124 3.8699 22.3811C4.12699 22.6382 4.12699 23.0581 3.8699 23.3152C3.74136 23.4437 3.56999 23.5123 3.3986 23.5123C3.22721 23.5123 3.05584 23.4523 2.9273 23.3152L2.93585 23.3237ZM65.2437 22.9038C65.0894 22.5696 65.2437 22.1754 65.5693 22.0212C65.9035 21.8669 66.2977 22.0212 66.4519 22.3468C66.6062 22.681 66.452 23.0752 66.1263 23.2295C66.0321 23.2723 65.9464 23.2895 65.8521 23.2895C65.6036 23.2895 65.3551 23.1438 65.2437 22.9038ZM63.0928 23.0152C62.7329 22.9638 62.4758 22.621 62.5272 22.2611C62.5786 21.9012 62.9128 21.6441 63.2813 21.6955C63.6412 21.747 63.8983 22.0812 63.8469 22.4411C63.7955 22.7753 63.5127 23.0152 63.187 23.0152C63.187 23.0152 63.127 23.0152 63.0928 23.0152ZM60.3763 22.2268C60.0078 22.2183 59.7164 21.9098 59.7336 21.5499C59.7421 21.1814 60.0507 20.89 60.4191 20.8986C60.7876 20.9072 61.079 21.2157 61.0704 21.5841C61.0618 21.9441 60.7619 22.2268 60.4106 22.2268H60.3934H60.3763ZM57.317 21.747C57.0685 21.4813 57.0856 21.0614 57.3513 20.8129C57.6169 20.5644 58.0368 20.5815 58.2853 20.8472C58.5339 21.1128 58.5167 21.5327 58.2511 21.7812C58.1225 21.9012 57.9597 21.9526 57.7969 21.9526C57.617 21.9526 57.437 21.8841 57.3085 21.7384L57.317 21.747ZM0.83637 21.2757C0.579289 21.01 0.587849 20.5901 0.853499 20.333C1.11915 20.0759 1.53905 20.0845 1.79613 20.3502C2.05321 20.6158 2.04463 21.0357 1.77898 21.2842C1.65044 21.4128 1.47907 21.4727 1.31625 21.4727C1.14486 21.4727 0.96491 21.4042 0.83637 21.2757ZM44.7372 20.7101C44.5144 20.4187 44.5658 19.9988 44.8658 19.7846C45.1571 19.5618 45.5684 19.6132 45.7912 19.9131C46.014 20.2045 45.9626 20.6158 45.6627 20.8386C45.5427 20.9329 45.397 20.9757 45.2599 20.9757C45.0543 20.9757 44.8657 20.89 44.7286 20.7186L44.7372 20.7101ZM47.3766 19.8017C47.0938 19.5703 47.0509 19.1504 47.2823 18.8677C47.5137 18.5849 47.9336 18.542 48.2163 18.7734C48.4991 19.0048 48.542 19.4247 48.3106 19.7075C48.1821 19.8703 47.985 19.956 47.7965 19.956C47.6508 19.956 47.4965 19.9046 47.3766 19.8017ZM55.4146 19.399C55.209 19.099 55.2861 18.6877 55.5946 18.4735C55.8945 18.2678 56.3058 18.3449 56.5201 18.6449C56.7257 18.9534 56.6486 19.3647 56.3401 19.5703C56.2287 19.6475 56.1002 19.6817 55.9716 19.6817C55.7574 19.6817 55.5517 19.5789 55.4232 19.3904L55.4146 19.399ZM0.219374 18.6191C-0.0548451 18.3706 -0.0719817 17.9593 0.16796 17.6851C0.416472 17.4109 0.836367 17.3937 1.10202 17.6422C1.37624 17.8908 1.39337 18.3021 1.15343 18.5763C1.02489 18.722 0.844928 18.7905 0.664972 18.7905C0.502154 18.7905 0.347915 18.7305 0.219374 18.6191ZM2.52453 18.6534C2.22461 18.4478 2.14747 18.0279 2.35314 17.7279C2.5588 17.428 2.97869 17.3509 3.27862 17.5565C3.57854 17.7622 3.65568 18.1821 3.45001 18.482C3.32147 18.6706 3.11582 18.7648 2.90159 18.7648C2.77305 18.7648 2.64451 18.7305 2.52453 18.6449V18.6534ZM49.1504 18.045C49.1076 17.6765 49.3732 17.3509 49.7417 17.3166C50.1016 17.2738 50.4358 17.5394 50.4701 17.9079C50.5044 18.2678 50.2473 18.602 49.8788 18.6363C49.8788 18.6363 49.8274 18.6363 49.8103 18.6363C49.4761 18.6363 49.1847 18.3878 49.1504 18.045ZM43.3832 18.1393C43.169 17.8479 43.229 17.428 43.5204 17.2138C43.8117 16.9995 44.2316 17.0595 44.4458 17.3509C44.6601 17.6422 44.6001 18.0621 44.3087 18.2764C44.1888 18.3621 44.0516 18.4049 43.9145 18.4049C43.7089 18.4049 43.5118 18.3107 43.3832 18.1393ZM54.1207 17.4709C54.0607 17.1109 54.3177 16.7682 54.6777 16.7167C55.0376 16.6568 55.3803 16.9138 55.4318 17.2738C55.4917 17.6337 55.2347 17.9764 54.8748 18.0279C54.8748 18.0279 54.8062 18.0279 54.7719 18.0279C54.4463 18.0279 54.1635 17.7879 54.1121 17.4623L54.1207 17.4709ZM51.7555 17.1452C51.4984 16.8796 51.507 16.4597 51.7727 16.2026C52.0383 15.9455 52.4582 15.9541 52.7153 16.2197C52.9723 16.4768 52.9638 16.9053 52.6981 17.1538C52.5696 17.2823 52.3982 17.3423 52.2354 17.3423C52.064 17.3423 51.884 17.2738 51.7555 17.1452ZM4.47835 16.5111C4.37552 16.1597 4.58118 15.7913 4.93252 15.6884C5.28387 15.5856 5.65234 15.7913 5.75517 16.1426C5.85801 16.4939 5.65234 16.8624 5.301 16.9653C5.24101 16.9824 5.17247 16.991 5.12105 16.991C4.82969 16.991 4.56404 16.8024 4.47835 16.5111ZM41.5323 15.9798C41.2752 15.7141 41.2837 15.2942 41.5494 15.0372C41.815 14.7886 42.2349 14.7886 42.4834 15.0543C42.7405 15.3199 42.732 15.7398 42.4663 15.9884C42.3378 16.1169 42.1749 16.1769 42.0036 16.1769C41.8322 16.1769 41.6522 16.1083 41.5237 15.9712L41.5323 15.9798ZM49.099 15.3457C49.0561 14.9857 49.3218 14.6515 49.6903 14.6173C50.0588 14.5744 50.3844 14.8401 50.4187 15.2085C50.453 15.5685 50.1873 15.9027 49.8274 15.9369C49.8274 15.9369 49.7846 15.9369 49.7588 15.9369C49.4246 15.9369 49.1333 15.6884 49.099 15.3457ZM9.98844 15.0971C9.76564 14.8058 9.82562 14.3859 10.117 14.1716C10.4083 13.9488 10.8282 14.0088 11.0425 14.3002C11.2653 14.5915 11.2053 15.0114 10.9139 15.2342C10.7939 15.3285 10.6568 15.3628 10.5197 15.3628C10.3141 15.3628 10.117 15.2685 9.98844 15.0971ZM41.8236 13.7946C41.5665 13.5375 41.5665 13.1176 41.8236 12.8605C42.0807 12.6035 42.5006 12.6035 42.7577 12.8605C43.0148 13.1176 43.0148 13.5375 42.7577 13.8032C42.6291 13.9317 42.4578 13.9917 42.2864 13.9917C42.115 13.9917 41.9436 13.9317 41.815 13.7946H41.8236ZM12.3707 13.4004C12.1736 13.0919 12.2765 12.6806 12.585 12.4835C12.902 12.2864 13.3048 12.3892 13.5019 12.6977C13.6904 13.0062 13.5961 13.4175 13.2876 13.6146C13.1762 13.6832 13.0563 13.7089 12.9363 13.7089C12.7135 13.7089 12.4993 13.5975 12.3707 13.3918V13.4004ZM37.7275 12.6634C37.4361 12.4406 37.3847 12.0207 37.6161 11.7294C37.8389 11.438 38.2588 11.3866 38.5501 11.618C38.8329 11.8408 38.8929 12.2607 38.6615 12.552C38.533 12.7234 38.3359 12.8091 38.1388 12.8091C37.9931 12.8091 37.856 12.7663 37.7275 12.672V12.6634ZM17.718 11.0267C17.4695 10.761 17.4781 10.3411 17.7437 10.0841C18.0094 9.83555 18.4292 9.84412 18.6778 10.1098C18.9263 10.3754 18.9177 10.7953 18.6521 11.0524C18.5235 11.1724 18.3607 11.2324 18.1979 11.2324C18.0265 11.2324 17.8465 11.1638 17.718 11.0267ZM35.4909 11.0438C35.1567 10.8896 35.0195 10.4954 35.1738 10.1612C35.328 9.82698 35.7222 9.68987 36.0564 9.84412C36.3906 9.99837 36.5278 10.3926 36.3735 10.7268C36.2621 10.9667 36.0222 11.1038 35.7736 11.1038C35.6794 11.1038 35.5851 11.0867 35.4909 11.0438ZM19.7746 9.28711C19.7147 8.9272 19.9546 8.58443 20.3231 8.52444C20.683 8.46445 21.0258 8.7044 21.0858 9.07288C21.1458 9.43279 20.9058 9.77557 20.5373 9.83555C20.5373 9.83555 20.4602 9.84412 20.4259 9.84412C20.1088 9.84412 19.8261 9.61275 19.7746 9.28711ZM26.3902 9.16714C26.2274 8.83294 26.3731 8.43875 26.6987 8.27593C27.0329 8.12168 27.4271 8.25879 27.5899 8.593C27.7442 8.9272 27.607 9.32139 27.2728 9.47564C27.1786 9.51849 27.0843 9.54419 26.99 9.54419C26.7415 9.54419 26.5102 9.40708 26.3902 9.16714ZM24.4192 8.16453C24.1879 7.88174 24.2307 7.46184 24.5135 7.23047C24.7963 6.99909 25.2162 7.04194 25.4476 7.32473C25.6789 7.60752 25.6361 8.02742 25.3533 8.25879C25.2248 8.35305 25.0791 8.40447 24.9334 8.40447C24.7363 8.40447 24.5478 8.31878 24.4192 8.15596V8.16453ZM21.6599 7.71035C21.5656 7.35044 21.7884 6.99052 22.1398 6.90483C22.4997 6.81057 22.8596 7.03337 22.9453 7.38472C23.0396 7.74463 22.8168 8.10454 22.4654 8.19023C22.4054 8.20737 22.354 8.20737 22.3026 8.20737C22.0027 8.20737 21.737 8.00171 21.6599 7.70178V7.71035ZM31.129 7.81318C30.9234 7.50469 31.0005 7.09336 31.309 6.88769C31.6089 6.68203 32.0288 6.75915 32.2345 7.06765C32.4402 7.36758 32.363 7.77891 32.0545 7.99314C31.9431 8.07026 31.8146 8.10454 31.6861 8.10454C31.4718 8.10454 31.2662 8.00171 31.1376 7.81318H31.129ZM28.9439 7.76177C28.6182 7.59038 28.4897 7.19619 28.6611 6.87055C28.8325 6.54492 29.2266 6.41638 29.5523 6.58776C29.8779 6.75915 30.0065 7.15334 29.8351 7.47898C29.7151 7.71035 29.4837 7.83889 29.2438 7.83889C29.141 7.83889 29.0381 7.81318 28.9439 7.76177Z" fill="white"/>
<path d="M10.1516 46.7867C9.08897 46.7867 8.03494 46.2983 7.36652 45.3642C6.25251 43.8217 6.59527 41.6794 8.12918 40.5568L25.1137 28.2169L8.12918 15.877C6.59527 14.763 6.25251 12.6121 7.36652 11.0696C8.48054 9.53571 10.6314 9.19293 12.1739 10.3069L32.9889 25.4319C33.8801 26.0831 34.4114 27.1115 34.4114 28.2169C34.4114 29.3224 33.8801 30.3507 32.9889 31.002L12.1739 46.1269C11.5655 46.5725 10.8543 46.7867 10.1516 46.7867Z" fill="white"/>
<path d="M38.9184 56.1357C37.4702 56.1357 36.1162 55.2102 35.6449 53.7534L30.8632 39.0313C30.2719 37.2232 31.2659 35.2865 33.0741 34.6952C34.8822 34.1039 36.8189 35.0979 37.4102 36.9061L42.1919 51.6282C42.7746 53.4364 41.7891 55.3731 39.981 55.9643C39.6296 56.0757 39.2697 56.1357 38.9184 56.1357Z" fill="white"/>
<path d="M56.7092 31.662H41.233C39.3306 31.662 37.7881 30.1195 37.7881 28.2171C37.7881 26.3147 39.3306 24.7808 41.233 24.7808H56.7092C58.6116 24.7808 60.1541 26.3232 60.1541 28.2171C60.1541 30.1109 58.6116 31.662 56.7092 31.662Z" fill="white"/>
<path d="M34.1367 21.9098C33.7853 21.9098 33.4254 21.8584 33.0741 21.7384C31.2659 21.1472 30.2719 19.2105 30.8632 17.4023L35.6449 2.68018C36.2362 0.872044 38.1728 -0.113433 39.981 0.469284C41.7891 1.052 42.7746 2.99725 42.1919 4.80538L37.4102 19.5275C36.9388 20.9843 35.5849 21.9098 34.1367 21.9098Z" fill="white"/>
<path d="M78.8608 11.6693V17.7021H76.0586V6.93896H78.7322L83.1626 12.9975V6.93896H85.9648V17.7021H83.2911L78.8608 11.6693Z" fill="white"/>
<path d="M91.7487 16.9995C91.3116 17.5222 90.6261 17.9507 89.6149 17.9507C88.0895 17.9507 87.1641 16.9823 87.1641 15.6884C87.1641 14.3944 88.0896 13.4346 89.7349 13.4346C90.5318 13.4346 91.1317 13.6403 91.5516 13.9402V13.6488C91.5516 12.6205 90.986 12.3377 89.9919 12.3377C89.572 12.3377 89.0665 12.4063 88.2181 12.5862L88.1924 10.5382C89.0836 10.3668 89.6749 10.3068 90.5918 10.3068C92.8884 10.3068 94.1138 11.378 94.1138 13.049V17.7107H91.7572V16.9995H91.7487ZM91.7487 9.467H89.6835L90.7632 7.3418H93.7368L91.7487 9.467ZM91.5601 15.6455C91.5601 15.1828 91.2259 14.7971 90.6775 14.7971C90.1291 14.7971 89.752 15.1828 89.752 15.6455C89.752 16.1511 90.1119 16.571 90.6775 16.571C91.2431 16.571 91.5601 16.1854 91.5601 15.6455Z" fill="white"/>
<path d="M98.022 17.7019H95.4512V10.4865H97.8934V12.1061C98.1077 11.5748 98.8875 10.418 99.9843 10.418H100.241V13.2287C100.13 13.1859 99.9415 13.1687 99.7787 13.1687C98.6989 13.1687 98.022 13.7772 98.022 14.2228V17.7019Z" fill="white"/>
<path d="M109.488 14.0942C109.488 16.3309 107.637 18.0362 105.169 18.0362C102.701 18.0362 100.85 16.3309 100.85 14.0942C100.85 11.8576 102.709 10.1523 105.169 10.1523C107.628 10.1523 109.488 11.8576 109.488 14.0942ZM103.515 14.0942C103.515 15.0883 104.234 15.8253 105.177 15.8253C106.12 15.8253 106.848 15.0883 106.848 14.0942C106.848 13.1002 106.111 12.3632 105.177 12.3632C104.243 12.3632 103.515 13.1259 103.515 14.0942Z" fill="white"/>
<path d="M116.267 16.6225C115.693 17.428 114.767 17.9336 113.593 17.9336C111.691 17.9336 110.217 16.3483 110.217 14.1545C110.217 11.9608 111.691 10.2555 113.593 10.2555C114.621 10.2555 115.496 10.7011 116.087 11.4123V6.45068H118.658V17.7108H116.258V16.6311L116.267 16.6225ZM114.493 12.4664C113.585 12.4664 112.873 13.1605 112.873 14.0946C112.873 15.0286 113.585 15.7227 114.493 15.7227C115.401 15.7227 116.155 15.0029 116.155 14.0946C116.155 13.1862 115.418 12.4664 114.493 12.4664Z" fill="white"/>
<path d="M122.608 17.702H120.037V10.4866H122.462V11.4207C122.865 10.9151 123.671 10.3066 124.845 10.3066C126.258 10.3066 127.398 11.3178 127.398 12.9803V17.702H124.845V13.7601C124.845 12.9117 124.382 12.5775 123.748 12.5775C123.174 12.5775 122.608 13.0146 122.608 13.6316V17.702Z" fill="white"/>
<path d="M131.288 17.7019H128.752V10.4865H131.288V17.7019ZM131.083 9.45821H129.018L130.097 7.33301H133.071L131.083 9.45821Z" fill="white"/>
<path d="M78.4497 31.3873V35.3806H75.8789V25.0888H78.2783V26.16C78.8696 25.3544 79.778 24.8574 80.952 24.8574C82.8458 24.8574 84.3283 26.4428 84.3283 28.6365C84.3283 30.8303 82.8458 32.5356 80.952 32.5356C79.9237 32.5356 79.0496 32.09 78.4583 31.3787L78.4497 31.3873ZM80.0351 30.3332C80.9605 30.3332 81.6632 29.6391 81.6632 28.7051C81.6632 27.771 80.952 27.0769 80.0351 27.0769C79.1181 27.0769 78.3726 27.7967 78.3726 28.7051C78.3726 29.6134 79.1096 30.3332 80.0351 30.3332Z" fill="white"/>
<path d="M87.9701 32.3129H85.4336V21.0527H87.9701V32.3129Z" fill="white"/>
<path d="M93.5319 31.6015C93.0948 32.1242 92.4093 32.5527 91.3981 32.5527C89.8728 32.5527 88.9473 31.5844 88.9473 30.2904C88.9473 28.9964 89.8728 28.0367 91.5181 28.0367C92.315 28.0367 92.9149 28.2423 93.3348 28.5423V28.2509C93.3348 27.2226 92.7692 26.9398 91.7752 26.9398C91.3553 26.9398 90.8497 27.0083 90.0013 27.1883L89.9756 25.1402C90.8668 24.9688 91.4581 24.9088 92.375 24.9088C94.6716 24.9088 95.897 25.98 95.897 27.651V32.3128H93.5405V31.6015H93.5319ZM93.5319 24.0691H91.4667L92.5464 21.9438H95.52L93.5319 24.0691ZM93.3434 30.2476C93.3434 29.7848 93.0091 29.3992 92.4607 29.3992C91.9123 29.3992 91.5352 29.7848 91.5352 30.2476C91.5352 30.7532 91.8951 31.173 92.4607 31.173C93.0263 31.173 93.3434 30.7874 93.3434 30.2476Z" fill="white"/>
<path d="M99.813 32.3128H97.2422V25.0974H99.6673V26.0315C100.07 25.5259 100.876 24.9175 102.05 24.9175C103.464 24.9175 104.603 25.9287 104.603 27.5911V32.3128H102.05V28.3709C102.05 27.5226 101.587 27.1884 100.953 27.1884C100.379 27.1884 99.813 27.6254 99.813 28.2424V32.3128Z" fill="white"/>
<path d="M84.2424 43.3159C84.2424 45.5525 82.3914 47.2578 79.9234 47.2578C77.4555 47.2578 75.6045 45.5525 75.6045 43.3159C75.6045 41.0793 77.464 39.374 79.9234 39.374C82.3828 39.374 84.2424 41.0793 84.2424 43.3159ZM78.2696 43.3159C78.2696 44.31 78.9894 45.0469 79.932 45.0469C80.8746 45.0469 81.603 44.31 81.603 43.3159C81.603 42.3219 80.8661 41.5849 79.932 41.5849C78.9979 41.5849 78.2696 42.3476 78.2696 43.3159Z" fill="white"/>
<path d="M90.327 47.1551C89.1615 47.1551 88.2532 46.6666 87.6533 45.8525V46.9237H85.2539V35.6636H87.8247V40.6252C88.416 39.914 89.2986 39.4684 90.3184 39.4684C92.2122 39.4684 93.6947 41.1565 93.6947 43.3674C93.6947 45.5783 92.2122 47.1465 90.3184 47.1465L90.327 47.1551ZM89.4186 44.9442C90.3441 44.9442 91.0468 44.2244 91.0468 43.316C91.0468 42.4077 90.3356 41.6878 89.4186 41.6878C88.5017 41.6878 87.7562 42.3991 87.7562 43.316C87.7562 44.2329 88.4931 44.9442 89.4186 44.9442Z" fill="white"/>
<path d="M97.354 46.9237H94.7832V39.7083H97.2083V40.6423C97.6111 40.1367 98.4166 39.5283 99.5906 39.5283C101.005 39.5283 102.144 40.5395 102.144 42.202V46.9237H99.5906V42.9818C99.5906 42.1334 99.1279 41.7992 98.4937 41.7992C97.9196 41.7992 97.354 42.2362 97.354 42.8532V46.9237Z" fill="white"/>
<path d="M111.75 43.3159C111.75 45.5525 109.899 47.2578 107.431 47.2578C104.963 47.2578 103.112 45.5525 103.112 43.3159C103.112 41.0793 104.972 39.374 107.431 39.374C109.891 39.374 111.75 41.0793 111.75 43.3159ZM105.777 43.3159C105.777 44.31 106.497 45.0469 107.44 45.0469C108.382 45.0469 109.111 44.31 109.111 43.3159C109.111 42.3219 108.374 41.5849 107.44 41.5849C106.506 41.5849 105.777 42.3476 105.777 43.3159Z" fill="white"/>
<path d="M117.663 46.9239H114.561L111.759 39.7085H114.612L116.129 44.3017L117.757 39.7085H120.431L117.663 46.9239Z" fill="white"/>
<path d="M125.778 49.9917H123.122L124.133 47.181L120.859 39.7085H123.756L125.418 44.2503L126.935 39.7085H129.609L125.787 50.0003L125.778 49.9917Z" fill="white"/>
</svg>
