<svg width="160" height="90" viewBox="0 0 160 90" fill="none" xmlns="http://www.w3.org/2000/svg">
<path d="M10.1515 26.3922C16.5115 26.3922 20.2332 23.4539 20.2332 18.507C20.2332 12.7971 15.271 12.0252 11.1125 11.42C8.05484 10.9552 5.32038 10.5166 5.32038 8.07825C5.32038 5.93811 7.01522 4.66631 9.91566 4.66631C12.8161 4.66631 14.808 6.50823 15.0089 9.61319H19.5692C19.1062 4.21021 15.5768 1 10.1515 1C4.19341 1 0.663956 3.60501 0.663956 8.42032C0.663956 13.9022 5.35533 14.6039 9.41769 15.1653C12.6501 15.6652 15.5768 16.1038 15.5768 18.9719C15.5768 21.3138 13.6111 22.7172 10.2564 22.7172C6.90165 22.7172 4.83115 20.7437 4.53412 17.4019H0C0.463022 23.0855 4.22835 26.3922 10.1515 26.3922Z" fill="black"/>
<path d="M44.9132 16.6037H40.5188C39.8549 20.4454 37.5922 22.7171 34.2986 22.7171C30.1751 22.7171 27.7115 19.3403 27.7115 13.6917C27.7115 8.04315 30.1751 4.66629 34.2986 4.66629C37.5572 4.66629 39.8549 6.90291 40.5188 10.6832H44.9132C44.1182 4.60489 40.1868 0.991211 34.2986 0.991211C27.1785 0.991211 22.9502 5.70127 22.9502 13.6917C22.9502 21.6822 27.1785 26.3922 34.2986 26.3922C40.1868 26.3922 44.1182 22.7171 44.9132 16.6037Z" fill="black"/>
<path d="M63.8972 1.3335V11.7272H53.3438V1.3335H48.7485V26.0591H53.3438V15.3321H63.8972V26.0591H68.4925V1.3335H63.8972Z" fill="black"/>
<path d="M101.594 1.3335H92.744L87.8867 25.6557H87.8168L83.2914 1.3335H74.4415L73.5767 26.0591H77.9361L78.7048 1.73697H78.7747L83.702 26.0591H91.7219L97.0073 1.73697H97.0772L97.846 26.0591H102.441L101.611 1.3335H101.594Z" fill="black"/>
<path d="M107.482 26.0591H112.078V1.3335H107.482V26.0591Z" fill="black"/>
<path d="M117.555 26.0591H125.54C133.298 26.0591 137.884 21.4455 137.884 13.7007C137.884 5.95585 133.298 1.3335 125.54 1.3335H117.555V26.0591ZM122.15 22.4805V4.91209H125.811C130.406 4.91209 133.132 8.1837 133.132 13.7007C133.132 19.2177 130.406 22.4893 125.811 22.4893H122.15V22.4805Z" fill="black"/>
<path d="M157.864 1.3335H138.863V4.91209H146.088V26.0591H150.683V4.91209H157.873V1.3335H157.864Z" fill="black"/>
<path d="M16.7039 33.1372V43.5309H6.15924V33.1372H1.56396V57.8628H6.15924V47.1358H16.7126V57.8628H21.3079V33.1372H16.7126H16.7039Z" fill="black"/>
<path d="M42.8252 57.8628H47.7175L40.0995 33.1372H31.9835L24.3306 57.8628H28.9258L30.6207 51.881H41.1391L42.834 57.8628H42.8252ZM31.6428 48.3111L35.8712 33.5407H35.9411L40.1345 48.3111H31.6516H31.6428Z" fill="black"/>
<path d="M78.3292 33.1372H69.4794L64.622 57.4594H64.5521L60.0267 33.1372H51.1769L50.312 57.8628H54.6714L55.4402 33.5407H55.5101L60.4373 57.8628H68.4572L73.7514 33.5407H73.8213L74.5901 57.8628H79.1854L78.3554 33.1372H78.3292Z" fill="black"/>
<path d="M111.833 33.1372H102.983L98.1259 57.4594H98.056L93.5306 33.1372H84.6808L83.8159 57.8628H88.1753L88.9441 33.5407H89.014L93.9412 57.8628H101.961L107.255 33.5407H107.325L108.094 57.8628H112.689L111.859 33.1372H111.833Z" fill="black"/>
<path d="M122.317 54.2842V46.9692H133.761V43.3906H122.317V36.707H134.932V33.1284H117.73V57.854H135.299V54.2755H122.317V54.2842Z" fill="black"/>
<path d="M155.304 51.3108C154.073 49.1093 151.679 47.8375 148.979 47.8375V47.7673C154.737 47.7673 158.135 44.9606 158.135 40.1804C158.135 35.7685 154.675 33.1284 148.883 33.1284H139.334V57.854H143.93V47.8287H148.525L153.88 57.854H159.009L155.313 51.3021L155.304 51.3108ZM143.921 44.4606V36.707H149.11C151.81 36.707 153.374 38.1455 153.374 40.5137C153.374 42.8818 151.81 44.4606 149.11 44.4606H143.921Z" fill="black"/>
<path d="M6.15924 85.9564V64.9409H1.56396V89.6665H16.9747V85.9564H6.15924Z" fill="black"/>
<path d="M36.3604 89.6665H41.2527L33.6347 64.9409H25.5187L17.8657 89.6665H22.461L24.1558 83.6847H34.6743L36.3691 89.6665H36.3604ZM25.178 80.1061L29.4063 65.3356H29.4762L33.6696 80.1061H25.1867H25.178Z" fill="black"/>
<path d="M52.5314 90.0001C58.8914 90.0001 62.6131 87.0618 62.6131 82.1149C62.6131 76.405 57.6509 75.6331 53.4924 75.0279C50.4347 74.5631 47.7003 74.1245 47.7003 71.6861C47.7003 69.546 49.3951 68.2742 52.2955 68.2742C55.196 68.2742 57.1879 70.1161 57.3888 73.2211H61.9491C61.4861 67.8093 57.9566 64.5991 52.5314 64.5991C46.5733 64.5991 43.0438 67.2041 43.0438 72.0194C43.0438 77.5014 47.7352 78.203 51.7976 78.7644C55.03 79.2643 57.9566 79.7029 57.9566 82.571C57.9566 84.9129 55.991 86.3163 52.6275 86.3163C49.2641 86.3163 47.2023 84.3428 46.9053 81.001H42.3799C42.8429 86.6847 46.6082 89.9914 52.5314 89.9914V90.0001Z" fill="black"/>
<path d="M75.2194 90.0001C81.5794 90.0001 85.3011 87.0618 85.3011 82.1149C85.3011 76.405 80.3389 75.6331 76.1804 75.0279C73.1227 74.5631 70.3883 74.1245 70.3883 71.6861C70.3883 69.546 72.0831 68.2742 74.9835 68.2742C77.884 68.2742 79.8758 70.1161 80.0768 73.2211H84.6371C84.1741 67.8093 80.6446 64.5991 75.2194 64.5991C69.2613 64.5991 65.7318 67.2041 65.7318 72.0194C65.7318 77.5014 70.4232 78.203 74.4856 78.7644C77.718 79.2643 80.6446 79.7029 80.6446 82.571C80.6446 84.9129 78.679 86.3163 75.3155 86.3163C71.952 86.3163 69.8903 84.3428 69.5933 81.001H65.0679C65.5309 86.6847 69.2962 89.9914 75.2194 89.9914V90.0001Z" fill="black"/>
<path d="M93.9059 86.0879V78.7729H105.35V75.1943H93.9059V68.5107H106.521V64.9321H89.3193V89.6578H106.888V86.0792H93.9059V86.0879Z" fill="black"/>
<path d="M126.3 64.9409L126.501 89.2631H126.431L118.577 64.9409H110.924V89.6665H115.319L115.153 65.3444H115.223L123.076 89.6665H130.66V64.9409H126.3Z" fill="black"/>
</svg>
