<svg width="213" height="43" viewBox="0 0 213 43" fill="none" xmlns="http://www.w3.org/2000/svg">
<path d="M18.2539 29.1471V12.5073H27.0635V29.4347C27.0635 36.8365 21.384 41.9997 13.5618 41.9997C5.7396 41.9997 0 36.8345 0 29.3751V12.5073H8.80957V29.1471C8.80957 32.5318 10.5478 34.5404 13.5618 34.5404C16.5758 34.5404 18.256 32.5318 18.256 29.1471H18.2539Z" fill="#33261D"/>
<path d="M133.591 24.2921V41.2358H124.782V24.0045C124.782 16.6027 130.461 11.4395 138.283 11.4395C146.106 11.4395 151.843 16.6027 151.843 24.062V41.3118H143.034V24.2921C143.034 20.9074 141.295 18.8988 138.281 18.8988C135.267 18.8988 133.587 20.9074 133.587 24.2921H133.591Z" fill="#33261D"/>
<path d="M63.4966 15.9496C65.1768 13.711 68.4811 11.8174 72.4783 11.8174C80.4167 11.8174 86.8512 18.3012 86.8512 26.9086C86.8512 35.5161 80.4188 41.9999 72.4783 41.9999C68.4791 41.9999 65.1768 40.1063 63.4966 37.8677V41.3098H54.687V2.54248H63.4966V15.9496ZM70.682 19.3343C66.3944 19.3343 63.2062 22.6039 63.2062 26.9086C63.2062 31.2134 66.3944 34.483 70.682 34.483C74.9696 34.483 78.0997 31.2134 78.0997 26.9086C78.0997 22.6039 74.9115 19.3343 70.682 19.3343Z" fill="#33261D"/>
<path d="M121.172 12.5074V41.3118H112.363V37.8696C110.625 40.1082 107.32 42.0018 103.323 42.0018C95.3847 42.0018 88.9502 35.518 88.9502 26.9106C88.9502 18.3031 95.3826 11.8193 103.323 11.8193C107.322 11.8193 110.625 13.7129 112.363 15.9516V12.5094H121.172V12.5074ZM105.177 34.4829C109.407 34.4829 112.595 31.2133 112.595 26.9085C112.595 22.6038 109.407 19.3342 105.177 19.3342C100.948 19.3342 97.7017 22.6038 97.7017 26.9085C97.7017 31.2133 100.89 34.4829 105.177 34.4829Z" fill="#33261D"/>
<path d="M199.428 12.5074V41.3118H190.618V37.8696C188.88 40.1082 185.576 42.0018 181.578 42.0018C173.64 42.0018 167.206 35.518 167.206 26.9106C167.206 18.3031 173.638 11.8193 181.578 11.8193C185.578 11.8193 188.88 13.7129 190.618 15.9516V12.5094H199.428V12.5074ZM183.433 34.4829C187.662 34.4829 190.851 31.2133 190.851 26.9085C190.851 22.6038 187.662 19.3342 183.433 19.3342C179.203 19.3342 175.957 22.6038 175.957 26.9085C175.957 31.2133 179.145 34.4829 183.433 34.4829Z" fill="#33261D"/>
<path d="M46.8064 22.4892C49.7678 22.4892 52.1685 20.1122 52.1685 17.1801C52.1685 14.248 49.7678 11.8711 46.8064 11.8711C43.845 11.8711 41.4443 14.248 41.4443 17.1801C41.4443 20.1122 43.845 22.4892 46.8064 22.4892Z" fill="#33261D"/>
<path d="M39.7705 16.6376V12.5054H30.9609V41.3098H39.7705V27.4816C39.7705 27.4816 39.7705 27.4775 39.7705 27.4734V16.6355V16.6376Z" fill="#33261D"/>
<path d="M159.844 10.6181C162.805 10.6181 165.206 8.24115 165.206 5.30905C165.206 2.37694 162.805 0 159.844 0C156.883 0 154.482 2.37694 154.482 5.30905C154.482 8.24115 156.883 10.6181 159.844 10.6181Z" fill="#33261D"/>
<path d="M207.692 22.6593C204.396 22.6593 202.432 20.1824 202.432 17.264C202.432 14.3455 204.396 11.8687 207.692 11.8687C210.988 11.8687 213 14.3229 213 17.264C213 20.205 211.013 22.6593 207.692 22.6593ZM207.692 12.8647C205.168 12.8647 203.483 14.67 203.483 17.264C203.483 19.8579 205.168 21.6632 207.692 21.6632C210.217 21.6632 211.949 19.7655 211.949 17.264C211.949 14.7624 210.264 12.8647 207.692 12.8647ZM207.879 14.8323C209.094 14.8323 209.889 15.5039 209.889 16.5225C209.889 17.1941 209.561 17.6809 209.024 17.9581L209.959 19.2787V19.5108H208.837L207.924 18.2149H206.732V19.5108H205.68V14.8343H207.879V14.8323ZM206.734 15.8284V17.2414H207.856C208.393 17.2414 208.769 17.0093 208.769 16.5472C208.769 16.0604 208.441 15.8304 207.856 15.8304H206.734V15.8284Z" fill="#33261D"/>
<path d="M164.25 16.6376V12.5054H155.44V41.3098H164.25V27.4816C164.25 27.4816 164.25 27.4775 164.25 27.4734V16.6355V16.6376Z" fill="#33261D"/>
</svg>
